<?xml version="1.0" encoding="UTF-8" standalone="no"?><svg xmlns="http://www.w3.org/2000/svg" xmlns:xlink="http://www.w3.org/1999/xlink" clip-rule="evenodd" stroke-miterlimit="10" viewBox="0 0 1024 768"><desc>SVG generated by Keynote</desc><defs></defs><g transform="matrix(1.00, 0.00, -0.00, -1.00, 0.0, 768.0)"><g><clipPath id="clip0x600000eb6380"><path d="M 0.0 768.0 L 1024.0 768.0 L 1024.0 0.0 L 0.0 0.0 Z M 0.0 768.0 "></path></clipPath><g clip-path="url(#clip0x600000eb6380)"><image xlink:href="../../69E4C2E2-6185-4F29-93A3-A8243C0B68C4/assets/B4C0A52AB44535D77F6859A7B0B72F7C.jpeg" width="2880.00" height="1800.00" transform="matrix(0.36, 0.00, -0.00, -0.36, 0.0, 704.0)"></image></g></g><text xml:space="preserve" font-family="HelveticaNeue,Helvetica Neue" font-size="80.0" fill="#FEFFFF" transform="matrix(1.00, 0.00, -0.00, -1.00, 349.0, 633.3)">S</text><text xml:space="preserve" font-family="HelveticaNeue,Helvetica Neue" font-size="80.0" fill="#FEFFFF" transform="matrix(1.00, 0.00, -0.00, -1.00, 400.8, 633.3)">m</text><text xml:space="preserve" font-family="HelveticaNeue,Helvetica Neue" font-size="80.0" fill="#FEFFFF" transform="matrix(1.00, 0.00, -0.00, -1.00, 469.1, 633.3)">a</text><text xml:space="preserve" font-family="HelveticaNeue,Helvetica Neue" font-size="80.0" fill="#FEFFFF" transform="matrix(1.00, 0.00, -0.00, -1.00, 512.0, 633.3)">l</text><text xml:space="preserve" font-family="HelveticaNeue,Helvetica Neue" font-size="80.0" fill="#FEFFFF" transform="matrix(1.00, 0.00, -0.00, -1.00, 529.8, 633.3)">l</text><text xml:space="preserve" font-family="HelveticaNeue,Helvetica Neue" font-size="80.0" fill="#FEFFFF" transform="matrix(1.00, 0.00, -0.00, -1.00, 547.6, 633.3)">t</text><text xml:space="preserve" font-family="HelveticaNeue,Helvetica Neue" font-size="80.0" fill="#FEFFFF" transform="matrix(1.00, 0.00, -0.00, -1.00, 572.8, 633.3)">a</text><text xml:space="preserve" font-family="HelveticaNeue,Helvetica Neue" font-size="80.0" fill="#FEFFFF" transform="matrix(1.00, 0.00, -0.00, -1.00, 615.7, 633.3)">l</text><text xml:space="preserve" font-family="HelveticaNeue,Helvetica Neue" font-size="80.0" fill="#FEFFFF" transform="matrix(1.00, 0.00, -0.00, -1.00, 633.5, 633.3)">k</text><path d="M 42.2 522.7 L 980.8 522.7 L 980.8 481.7 L 42.2 481.7 Z M 42.2 522.7 " fill="#F8F8F8"></path><text xml:space="preserve" font-family="Courier,Courier" font-size="34.0" fill="#7E0C00" transform="matrix(1.00, 0.00, -0.00, -1.00, 42.2, 490.1)">3</text><text xml:space="preserve" font-family="Courier,Courier" font-size="34.0" fill="#000000" transform="matrix(1.00, 0.00, -0.00, -1.00, 62.6, 490.1)"> </text><text xml:space="preserve" font-family="Courier,Courier" font-size="34.0" fill="#000000" transform="matrix(1.00, 0.00, -0.00, -1.00, 83.0, 490.1)">f</text><text xml:space="preserve" font-family="Courier,Courier" font-size="34.0" fill="#000000" transform="matrix(1.00, 0.00, -0.00, -1.00, 103.4, 490.1)">a</text><text xml:space="preserve" font-family="Courier,Courier" font-size="34.0" fill="#000000" transform="matrix(1.00, 0.00, -0.00, -1.00, 123.8, 490.1)">c</text><text xml:space="preserve" font-family="Courier,Courier" font-size="34.0" fill="#000000" transform="matrix(1.00, 0.00, -0.00, -1.00, 144.2, 490.1)">t</text><text xml:space="preserve" font-family="Courier,Courier" font-size="34.0" fill="#000000" transform="matrix(1.00, 0.00, -0.00, -1.00, 164.6, 490.1)">o</text><text xml:space="preserve" font-family="Courier,Courier" font-size="34.0" fill="#000000" transform="matrix(1.00, 0.00, -0.00, -1.00, 185.1, 490.1)">r</text><text xml:space="preserve" font-family="Courier,Courier" font-size="34.0" fill="#000000" transform="matrix(1.00, 0.00, -0.00, -1.00, 205.5, 490.1)">i</text><text xml:space="preserve" font-family="Courier,Courier" font-size="34.0" fill="#000000" transform="matrix(1.00, 0.00, -0.00, -1.00, 225.9, 490.1)">a</text><text xml:space="preserve" font-family="Courier,Courier" font-size="34.0" fill="#000000" transform="matrix(1.00, 0.00, -0.00, -1.00, 246.3, 490.1)">l</text><text xml:space="preserve" font-family="Courier,Courier" font-size="34.0" fill="#000000" transform="matrix(1.00, 0.00, -0.00, -1.00, 266.7, 490.1)"> </text><text xml:space="preserve" font-family="Courier,Courier" font-size="34.0" fill="#000000" transform="matrix(1.00, 0.00, -0.00, -1.00, 287.1, 490.1)">+</text><text xml:space="preserve" font-family="Courier,Courier" font-size="34.0" fill="#000000" transform="matrix(1.00, 0.00, -0.00, -1.00, 307.5, 490.1)"> </text><text xml:space="preserve" font-family="Courier,Courier" font-size="34.0" fill="#00137F" transform="matrix(1.00, 0.00, -0.00, -1.00, 327.9, 490.1)">4</text><text xml:space="preserve" font-family="Courier,Courier" font-size="34.0" fill="#000000" transform="matrix(1.00, 0.00, -0.00, -1.00, 348.3, 490.1)"> </text><text xml:space="preserve" font-family="Courier,Courier" font-size="34.0" fill="#000000" transform="matrix(1.00, 0.00, -0.00, -1.00, 368.7, 490.1)">f</text><text xml:space="preserve" font-family="Courier,Courier" font-size="34.0" fill="#000000" transform="matrix(1.00, 0.00, -0.00, -1.00, 389.1, 490.1)">a</text><text xml:space="preserve" font-family="Courier,Courier" font-size="34.0" fill="#000000" transform="matrix(1.00, 0.00, -0.00, -1.00, 409.5, 490.1)">c</text><text xml:space="preserve" font-family="Courier,Courier" font-size="34.0" fill="#000000" transform="matrix(1.00, 0.00, -0.00, -1.00, 429.9, 490.1)">t</text><text xml:space="preserve" font-family="Courier,Courier" font-size="34.0" fill="#000000" transform="matrix(1.00, 0.00, -0.00, -1.00, 450.3, 490.1)">o</text><text xml:space="preserve" font-family="Courier,Courier" font-size="34.0" fill="#000000" transform="matrix(1.00, 0.00, -0.00, -1.00, 470.7, 490.1)">r</text><text xml:space="preserve" font-family="Courier,Courier" font-size="34.0" fill="#000000" transform="matrix(1.00, 0.00, -0.00, -1.00, 491.1, 490.1)">i</text><text xml:space="preserve" font-family="Courier,Courier" font-size="34.0" fill="#000000" transform="matrix(1.00, 0.00, -0.00, -1.00, 511.5, 490.1)">a</text><text xml:space="preserve" font-family="Courier,Courier" font-size="34.0" fill="#000000" transform="matrix(1.00, 0.00, -0.00, -1.00, 531.9, 490.1)">l</text><text xml:space="preserve" font-family="Courier,Courier" font-size="34.0" fill="#000000" transform="matrix(1.00, 0.00, -0.00, -1.00, 552.3, 490.1)"> </text><text xml:space="preserve" font-family="Courier,Courier" font-size="34.0" fill="#000000" transform="matrix(1.00, 0.00, -0.00, -1.00, 572.7, 490.1)">b</text><text xml:space="preserve" font-family="Courier,Courier" font-size="34.0" fill="#000000" transform="matrix(1.00, 0.00, -0.00, -1.00, 593.1, 490.1)">e</text><text xml:space="preserve" font-family="Courier,Courier" font-size="34.0" fill="#000000" transform="matrix(1.00, 0.00, -0.00, -1.00, 613.5, 490.1)">t</text><text xml:space="preserve" font-family="Courier,Courier" font-size="34.0" fill="#000000" transform="matrix(1.00, 0.00, -0.00, -1.00, 633.9, 490.1)">w</text><text xml:space="preserve" font-family="Courier,Courier" font-size="34.0" fill="#000000" transform="matrix(1.00, 0.00, -0.00, -1.00, 654.3, 490.1)">e</text><text xml:space="preserve" font-family="Courier,Courier" font-size="34.0" fill="#000000" transform="matrix(1.00, 0.00, -0.00, -1.00, 674.7, 490.1)">e</text><text xml:space="preserve" font-family="Courier,Courier" font-size="34.0" fill="#000000" transform="matrix(1.00, 0.00, -0.00, -1.00, 695.1, 490.1)">n</text><text xml:space="preserve" font-family="Courier,Courier" font-size="34.0" fill="#000000" transform="matrix(1.00, 0.00, -0.00, -1.00, 715.5, 490.1)">:</text><text xml:space="preserve" font-family="Courier,Courier" font-size="34.0" fill="#000000" transform="matrix(1.00, 0.00, -0.00, -1.00, 735.9, 490.1)"> </text><text xml:space="preserve" font-family="Courier,Courier" font-size="34.0" fill="#00137F" transform="matrix(1.00, 0.00, -0.00, -1.00, 756.3, 490.1)">1</text><text xml:space="preserve" font-family="Courier,Courier" font-size="34.0" fill="#00137F" transform="matrix(1.00, 0.00, -0.00, -1.00, 776.7, 490.1)">0</text><text xml:space="preserve" font-family="Courier,Courier" font-size="34.0" fill="#000000" transform="matrix(1.00, 0.00, -0.00, -1.00, 797.1, 490.1)"> </text><text xml:space="preserve" font-family="Courier,Courier" font-size="34.0" fill="#000000" transform="matrix(1.00, 0.00, -0.00, -1.00, 817.6, 490.1)">a</text><text xml:space="preserve" font-family="Courier,Courier" font-size="34.0" fill="#000000" transform="matrix(1.00, 0.00, -0.00, -1.00, 838.0, 490.1)">n</text><text xml:space="preserve" font-family="Courier,Courier" font-size="34.0" fill="#000000" transform="matrix(1.00, 0.00, -0.00, -1.00, 858.4, 490.1)">d</text><text xml:space="preserve" font-family="Courier,Courier" font-size="34.0" fill="#000000" transform="matrix(1.00, 0.00, -0.00, -1.00, 878.8, 490.1)">:</text><text xml:space="preserve" font-family="Courier,Courier" font-size="34.0" fill="#000000" transform="matrix(1.00, 0.00, -0.00, -1.00, 899.2, 490.1)"> </text><text xml:space="preserve" font-family="Courier,Courier" font-size="34.0" fill="#00137F" transform="matrix(1.00, 0.00, -0.00, -1.00, 919.6, 490.1)">1</text><text xml:space="preserve" font-family="Courier,Courier" font-size="34.0" fill="#00137F" transform="matrix(1.00, 0.00, -0.00, -1.00, 940.0, 490.1)">0</text><text xml:space="preserve" font-family="Courier,Courier" font-size="34.0" fill="#00137F" transform="matrix(1.00, 0.00, -0.00, -1.00, 960.4, 490.1)">0</text><path d="M 249.0 364.6 L 753.0 364.6 L 753.0 322.6 L 249.0 322.6 Z M 249.0 364.6 " fill="#F8F8F8"></path><path d="M 249.0 322.6 L 774.0 322.6 L 774.0 280.6 L 249.0 280.6 Z M 249.0 322.6 " fill="#F8F8F8"></path><path d="M 249.0 280.6 L 522.0 280.6 L 522.0 238.6 L 249.0 238.6 Z M 249.0 280.6 " fill="#F8F8F8"></path><text xml:space="preserve" font-family="Courier,Courier" font-size="35.0" fill="#000000" transform="matrix(1.00, 0.00, -0.00, -1.00, 249.0, 331.2)"> </text><text xml:space="preserve" font-family="Courier,Courier" font-size="35.0" fill="#000000" transform="matrix(1.00, 0.00, -0.00, -1.00, 270.0, 331.2)"> </text><text xml:space="preserve" font-family="Courier,Courier" font-size="35.0" fill="#00137F" transform="matrix(1.00, 0.00, -0.00, -1.00, 291.0, 331.2)">w</text><text xml:space="preserve" font-family="Courier,Courier" font-size="35.0" fill="#00137F" transform="matrix(1.00, 0.00, -0.00, -1.00, 312.0, 331.2)">i</text><text xml:space="preserve" font-family="Courier,Courier" font-size="35.0" fill="#00137F" transform="matrix(1.00, 0.00, -0.00, -1.00, 333.0, 331.2)">n</text><text xml:space="preserve" font-family="Courier,Courier" font-size="35.0" fill="#00137F" transform="matrix(1.00, 0.00, -0.00, -1.00, 354.0, 331.2)">d</text><text xml:space="preserve" font-family="Courier,Courier" font-size="35.0" fill="#00137F" transform="matrix(1.00, 0.00, -0.00, -1.00, 375.0, 331.2)">o</text><text xml:space="preserve" font-family="Courier,Courier" font-size="35.0" fill="#00137F" transform="matrix(1.00, 0.00, -0.00, -1.00, 396.0, 331.2)">w</text><text xml:space="preserve" font-family="Courier,Courier" font-size="35.0" fill="#000000" transform="matrix(1.00, 0.00, -0.00, -1.00, 417.0, 331.2)"> </text><text xml:space="preserve" font-family="Courier-Bold,Courier" font-weight="bold" font-size="35.0" fill="#000D66" transform="matrix(1.00, 0.00, -0.00, -1.00, 438.0, 331.2)">:</text><text xml:space="preserve" font-family="Courier-Bold,Courier" font-weight="bold" font-size="35.0" fill="#000D66" transform="matrix(1.00, 0.00, -0.00, -1.00, 459.0, 331.2)">=</text><text xml:space="preserve" font-family="Courier,Courier" font-size="35.0" fill="#000000" transform="matrix(1.00, 0.00, -0.00, -1.00, 480.0, 331.2)"> </text><text xml:space="preserve" font-family="Courier,Courier" font-size="35.0" fill="#0432FF" transform="matrix(1.00, 0.00, -0.00, -1.00, 501.0, 331.2)">W</text><text xml:space="preserve" font-family="Courier,Courier" font-size="35.0" fill="#0432FF" transform="matrix(1.00, 0.00, -0.00, -1.00, 522.0, 331.2)">i</text><text xml:space="preserve" font-family="Courier,Courier" font-size="35.0" fill="#0432FF" transform="matrix(1.00, 0.00, -0.00, -1.00, 543.0, 331.2)">n</text><text xml:space="preserve" font-family="Courier,Courier" font-size="35.0" fill="#0432FF" transform="matrix(1.00, 0.00, -0.00, -1.00, 564.0, 331.2)">d</text><text xml:space="preserve" font-family="Courier,Courier" font-size="35.0" fill="#0432FF" transform="matrix(1.00, 0.00, -0.00, -1.00, 585.0, 331.2)">o</text><text xml:space="preserve" font-family="Courier,Courier" font-size="35.0" fill="#0432FF" transform="matrix(1.00, 0.00, -0.00, -1.00, 606.0, 331.2)">w</text><text xml:space="preserve" font-family="Courier,Courier" font-size="35.0" fill="#000000" transform="matrix(1.00, 0.00, -0.00, -1.00, 627.0, 331.2)"> </text><text xml:space="preserve" font-family="Courier,Courier" font-size="35.0" fill="#000000" transform="matrix(1.00, 0.00, -0.00, -1.00, 648.0, 331.2)">n</text><text xml:space="preserve" font-family="Courier,Courier" font-size="35.0" fill="#000000" transform="matrix(1.00, 0.00, -0.00, -1.00, 669.0, 331.2)">e</text><text xml:space="preserve" font-family="Courier,Courier" font-size="35.0" fill="#000000" transform="matrix(1.00, 0.00, -0.00, -1.00, 690.0, 331.2)">w</text><text xml:space="preserve" font-family="Courier,Courier" font-size="35.0" fill="#000000" transform="matrix(1.00, 0.00, -0.00, -1.00, 711.0, 331.2)">.</text><text xml:space="preserve" font-family="Courier,Courier" font-size="35.0" fill="#000000" transform="matrix(1.00, 0.00, -0.00, -1.00, 249.0, 289.2)"> </text><text xml:space="preserve" font-family="Courier,Courier" font-size="35.0" fill="#000000" transform="matrix(1.00, 0.00, -0.00, -1.00, 270.0, 289.2)"> </text><text xml:space="preserve" font-family="Courier,Courier" font-size="35.0" fill="#00137F" transform="matrix(1.00, 0.00, -0.00, -1.00, 291.0, 289.2)">w</text><text xml:space="preserve" font-family="Courier,Courier" font-size="35.0" fill="#00137F" transform="matrix(1.00, 0.00, -0.00, -1.00, 312.0, 289.2)">i</text><text xml:space="preserve" font-family="Courier,Courier" font-size="35.0" fill="#00137F" transform="matrix(1.00, 0.00, -0.00, -1.00, 333.0, 289.2)">n</text><text xml:space="preserve" font-family="Courier,Courier" font-size="35.0" fill="#00137F" transform="matrix(1.00, 0.00, -0.00, -1.00, 354.0, 289.2)">d</text><text xml:space="preserve" font-family="Courier,Courier" font-size="35.0" fill="#00137F" transform="matrix(1.00, 0.00, -0.00, -1.00, 375.0, 289.2)">o</text><text xml:space="preserve" font-family="Courier,Courier" font-size="35.0" fill="#00137F" transform="matrix(1.00, 0.00, -0.00, -1.00, 396.0, 289.2)">w</text><text xml:space="preserve" font-family="Courier,Courier" font-size="35.0" fill="#000000" transform="matrix(1.00, 0.00, -0.00, -1.00, 417.0, 289.2)"> </text><text xml:space="preserve" font-family="Courier,Courier" font-size="35.0" fill="#000000" transform="matrix(1.00, 0.00, -0.00, -1.00, 438.0, 289.2)">l</text><text xml:space="preserve" font-family="Courier,Courier" font-size="35.0" fill="#000000" transform="matrix(1.00, 0.00, -0.00, -1.00, 459.0, 289.2)">a</text><text xml:space="preserve" font-family="Courier,Courier" font-size="35.0" fill="#000000" transform="matrix(1.00, 0.00, -0.00, -1.00, 480.0, 289.2)">b</text><text xml:space="preserve" font-family="Courier,Courier" font-size="35.0" fill="#000000" transform="matrix(1.00, 0.00, -0.00, -1.00, 501.0, 289.2)">e</text><text xml:space="preserve" font-family="Courier,Courier" font-size="35.0" fill="#000000" transform="matrix(1.00, 0.00, -0.00, -1.00, 522.0, 289.2)">l</text><text xml:space="preserve" font-family="Courier,Courier" font-size="35.0" fill="#000000" transform="matrix(1.00, 0.00, -0.00, -1.00, 543.0, 289.2)">:</text><text xml:space="preserve" font-family="Courier,Courier" font-size="35.0" fill="#000000" transform="matrix(1.00, 0.00, -0.00, -1.00, 564.0, 289.2)"> </text><text xml:space="preserve" font-family="Courier,Courier" font-size="35.0" fill="#7E0C00" transform="matrix(1.00, 0.00, -0.00, -1.00, 585.0, 289.2)">'</text><text xml:space="preserve" font-family="Courier,Courier" font-size="35.0" fill="#7E0C00" transform="matrix(1.00, 0.00, -0.00, -1.00, 606.0, 289.2)">H</text><text xml:space="preserve" font-family="Courier,Courier" font-size="35.0" fill="#7E0C00" transform="matrix(1.00, 0.00, -0.00, -1.00, 627.0, 289.2)">e</text><text xml:space="preserve" font-family="Courier,Courier" font-size="35.0" fill="#7E0C00" transform="matrix(1.00, 0.00, -0.00, -1.00, 648.0, 289.2)">l</text><text xml:space="preserve" font-family="Courier,Courier" font-size="35.0" fill="#7E0C00" transform="matrix(1.00, 0.00, -0.00, -1.00, 669.0, 289.2)">l</text><text xml:space="preserve" font-family="Courier,Courier" font-size="35.0" fill="#7E0C00" transform="matrix(1.00, 0.00, -0.00, -1.00, 690.0, 289.2)">o</text><text xml:space="preserve" font-family="Courier,Courier" font-size="35.0" fill="#7E0C00" transform="matrix(1.00, 0.00, -0.00, -1.00, 711.0, 289.2)">'</text><text xml:space="preserve" font-family="Courier,Courier" font-size="35.0" fill="#000000" transform="matrix(1.00, 0.00, -0.00, -1.00, 732.0, 289.2)">.</text><text xml:space="preserve" font-family="Courier,Courier" font-size="35.0" fill="#000000" transform="matrix(1.00, 0.00, -0.00, -1.00, 249.0, 247.2)"> </text><text xml:space="preserve" font-family="Courier,Courier" font-size="35.0" fill="#000000" transform="matrix(1.00, 0.00, -0.00, -1.00, 270.0, 247.2)"> </text><text xml:space="preserve" font-family="Courier,Courier" font-size="35.0" fill="#00137F" transform="matrix(1.00, 0.00, -0.00, -1.00, 291.0, 247.2)">w</text><text xml:space="preserve" font-family="Courier,Courier" font-size="35.0" fill="#00137F" transform="matrix(1.00, 0.00, -0.00, -1.00, 312.0, 247.2)">i</text><text xml:space="preserve" font-family="Courier,Courier" font-size="35.0" fill="#00137F" transform="matrix(1.00, 0.00, -0.00, -1.00, 333.0, 247.2)">n</text><text xml:space="preserve" font-family="Courier,Courier" font-size="35.0" fill="#00137F" transform="matrix(1.00, 0.00, -0.00, -1.00, 354.0, 247.2)">d</text><text xml:space="preserve" font-family="Courier,Courier" font-size="35.0" fill="#00137F" transform="matrix(1.00, 0.00, -0.00, -1.00, 375.0, 247.2)">o</text><text xml:space="preserve" font-family="Courier,Courier" font-size="35.0" fill="#00137F" transform="matrix(1.00, 0.00, -0.00, -1.00, 396.0, 247.2)">w</text><text xml:space="preserve" font-family="Courier,Courier" font-size="35.0" fill="#000000" transform="matrix(1.00, 0.00, -0.00, -1.00, 417.0, 247.2)"> </text><text xml:space="preserve" font-family="Courier,Courier" font-size="35.0" fill="#000000" transform="matrix(1.00, 0.00, -0.00, -1.00, 438.0, 247.2)">o</text><text xml:space="preserve" font-family="Courier,Courier" font-size="35.0" fill="#000000" transform="matrix(1.00, 0.00, -0.00, -1.00, 459.0, 247.2)">p</text><text xml:space="preserve" font-family="Courier,Courier" font-size="35.0" fill="#000000" transform="matrix(1.00, 0.00, -0.00, -1.00, 480.0, 247.2)">e</text><text xml:space="preserve" font-family="Courier,Courier" font-size="35.0" fill="#000000" transform="matrix(1.00, 0.00, -0.00, -1.00, 501.0, 247.2)">n</text></g></svg>