<?xml version="1.0" encoding="UTF-8" standalone="no"?><svg xmlns="http://www.w3.org/2000/svg" xmlns:xlink="http://www.w3.org/1999/xlink" clip-rule="evenodd" stroke-miterlimit="10" viewBox="0 0 1024 768"><desc>SVG generated by Keynote</desc><defs></defs><g transform="matrix(1.00, 0.00, -0.00, -1.00, 0.0, 768.0)"><g><clipPath id="clip0x600000ca9ba0"><path d="M 0.0 768.0 L 1024.0 768.0 L 1024.0 0.0 L 0.0 0.0 Z M 0.0 768.0 "></path></clipPath><g clip-path="url(#clip0x600000ca9ba0)"><image xlink:href="../../69E4C2E2-6185-4F29-93A3-A8243C0B68C4/assets/B4C0A52AB44535D77F6859A7B0B72F7C.jpeg" width="2880.00" height="1800.00" transform="matrix(0.36, 0.00, -0.00, -0.36, 0.0, 704.0)"></image></g></g><text xml:space="preserve" font-family="HelveticaNeue,Helvetica Neue" font-size="80.0" fill="#FEFFFF" transform="matrix(1.00, 0.00, -0.00, -1.00, 336.4, 633.3)">T</text><text xml:space="preserve" font-family="HelveticaNeue,Helvetica Neue" font-size="80.0" fill="#FEFFFF" transform="matrix(1.00, 0.00, -0.00, -1.00, 382.4, 633.3)">h</text><text xml:space="preserve" font-family="HelveticaNeue,Helvetica Neue" font-size="80.0" fill="#FEFFFF" transform="matrix(1.00, 0.00, -0.00, -1.00, 426.8, 633.3)">e</text><text xml:space="preserve" font-family="HelveticaNeue,Helvetica Neue" font-size="80.0" fill="#FEFFFF" transform="matrix(1.00, 0.00, -0.00, -1.00, 469.8, 633.3)"> </text><text xml:space="preserve" font-family="HelveticaNeue,Helvetica Neue" font-size="80.0" fill="#FEFFFF" transform="matrix(1.00, 0.00, -0.00, -1.00, 492.0, 633.3)">F</text><text xml:space="preserve" font-family="HelveticaNeue,Helvetica Neue" font-size="80.0" fill="#FEFFFF" transform="matrix(1.00, 0.00, -0.00, -1.00, 538.0, 633.3)">i</text><text xml:space="preserve" font-family="HelveticaNeue,Helvetica Neue" font-size="80.0" fill="#FEFFFF" transform="matrix(1.00, 0.00, -0.00, -1.00, 555.7, 633.3)">r</text><text xml:space="preserve" font-family="HelveticaNeue,Helvetica Neue" font-size="80.0" fill="#FEFFFF" transform="matrix(1.00, 0.00, -0.00, -1.00, 582.4, 633.3)">s</text><text xml:space="preserve" font-family="HelveticaNeue,Helvetica Neue" font-size="80.0" fill="#FEFFFF" transform="matrix(1.00, 0.00, -0.00, -1.00, 622.4, 633.3)">t</text><text xml:space="preserve" font-family="HelveticaNeue,Helvetica Neue" font-size="80.0" fill="#FEFFFF" transform="matrix(1.00, 0.00, -0.00, -1.00, 647.6, 633.3)">s</text><g><g><clipPath id="clip0x6080008be5a0"><path d="M 99.5 550.5 L 924.5 550.5 L 924.5 99.5 L 99.5 99.5 Z M 99.5 550.5 "></path></clipPath><g clip-path="url(#clip0x6080008be5a0)"><g><clipPath id="clip0x6080008be7e0"><path d="M 100.5 475.5 L 511.5 475.5 L 511.5 549.5 L 100.5 549.5 Z M 100.5 475.5 "></path></clipPath><g clip-path="url(#clip0x6080008be7e0)"><text xml:space="preserve" font-family="Helvetica-Bold,Helvetica" font-weight="bold" font-size="28.0" fill="#FEFFFE" transform="matrix(1.00, 0.00, -0.00, -1.00, 274.9, 501.9)">1</text><text xml:space="preserve" font-family="Helvetica-Bold,Helvetica" font-weight="bold" font-size="28.0" fill="#FEFFFE" transform="matrix(1.00, 0.00, -0.00, -1.00, 290.4, 501.9)">9</text><text xml:space="preserve" font-family="Helvetica-Bold,Helvetica" font-weight="bold" font-size="28.0" fill="#FEFFFE" transform="matrix(1.00, 0.00, -0.00, -1.00, 306.0, 501.9)">4</text><text xml:space="preserve" font-family="Helvetica-Bold,Helvetica" font-weight="bold" font-size="28.0" fill="#FEFFFE" transform="matrix(1.00, 0.00, -0.00, -1.00, 321.6, 501.9)">9</text></g></g></g></g><g><clipPath id="clip0x6080008bec00"><path d="M 99.5 550.5 L 924.5 550.5 L 924.5 99.5 L 99.5 99.5 Z M 99.5 550.5 "></path></clipPath><g clip-path="url(#clip0x6080008bec00)"><g><clipPath id="clip0x6080008bed80"><path d="M 512.5 475.5 L 923.5 475.5 L 923.5 549.5 L 512.5 549.5 Z M 512.5 475.5 "></path></clipPath><g clip-path="url(#clip0x6080008bed80)"><text xml:space="preserve" font-family="Helvetica-Bold,Helvetica" font-weight="bold" font-size="28.0" fill="#FEFFFE" transform="matrix(1.00, 0.00, -0.00, -1.00, 646.4, 501.9)">A</text><text xml:space="preserve" font-family="Helvetica-Bold,Helvetica" font-weight="bold" font-size="28.0" fill="#FEFFFE" transform="matrix(1.00, 0.00, -0.00, -1.00, 666.6, 501.9)">s</text><text xml:space="preserve" font-family="Helvetica-Bold,Helvetica" font-weight="bold" font-size="28.0" fill="#FEFFFE" transform="matrix(1.00, 0.00, -0.00, -1.00, 682.2, 501.9)">s</text><text xml:space="preserve" font-family="Helvetica-Bold,Helvetica" font-weight="bold" font-size="28.0" fill="#FEFFFE" transform="matrix(1.00, 0.00, -0.00, -1.00, 697.8, 501.9)">e</text><text xml:space="preserve" font-family="Helvetica-Bold,Helvetica" font-weight="bold" font-size="28.0" fill="#FEFFFE" transform="matrix(1.00, 0.00, -0.00, -1.00, 713.4, 501.9)">m</text><text xml:space="preserve" font-family="Helvetica-Bold,Helvetica" font-weight="bold" font-size="28.0" fill="#FEFFFE" transform="matrix(1.00, 0.00, -0.00, -1.00, 738.3, 501.9)">b</text><text xml:space="preserve" font-family="Helvetica-Bold,Helvetica" font-weight="bold" font-size="28.0" fill="#FEFFFE" transform="matrix(1.00, 0.00, -0.00, -1.00, 755.4, 501.9)">l</text><text xml:space="preserve" font-family="Helvetica-Bold,Helvetica" font-weight="bold" font-size="28.0" fill="#FEFFFE" transform="matrix(1.00, 0.00, -0.00, -1.00, 763.2, 501.9)">e</text><text xml:space="preserve" font-family="Helvetica-Bold,Helvetica" font-weight="bold" font-size="28.0" fill="#FEFFFE" transform="matrix(1.00, 0.00, -0.00, -1.00, 778.7, 501.9)">r</text></g></g></g></g><g><clipPath id="clip0x6080008bf2c0"><path d="M 99.5 550.5 L 924.5 550.5 L 924.5 99.5 L 99.5 99.5 Z M 99.5 550.5 "></path></clipPath><g clip-path="url(#clip0x6080008bf2c0)"><g><clipPath id="clip0x6080008bf440"><path d="M 100.5 400.5 L 511.5 400.5 L 511.5 474.5 L 100.5 474.5 Z M 100.5 400.5 "></path></clipPath><g clip-path="url(#clip0x6080008bf440)"><text xml:space="preserve" font-family="Helvetica-Bold,Helvetica" font-weight="bold" font-size="28.0" fill="#FEFFFE" transform="matrix(1.00, 0.00, -0.00, -1.00, 274.9, 426.9)">1</text><text xml:space="preserve" font-family="Helvetica-Bold,Helvetica" font-weight="bold" font-size="28.0" fill="#FEFFFE" transform="matrix(1.00, 0.00, -0.00, -1.00, 290.4, 426.9)">9</text><text xml:space="preserve" font-family="Helvetica-Bold,Helvetica" font-weight="bold" font-size="28.0" fill="#FEFFFE" transform="matrix(1.00, 0.00, -0.00, -1.00, 306.0, 426.9)">5</text><text xml:space="preserve" font-family="Helvetica-Bold,Helvetica" font-weight="bold" font-size="28.0" fill="#FEFFFE" transform="matrix(1.00, 0.00, -0.00, -1.00, 321.6, 426.9)">7</text></g></g></g></g><g><clipPath id="clip0x6080008bf7a0"><path d="M 99.5 550.5 L 924.5 550.5 L 924.5 99.5 L 99.5 99.5 Z M 99.5 550.5 "></path></clipPath><g clip-path="url(#clip0x6080008bf7a0)"><g><clipPath id="clip0x6080008bf920"><path d="M 512.5 400.5 L 923.5 400.5 L 923.5 474.5 L 512.5 474.5 Z M 512.5 400.5 "></path></clipPath><g clip-path="url(#clip0x6080008bf920)"><text xml:space="preserve" font-family="Helvetica-Bold,Helvetica" font-weight="bold" font-size="28.0" fill="#FEFFFE" transform="matrix(1.00, 0.00, -0.00, -1.00, 649.6, 426.9)">F</text><text xml:space="preserve" font-family="Helvetica-Bold,Helvetica" font-weight="bold" font-size="28.0" fill="#FEFFFE" transform="matrix(1.00, 0.00, -0.00, -1.00, 666.7, 426.9)">O</text><text xml:space="preserve" font-family="Helvetica-Bold,Helvetica" font-weight="bold" font-size="28.0" fill="#FEFFFE" transform="matrix(1.00, 0.00, -0.00, -1.00, 688.4, 426.9)">R</text><text xml:space="preserve" font-family="Helvetica-Bold,Helvetica" font-weight="bold" font-size="28.0" fill="#FEFFFE" transform="matrix(1.00, 0.00, -0.00, -1.00, 708.7, 426.9)">T</text><text xml:space="preserve" font-family="Helvetica-Bold,Helvetica" font-weight="bold" font-size="28.0" fill="#FEFFFE" transform="matrix(1.00, 0.00, -0.00, -1.00, 725.8, 426.9)">R</text><text xml:space="preserve" font-family="Helvetica-Bold,Helvetica" font-weight="bold" font-size="28.0" fill="#FEFFFE" transform="matrix(1.00, 0.00, -0.00, -1.00, 746.0, 426.9)">A</text><text xml:space="preserve" font-family="Helvetica-Bold,Helvetica" font-weight="bold" font-size="28.0" fill="#FEFFFE" transform="matrix(1.00, 0.00, -0.00, -1.00, 766.2, 426.9)">N</text></g></g></g></g><g><clipPath id="clip0x6080008bfda0"><path d="M 99.5 550.5 L 924.5 550.5 L 924.5 99.5 L 99.5 99.5 Z M 99.5 550.5 "></path></clipPath><g clip-path="url(#clip0x6080008bfda0)"><g><clipPath id="clip0x6080008bff20"><path d="M 100.5 325.5 L 511.5 325.5 L 511.5 399.5 L 100.5 399.5 Z M 100.5 325.5 "></path></clipPath><g clip-path="url(#clip0x6080008bff20)"><text xml:space="preserve" font-family="Helvetica-Bold,Helvetica" font-weight="bold" font-size="28.0" fill="#FEFFFE" transform="matrix(1.00, 0.00, -0.00, -1.00, 274.9, 351.9)">1</text><text xml:space="preserve" font-family="Helvetica-Bold,Helvetica" font-weight="bold" font-size="28.0" fill="#FEFFFE" transform="matrix(1.00, 0.00, -0.00, -1.00, 290.4, 351.9)">9</text><text xml:space="preserve" font-family="Helvetica-Bold,Helvetica" font-weight="bold" font-size="28.0" fill="#FEFFFE" transform="matrix(1.00, 0.00, -0.00, -1.00, 306.0, 351.9)">5</text><text xml:space="preserve" font-family="Helvetica-Bold,Helvetica" font-weight="bold" font-size="28.0" fill="#FEFFFE" transform="matrix(1.00, 0.00, -0.00, -1.00, 321.6, 351.9)">8</text></g></g></g></g><g><clipPath id="clip0x608000aa02a0"><path d="M 99.5 550.5 L 924.5 550.5 L 924.5 99.5 L 99.5 99.5 Z M 99.5 550.5 "></path></clipPath><g clip-path="url(#clip0x608000aa02a0)"><g><clipPath id="clip0x608000aa0420"><path d="M 512.5 325.5 L 923.5 325.5 L 923.5 399.5 L 512.5 399.5 Z M 512.5 325.5 "></path></clipPath><g clip-path="url(#clip0x608000aa0420)"><text xml:space="preserve" font-family="Helvetica-Bold,Helvetica" font-weight="bold" font-size="28.0" fill="#FEFFFE" transform="matrix(1.00, 0.00, -0.00, -1.00, 686.9, 351.9)">L</text><text xml:space="preserve" font-family="Helvetica-Bold,Helvetica" font-weight="bold" font-size="28.0" fill="#FEFFFE" transform="matrix(1.00, 0.00, -0.00, -1.00, 704.0, 351.9)">I</text><text xml:space="preserve" font-family="Helvetica-Bold,Helvetica" font-weight="bold" font-size="28.0" fill="#FEFFFE" transform="matrix(1.00, 0.00, -0.00, -1.00, 711.8, 351.9)">S</text><text xml:space="preserve" font-family="Helvetica-Bold,Helvetica" font-weight="bold" font-size="28.0" fill="#FEFFFE" transform="matrix(1.00, 0.00, -0.00, -1.00, 730.4, 351.9)">P</text></g></g></g></g><g><clipPath id="clip0x608000aa0780"><path d="M 99.5 550.5 L 924.5 550.5 L 924.5 99.5 L 99.5 99.5 Z M 99.5 550.5 "></path></clipPath><g clip-path="url(#clip0x608000aa0780)"><g><clipPath id="clip0x608000aa0900"><path d="M 100.5 250.5 L 511.5 250.5 L 511.5 324.5 L 100.5 324.5 Z M 100.5 250.5 "></path></clipPath><g clip-path="url(#clip0x608000aa0900)"><text xml:space="preserve" font-family="Helvetica-Bold,Helvetica" font-weight="bold" font-size="28.0" fill="#FEFFFE" transform="matrix(1.00, 0.00, -0.00, -1.00, 274.9, 276.9)">1</text><text xml:space="preserve" font-family="Helvetica-Bold,Helvetica" font-weight="bold" font-size="28.0" fill="#FEFFFE" transform="matrix(1.00, 0.00, -0.00, -1.00, 290.4, 276.9)">9</text><text xml:space="preserve" font-family="Helvetica-Bold,Helvetica" font-weight="bold" font-size="28.0" fill="#FEFFFE" transform="matrix(1.00, 0.00, -0.00, -1.00, 306.0, 276.9)">5</text><text xml:space="preserve" font-family="Helvetica-Bold,Helvetica" font-weight="bold" font-size="28.0" fill="#FEFFFE" transform="matrix(1.00, 0.00, -0.00, -1.00, 321.6, 276.9)">9</text></g></g></g></g><g><clipPath id="clip0x608000aa0c60"><path d="M 99.5 550.5 L 924.5 550.5 L 924.5 99.5 L 99.5 99.5 Z M 99.5 550.5 "></path></clipPath><g clip-path="url(#clip0x608000aa0c60)"><g><clipPath id="clip0x608000aa0de0"><path d="M 512.5 250.5 L 923.5 250.5 L 923.5 324.5 L 512.5 324.5 Z M 512.5 250.5 "></path></clipPath><g clip-path="url(#clip0x608000aa0de0)"><text xml:space="preserve" font-family="Helvetica-Bold,Helvetica" font-weight="bold" font-size="28.0" fill="#FEFFFE" transform="matrix(1.00, 0.00, -0.00, -1.00, 667.4, 276.9)">C</text><text xml:space="preserve" font-family="Helvetica-Bold,Helvetica" font-weight="bold" font-size="28.0" fill="#FEFFFE" transform="matrix(1.00, 0.00, -0.00, -1.00, 687.7, 276.9)">O</text><text xml:space="preserve" font-family="Helvetica-Bold,Helvetica" font-weight="bold" font-size="28.0" fill="#FEFFFE" transform="matrix(1.00, 0.00, -0.00, -1.00, 709.5, 276.9)">B</text><text xml:space="preserve" font-family="Helvetica-Bold,Helvetica" font-weight="bold" font-size="28.0" fill="#FEFFFE" transform="matrix(1.00, 0.00, -0.00, -1.00, 729.7, 276.9)">O</text><text xml:space="preserve" font-family="Helvetica-Bold,Helvetica" font-weight="bold" font-size="28.0" fill="#FEFFFE" transform="matrix(1.00, 0.00, -0.00, -1.00, 751.5, 276.9)">L</text></g></g></g></g><g><clipPath id="clip0x608000aa11a0"><path d="M 99.5 550.5 L 924.5 550.5 L 924.5 99.5 L 99.5 99.5 Z M 99.5 550.5 "></path></clipPath><g clip-path="url(#clip0x608000aa11a0)"><g><clipPath id="clip0x608000aa1320"><path d="M 100.5 175.5 L 511.5 175.5 L 511.5 249.5 L 100.5 249.5 Z M 100.5 175.5 "></path></clipPath><g clip-path="url(#clip0x608000aa1320)"><text xml:space="preserve" font-family="Helvetica-Bold,Helvetica" font-weight="bold" font-size="28.0" fill="#FEFFFE" transform="matrix(1.00, 0.00, -0.00, -1.00, 274.9, 201.9)">1</text><text xml:space="preserve" font-family="Helvetica-Bold,Helvetica" font-weight="bold" font-size="28.0" fill="#FEFFFE" transform="matrix(1.00, 0.00, -0.00, -1.00, 290.4, 201.9)">9</text><text xml:space="preserve" font-family="Helvetica-Bold,Helvetica" font-weight="bold" font-size="28.0" fill="#FEFFFE" transform="matrix(1.00, 0.00, -0.00, -1.00, 306.0, 201.9)">6</text><text xml:space="preserve" font-family="Helvetica-Bold,Helvetica" font-weight="bold" font-size="28.0" fill="#FEFFFE" transform="matrix(1.00, 0.00, -0.00, -1.00, 321.6, 201.9)">2</text></g></g></g></g><g><clipPath id="clip0x608000aa1680"><path d="M 99.5 550.5 L 924.5 550.5 L 924.5 99.5 L 99.5 99.5 Z M 99.5 550.5 "></path></clipPath><g clip-path="url(#clip0x608000aa1680)"><g><clipPath id="clip0x608000aa1800"><path d="M 512.5 175.5 L 923.5 175.5 L 923.5 249.5 L 512.5 249.5 Z M 512.5 175.5 "></path></clipPath><g clip-path="url(#clip0x608000aa1800)"><text xml:space="preserve" font-family="Helvetica-Bold,Helvetica" font-weight="bold" font-size="28.0" fill="#FEFFFE" transform="matrix(1.00, 0.00, -0.00, -1.00, 690.0, 201.9)">A</text><text xml:space="preserve" font-family="Helvetica-Bold,Helvetica" font-weight="bold" font-size="28.0" fill="#FEFFFE" transform="matrix(1.00, 0.00, -0.00, -1.00, 710.2, 201.9)">P</text><text xml:space="preserve" font-family="Helvetica-Bold,Helvetica" font-weight="bold" font-size="28.0" fill="#FEFFFE" transform="matrix(1.00, 0.00, -0.00, -1.00, 728.9, 201.9)">L</text></g></g></g></g><g><clipPath id="clip0x608000aa1b00"><path d="M 99.5 550.5 L 924.5 550.5 L 924.5 99.5 L 99.5 99.5 Z M 99.5 550.5 "></path></clipPath><g clip-path="url(#clip0x608000aa1b00)"><g><clipPath id="clip0x608000aa1c80"><path d="M 100.5 100.5 L 511.5 100.5 L 511.5 174.5 L 100.5 174.5 Z M 100.5 100.5 "></path></clipPath><g clip-path="url(#clip0x608000aa1c80)"><text xml:space="preserve" font-family="Helvetica-Bold,Helvetica" font-weight="bold" font-size="28.0" fill="#FEFFFE" transform="matrix(1.00, 0.00, -0.00, -1.00, 274.9, 126.9)">1</text><text xml:space="preserve" font-family="Helvetica-Bold,Helvetica" font-weight="bold" font-size="28.0" fill="#FEFFFE" transform="matrix(1.00, 0.00, -0.00, -1.00, 290.4, 126.9)">9</text><text xml:space="preserve" font-family="Helvetica-Bold,Helvetica" font-weight="bold" font-size="28.0" fill="#FEFFFE" transform="matrix(1.00, 0.00, -0.00, -1.00, 306.0, 126.9)">6</text><text xml:space="preserve" font-family="Helvetica-Bold,Helvetica" font-weight="bold" font-size="28.0" fill="#FEFFFE" transform="matrix(1.00, 0.00, -0.00, -1.00, 321.6, 126.9)">4</text></g></g></g></g><g><clipPath id="clip0x608000aa1fe0"><path d="M 99.5 550.5 L 924.5 550.5 L 924.5 99.5 L 99.5 99.5 Z M 99.5 550.5 "></path></clipPath><g clip-path="url(#clip0x608000aa1fe0)"><g><clipPath id="clip0x608000aa2160"><path d="M 512.5 100.5 L 923.5 100.5 L 923.5 174.5 L 512.5 174.5 Z M 512.5 100.5 "></path></clipPath><g clip-path="url(#clip0x608000aa2160)"><text xml:space="preserve" font-family="Helvetica-Bold,Helvetica" font-weight="bold" font-size="28.0" fill="#FEFFFE" transform="matrix(1.00, 0.00, -0.00, -1.00, 674.4, 126.9)">B</text><text xml:space="preserve" font-family="Helvetica-Bold,Helvetica" font-weight="bold" font-size="28.0" fill="#FEFFFE" transform="matrix(1.00, 0.00, -0.00, -1.00, 694.7, 126.9)">A</text><text xml:space="preserve" font-family="Helvetica-Bold,Helvetica" font-weight="bold" font-size="28.0" fill="#FEFFFE" transform="matrix(1.00, 0.00, -0.00, -1.00, 714.9, 126.9)">S</text><text xml:space="preserve" font-family="Helvetica-Bold,Helvetica" font-weight="bold" font-size="28.0" fill="#FEFFFE" transform="matrix(1.00, 0.00, -0.00, -1.00, 733.6, 126.9)">I</text><text xml:space="preserve" font-family="Helvetica-Bold,Helvetica" font-weight="bold" font-size="28.0" fill="#FEFFFE" transform="matrix(1.00, 0.00, -0.00, -1.00, 741.3, 126.9)">C</text></g></g></g></g><g><clipPath id="clip0x608000aa2520"><path d="M 99.5 550.5 L 924.5 550.5 L 924.5 99.5 L 99.5 99.5 Z M 99.5 550.5 "></path></clipPath><g clip-path="url(#clip0x608000aa2520)"><g><clipPath id="clip0x608000aa26a0"><path d="M 0.0 0.0 L 1024.0 0.0 L 1024.0 768.0 L 0.0 768.0 Z M 0.0 0.0 "></path></clipPath><g clip-path="url(#clip0x608000aa26a0)"><path d="M 414.0 1.5 L 414.0 452.5 " fill="none" stroke="#D6D6D6" stroke-width="1.00" transform="matrix(1.00, 0.00, 0.00, -1.00, 98.0, 552.0)"></path><path d="M 1.5 77.0 L 826.5 77.0 " fill="none" stroke="#D6D6D6" stroke-width="1.00" transform="matrix(1.00, 0.00, 0.00, -1.00, 98.0, 552.0)"></path><path d="M 1.5 152.0 L 826.5 152.0 " fill="none" stroke="#D6D6D6" stroke-width="1.00" transform="matrix(1.00, 0.00, 0.00, -1.00, 98.0, 552.0)"></path><path d="M 1.5 227.0 L 826.5 227.0 " fill="none" stroke="#D6D6D6" stroke-width="1.00" transform="matrix(1.00, 0.00, 0.00, -1.00, 98.0, 552.0)"></path><path d="M 1.5 302.0 L 826.5 302.0 " fill="none" stroke="#D6D6D6" stroke-width="1.00" transform="matrix(1.00, 0.00, 0.00, -1.00, 98.0, 552.0)"></path><path d="M 1.5 377.0 L 826.5 377.0 " fill="none" stroke="#D6D6D6" stroke-width="1.00" transform="matrix(1.00, 0.00, 0.00, -1.00, 98.0, 552.0)"></path><path d="M 2.0 1.5 L 2.0 452.5 " fill="none" stroke="#D5D5D5" stroke-width="1.00" transform="matrix(1.00, 0.00, 0.00, -1.00, 98.0, 552.0)"></path><path d="M 826.0 1.5 L 826.0 452.5 " fill="none" stroke="#D5D5D5" stroke-width="1.00" transform="matrix(1.00, 0.00, 0.00, -1.00, 98.0, 552.0)"></path><path d="M 1.5 2.0 L 826.5 2.0 " fill="none" stroke="#D5D5D5" stroke-width="1.00" transform="matrix(1.00, 0.00, 0.00, -1.00, 98.0, 552.0)"></path><path d="M 1.5 452.0 L 826.5 452.0 " fill="none" stroke="#D5D5D5" stroke-width="1.00" transform="matrix(1.00, 0.00, 0.00, -1.00, 98.0, 552.0)"></path></g></g></g></g></g></g></svg>