<?xml version="1.0" encoding="UTF-8" standalone="no"?><svg xmlns="http://www.w3.org/2000/svg" xmlns:xlink="http://www.w3.org/1999/xlink" clip-rule="evenodd" stroke-miterlimit="10" viewBox="0 0 1024 768"><desc>SVG generated by Keynote</desc><defs><pattern id="patternP1" patternUnits="userSpaceOnUse" width="256" height="256" viewBox="0 0 256 256"><image xlink:href="../../A2CA0713-C06F-4EC2-A124-1675AEB76A1E/assets/8E13FF0D2A86B705C84DE77C8D855D85.png" width="256.00" height="256.00"></image></pattern></defs><g transform="matrix(1.00, 0.00, -0.00, -1.00, 0.0, 768.0)"><g><clipPath id="clip0x6080008a7860"><path d="M 0.0 768.0 L 1024.0 768.0 L 1024.0 0.0 L 0.0 0.0 Z M 0.0 768.0 "></path></clipPath><g clip-path="url(#clip0x6080008a7860)"><image xlink:href="../../69E4C2E2-6185-4F29-93A3-A8243C0B68C4/assets/B4C0A52AB44535D77F6859A7B0B72F7C.jpeg" width="2880.00" height="1800.00" transform="matrix(0.36, 0.00, -0.00, -0.36, 0.0, 704.0)"></image></g></g><image xlink:href="372A201943EC60DD32DD5590E5B063A5.jpeg" width="1340.00" height="1024.00" transform="matrix(0.75, 0.00, -0.00, -0.75, 9.5, 768.0)"></image><text xml:space="preserve" font-family="HelveticaNeue,Helvetica Neue" font-size="80.0" fill="#FEFFFF" transform="matrix(1.00, 0.00, -0.00, -1.00, 393.5, 633.3)">E</text><text xml:space="preserve" font-family="HelveticaNeue,Helvetica Neue" font-size="80.0" fill="#FEFFFF" transform="matrix(1.00, 0.00, -0.00, -1.00, 442.4, 633.3)">N</text><text xml:space="preserve" font-family="HelveticaNeue,Helvetica Neue" font-size="80.0" fill="#FEFFFF" transform="matrix(1.00, 0.00, -0.00, -1.00, 500.2, 633.3)">I</text><text xml:space="preserve" font-family="HelveticaNeue,Helvetica Neue" font-size="80.0" fill="#FEFFFF" transform="matrix(1.00, 0.00, -0.00, -1.00, 520.9, 633.3)">A</text><text xml:space="preserve" font-family="HelveticaNeue,Helvetica Neue" font-size="80.0" fill="#FEFFFF" transform="matrix(1.00, 0.00, -0.00, -1.00, 572.7, 633.3)">C</text><g><clipPath id="clip0x6080008a80a0"><path d="M -1.0 59.0 L 1025.0 59.0 L 1025.0 -2.0 L -1.0 -2.0 Z M -1.0 59.0 "></path></clipPath><g clip-path="url(#clip0x6080008a80a0)"><path d="M 0.0 0.0 L 1024.0 0.0 L 1024.0 59.0 L 0.0 59.0 Z M 0.0 0.0 " fill="url(#patternP1)"></path></g></g><text xml:space="preserve" font-family="HelveticaNeue,Helvetica Neue" font-size="28.0" fill="#FEFFFF" transform="matrix(1.00, 0.00, -0.00, -1.00, 150.8, 17.8)">G</text><text xml:space="preserve" font-family="HelveticaNeue,Helvetica Neue" font-size="28.0" fill="#FEFFFF" transform="matrix(1.00, 0.00, -0.00, -1.00, 172.0, 17.8)">l</text><text xml:space="preserve" font-family="HelveticaNeue,Helvetica Neue" font-size="28.0" fill="#FEFFFF" transform="matrix(1.00, 0.00, -0.00, -1.00, 178.3, 17.8)">e</text><text xml:space="preserve" font-family="HelveticaNeue,Helvetica Neue" font-size="28.0" fill="#FEFFFF" transform="matrix(1.00, 0.00, -0.00, -1.00, 193.3, 17.8)">n</text><text xml:space="preserve" font-family="HelveticaNeue,Helvetica Neue" font-size="28.0" fill="#FEFFFF" transform="matrix(1.00, 0.00, -0.00, -1.00, 208.9, 17.8)"> </text><text xml:space="preserve" font-family="HelveticaNeue,Helvetica Neue" font-size="28.0" fill="#FEFFFF" transform="matrix(1.00, 0.00, -0.00, -1.00, 216.6, 17.8)">B</text><text xml:space="preserve" font-family="HelveticaNeue,Helvetica Neue" font-size="28.0" fill="#FEFFFF" transform="matrix(1.00, 0.00, -0.00, -1.00, 235.8, 17.8)">e</text><text xml:space="preserve" font-family="HelveticaNeue,Helvetica Neue" font-size="28.0" fill="#FEFFFF" transform="matrix(1.00, 0.00, -0.00, -1.00, 250.9, 17.8)">c</text><text xml:space="preserve" font-family="HelveticaNeue,Helvetica Neue" font-size="28.0" fill="#FEFFFF" transform="matrix(1.00, 0.00, -0.00, -1.00, 265.9, 17.8)">k</text><text xml:space="preserve" font-family="HelveticaNeue,Helvetica Neue" font-size="28.0" fill="#FEFFFF" transform="matrix(1.00, 0.00, -0.00, -1.00, 280.4, 17.8)"> </text><text xml:space="preserve" font-family="HelveticaNeue,Helvetica Neue" font-size="28.0" fill="#FEFFFF" transform="matrix(1.00, 0.00, -0.00, -1.00, 288.2, 17.8)">&amp;</text><text xml:space="preserve" font-family="HelveticaNeue,Helvetica Neue" font-size="28.0" fill="#FEFFFF" transform="matrix(1.00, 0.00, -0.00, -1.00, 305.9, 17.8)"> </text><text xml:space="preserve" font-family="HelveticaNeue,Helvetica Neue" font-size="28.0" fill="#FEFFFF" transform="matrix(1.00, 0.00, -0.00, -1.00, 313.6, 17.8)">B</text><text xml:space="preserve" font-family="HelveticaNeue,Helvetica Neue" font-size="28.0" fill="#FEFFFF" transform="matrix(1.00, 0.00, -0.00, -1.00, 332.8, 17.8)">e</text><text xml:space="preserve" font-family="HelveticaNeue,Helvetica Neue" font-size="28.0" fill="#FEFFFF" transform="matrix(1.00, 0.00, -0.00, -1.00, 347.9, 17.8)">t</text><text xml:space="preserve" font-family="HelveticaNeue,Helvetica Neue" font-size="28.0" fill="#FEFFFF" transform="matrix(1.00, 0.00, -0.00, -1.00, 356.7, 17.8)">t</text><text xml:space="preserve" font-family="HelveticaNeue,Helvetica Neue" font-size="28.0" fill="#FEFFFF" transform="matrix(1.00, 0.00, -0.00, -1.00, 365.5, 17.8)">y</text><text xml:space="preserve" font-family="HelveticaNeue,Helvetica Neue" font-size="28.0" fill="#FEFFFF" transform="matrix(1.00, 0.00, -0.00, -1.00, 379.5, 17.8)"> </text><text xml:space="preserve" font-family="HelveticaNeue,Helvetica Neue" font-size="28.0" fill="#FEFFFF" transform="matrix(1.00, 0.00, -0.00, -1.00, 387.3, 17.8)">S</text><text xml:space="preserve" font-family="HelveticaNeue,Helvetica Neue" font-size="28.0" fill="#FEFFFF" transform="matrix(1.00, 0.00, -0.00, -1.00, 405.4, 17.8)">n</text><text xml:space="preserve" font-family="HelveticaNeue,Helvetica Neue" font-size="28.0" fill="#FEFFFF" transform="matrix(1.00, 0.00, -0.00, -1.00, 421.0, 17.8)">y</text><text xml:space="preserve" font-family="HelveticaNeue,Helvetica Neue" font-size="28.0" fill="#FEFFFF" transform="matrix(1.00, 0.00, -0.00, -1.00, 435.0, 17.8)">d</text><text xml:space="preserve" font-family="HelveticaNeue,Helvetica Neue" font-size="28.0" fill="#FEFFFF" transform="matrix(1.00, 0.00, -0.00, -1.00, 451.6, 17.8)">e</text><text xml:space="preserve" font-family="HelveticaNeue,Helvetica Neue" font-size="28.0" fill="#FEFFFF" transform="matrix(1.00, 0.00, -0.00, -1.00, 466.6, 17.8)">r</text><text xml:space="preserve" font-family="HelveticaNeue,Helvetica Neue" font-size="28.0" fill="#FEFFFF" transform="matrix(1.00, 0.00, -0.00, -1.00, 475.9, 17.8)"> </text><text xml:space="preserve" font-family="HelveticaNeue,Helvetica Neue" font-size="28.0" fill="#FEFFFF" transform="matrix(1.00, 0.00, -0.00, -1.00, 483.7, 17.8)">p</text><text xml:space="preserve" font-family="HelveticaNeue,Helvetica Neue" font-size="28.0" fill="#FEFFFF" transform="matrix(1.00, 0.00, -0.00, -1.00, 500.3, 17.8)">r</text><text xml:space="preserve" font-family="HelveticaNeue,Helvetica Neue" font-size="28.0" fill="#FEFFFF" transform="matrix(1.00, 0.00, -0.00, -1.00, 509.2, 17.8)">o</text><text xml:space="preserve" font-family="HelveticaNeue,Helvetica Neue" font-size="28.0" fill="#FEFFFF" transform="matrix(1.00, 0.00, -0.00, -1.00, 525.2, 17.8)">g</text><text xml:space="preserve" font-family="HelveticaNeue,Helvetica Neue" font-size="28.0" fill="#FEFFFF" transform="matrix(1.00, 0.00, -0.00, -1.00, 541.3, 17.8)">r</text><text xml:space="preserve" font-family="HelveticaNeue,Helvetica Neue" font-size="28.0" fill="#FEFFFF" transform="matrix(1.00, 0.00, -0.00, -1.00, 550.6, 17.8)">a</text><text xml:space="preserve" font-family="HelveticaNeue,Helvetica Neue" font-size="28.0" fill="#FEFFFF" transform="matrix(1.00, 0.00, -0.00, -1.00, 565.7, 17.8)">m</text><text xml:space="preserve" font-family="HelveticaNeue,Helvetica Neue" font-size="28.0" fill="#FEFFFF" transform="matrix(1.00, 0.00, -0.00, -1.00, 589.5, 17.8)"> </text><text xml:space="preserve" font-family="HelveticaNeue,Helvetica Neue" font-size="28.0" fill="#FEFFFF" transform="matrix(1.00, 0.00, -0.00, -1.00, 597.3, 17.8)">E</text><text xml:space="preserve" font-family="HelveticaNeue,Helvetica Neue" font-size="28.0" fill="#FEFFFF" transform="matrix(1.00, 0.00, -0.00, -1.00, 614.4, 17.8)">N</text><text xml:space="preserve" font-family="HelveticaNeue,Helvetica Neue" font-size="28.0" fill="#FEFFFF" transform="matrix(1.00, 0.00, -0.00, -1.00, 634.7, 17.8)">I</text><text xml:space="preserve" font-family="HelveticaNeue,Helvetica Neue" font-size="28.0" fill="#FEFFFF" transform="matrix(1.00, 0.00, -0.00, -1.00, 641.9, 17.8)">A</text><text xml:space="preserve" font-family="HelveticaNeue,Helvetica Neue" font-size="28.0" fill="#FEFFFF" transform="matrix(1.00, 0.00, -0.00, -1.00, 660.0, 17.8)">C</text><text xml:space="preserve" font-family="HelveticaNeue,Helvetica Neue" font-size="28.0" fill="#FEFFFF" transform="matrix(1.00, 0.00, -0.00, -1.00, 680.3, 17.8)">,</text><text xml:space="preserve" font-family="HelveticaNeue,Helvetica Neue" font-size="28.0" fill="#FEFFFF" transform="matrix(1.00, 0.00, -0.00, -1.00, 688.0, 17.8)"> </text><text xml:space="preserve" font-family="HelveticaNeue,Helvetica Neue" font-size="28.0" fill="#FEFFFF" transform="matrix(1.00, 0.00, -0.00, -1.00, 695.8, 17.8)">d</text><text xml:space="preserve" font-family="HelveticaNeue,Helvetica Neue" font-size="28.0" fill="#FEFFFF" transform="matrix(1.00, 0.00, -0.00, -1.00, 712.4, 17.8)">a</text><text xml:space="preserve" font-family="HelveticaNeue,Helvetica Neue" font-size="28.0" fill="#FEFFFF" transform="matrix(1.00, 0.00, -0.00, -1.00, 727.5, 17.8)">t</text><text xml:space="preserve" font-family="HelveticaNeue,Helvetica Neue" font-size="28.0" fill="#FEFFFF" transform="matrix(1.00, 0.00, -0.00, -1.00, 736.3, 17.8)">e</text><text xml:space="preserve" font-family="HelveticaNeue,Helvetica Neue" font-size="28.0" fill="#FEFFFF" transform="matrix(1.00, 0.00, -0.00, -1.00, 751.3, 17.8)"> </text><text xml:space="preserve" font-family="HelveticaNeue,Helvetica Neue" font-size="28.0" fill="#FEFFFF" transform="matrix(1.00, 0.00, -0.00, -1.00, 759.1, 17.8)">u</text><text xml:space="preserve" font-family="HelveticaNeue,Helvetica Neue" font-size="28.0" fill="#FEFFFF" transform="matrix(1.00, 0.00, -0.00, -1.00, 774.7, 17.8)">n</text><text xml:space="preserve" font-family="HelveticaNeue,Helvetica Neue" font-size="28.0" fill="#FEFFFF" transform="matrix(1.00, 0.00, -0.00, -1.00, 790.2, 17.8)">k</text><text xml:space="preserve" font-family="HelveticaNeue,Helvetica Neue" font-size="28.0" fill="#FEFFFF" transform="matrix(1.00, 0.00, -0.00, -1.00, 804.8, 17.8)">n</text><text xml:space="preserve" font-family="HelveticaNeue,Helvetica Neue" font-size="28.0" fill="#FEFFFF" transform="matrix(1.00, 0.00, -0.00, -1.00, 820.4, 17.8)">o</text><text xml:space="preserve" font-family="HelveticaNeue,Helvetica Neue" font-size="28.0" fill="#FEFFFF" transform="matrix(1.00, 0.00, -0.00, -1.00, 836.4, 17.8)">w</text><text xml:space="preserve" font-family="HelveticaNeue,Helvetica Neue" font-size="28.0" fill="#FEFFFF" transform="matrix(1.00, 0.00, -0.00, -1.00, 857.6, 17.8)">n</text></g></svg>