<?xml version="1.0" encoding="UTF-8" standalone="no"?><svg xmlns="http://www.w3.org/2000/svg" xmlns:xlink="http://www.w3.org/1999/xlink" clip-rule="evenodd" stroke-miterlimit="10" viewBox="0 0 335 30"><desc>SVG generated by Keynote</desc><defs></defs><g transform="matrix(1.00, 0.00, -0.00, -1.00, 0.0, 30.0)"><text xml:space="preserve" font-family="HelveticaNeue,Helvetica Neue" font-size="28.0" fill="#FEFFFF" transform="matrix(1.00, 0.00, -0.00, -1.00, 0.3, 6.8)">E</text><text xml:space="preserve" font-family="HelveticaNeue,Helvetica Neue" font-size="28.0" fill="#FEFFFF" transform="matrix(1.00, 0.00, -0.00, -1.00, 17.4, 6.8)">N</text><text xml:space="preserve" font-family="HelveticaNeue,Helvetica Neue" font-size="28.0" fill="#FEFFFF" transform="matrix(1.00, 0.00, -0.00, -1.00, 37.6, 6.8)">I</text><text xml:space="preserve" font-family="HelveticaNeue,Helvetica Neue" font-size="28.0" fill="#FEFFFF" transform="matrix(1.00, 0.00, -0.00, -1.00, 44.8, 6.8)">A</text><text xml:space="preserve" font-family="HelveticaNeue,Helvetica Neue" font-size="28.0" fill="#FEFFFF" transform="matrix(1.00, 0.00, -0.00, -1.00, 63.0, 6.8)">C</text><text xml:space="preserve" font-family="HelveticaNeue,Helvetica Neue" font-size="28.0" fill="#FEFFFF" transform="matrix(1.00, 0.00, -0.00, -1.00, 83.2, 6.8)">,</text><text xml:space="preserve" font-family="HelveticaNeue,Helvetica Neue" font-size="28.0" fill="#FEFFFF" transform="matrix(1.00, 0.00, -0.00, -1.00, 91.0, 6.8)"> </text><text xml:space="preserve" font-family="HelveticaNeue,Helvetica Neue" font-size="28.0" fill="#FEFFFF" transform="matrix(1.00, 0.00, -0.00, -1.00, 98.8, 6.8)">t</text><text xml:space="preserve" font-family="HelveticaNeue,Helvetica Neue" font-size="28.0" fill="#FEFFFF" transform="matrix(1.00, 0.00, -0.00, -1.00, 107.6, 6.8)">h</text><text xml:space="preserve" font-family="HelveticaNeue,Helvetica Neue" font-size="28.0" fill="#FEFFFF" transform="matrix(1.00, 0.00, -0.00, -1.00, 123.2, 6.8)">e</text><text xml:space="preserve" font-family="HelveticaNeue,Helvetica Neue" font-size="28.0" fill="#FEFFFF" transform="matrix(1.00, 0.00, -0.00, -1.00, 138.2, 6.8)"> </text><text xml:space="preserve" font-family="HelveticaNeue,Helvetica Neue" font-size="28.0" fill="#FEFFFF" transform="matrix(1.00, 0.00, -0.00, -1.00, 146.0, 6.8)">F</text><text xml:space="preserve" font-family="HelveticaNeue,Helvetica Neue" font-size="28.0" fill="#FEFFFF" transform="matrix(1.00, 0.00, -0.00, -1.00, 162.1, 6.8)">i</text><text xml:space="preserve" font-family="HelveticaNeue,Helvetica Neue" font-size="28.0" fill="#FEFFFF" transform="matrix(1.00, 0.00, -0.00, -1.00, 168.3, 6.8)">r</text><text xml:space="preserve" font-family="HelveticaNeue,Helvetica Neue" font-size="28.0" fill="#FEFFFF" transform="matrix(1.00, 0.00, -0.00, -1.00, 177.6, 6.8)">s</text><text xml:space="preserve" font-family="HelveticaNeue,Helvetica Neue" font-size="28.0" fill="#FEFFFF" transform="matrix(1.00, 0.00, -0.00, -1.00, 191.6, 6.8)">t</text><text xml:space="preserve" font-family="HelveticaNeue,Helvetica Neue" font-size="28.0" fill="#FEFFFF" transform="matrix(1.00, 0.00, -0.00, -1.00, 200.4, 6.8)"> </text><text xml:space="preserve" font-family="HelveticaNeue,Helvetica Neue" font-size="28.0" fill="#FEFFFF" transform="matrix(1.00, 0.00, -0.00, -1.00, 208.2, 6.8)">C</text><text xml:space="preserve" font-family="HelveticaNeue,Helvetica Neue" font-size="28.0" fill="#FEFFFF" transform="matrix(1.00, 0.00, -0.00, -1.00, 228.4, 6.8)">o</text><text xml:space="preserve" font-family="HelveticaNeue,Helvetica Neue" font-size="28.0" fill="#FEFFFF" transform="matrix(1.00, 0.00, -0.00, -1.00, 244.5, 6.8)">m</text><text xml:space="preserve" font-family="HelveticaNeue,Helvetica Neue" font-size="28.0" fill="#FEFFFF" transform="matrix(1.00, 0.00, -0.00, -1.00, 268.4, 6.8)">p</text><text xml:space="preserve" font-family="HelveticaNeue,Helvetica Neue" font-size="28.0" fill="#FEFFFF" transform="matrix(1.00, 0.00, -0.00, -1.00, 285.0, 6.8)">u</text><text xml:space="preserve" font-family="HelveticaNeue,Helvetica Neue" font-size="28.0" fill="#FEFFFF" transform="matrix(1.00, 0.00, -0.00, -1.00, 300.5, 6.8)">t</text><text xml:space="preserve" font-family="HelveticaNeue,Helvetica Neue" font-size="28.0" fill="#FEFFFF" transform="matrix(1.00, 0.00, -0.00, -1.00, 309.4, 6.8)">e</text><text xml:space="preserve" font-family="HelveticaNeue,Helvetica Neue" font-size="28.0" fill="#FEFFFF" transform="matrix(1.00, 0.00, -0.00, -1.00, 324.4, 6.8)">r</text></g></svg>