<?xml version="1.0" encoding="UTF-8" standalone="no"?><svg xmlns="http://www.w3.org/2000/svg" xmlns:xlink="http://www.w3.org/1999/xlink" clip-rule="evenodd" stroke-miterlimit="10" viewBox="0 0 1024 768"><desc>SVG generated by Keynote</desc><defs></defs><g transform="matrix(1.00, 0.00, -0.00, -1.00, 0.0, 768.0)"><g><clipPath id="clip0x608000ca1e60"><path d="M 0.0 768.0 L 1024.0 768.0 L 1024.0 0.0 L 0.0 0.0 Z M 0.0 768.0 "></path></clipPath><g clip-path="url(#clip0x608000ca1e60)"><image xlink:href="../../69E4C2E2-6185-4F29-93A3-A8243C0B68C4/assets/B4C0A52AB44535D77F6859A7B0B72F7C.jpeg" width="2880.00" height="1800.00" transform="matrix(0.36, 0.00, -0.00, -0.36, 0.0, 704.0)"></image></g></g><text xml:space="preserve" font-family="HelveticaNeue,Helvetica Neue" font-size="80.0" fill="#FEFFFF" transform="matrix(1.00, 0.00, -0.00, -1.00, 483.1, 633.3)">C</text><path d="M 105.0 567.0 L 919.0 567.0 L 919.0 83.0 L 105.0 83.0 Z M 105.4 567.0 " fill="#A6AAA8"></path><g><clipPath id="clip0x608000ca24c0"><path d="M 103.7 81.3 L 920.3 81.3 L 920.3 568.8 L 103.7 568.8 Z M 103.7 81.3 "></path></clipPath><g clip-path="url(#clip0x608000ca24c0)"><path d="M 109.4 563.0 L 371.7 563.0 L 371.7 535.0 L 109.4 535.0 Z M 109.4 563.0 " fill="#272800"></path><path d="M 109.4 535.0 L 385.5 535.0 L 385.5 507.0 L 109.4 507.0 Z M 109.4 535.0 " fill="#272800"></path><path d="M 109.4 479.0 L 261.3 479.0 L 261.3 451.0 L 109.4 451.0 Z M 109.4 479.0 " fill="#272800"></path><path d="M 109.4 451.0 L 137.0 451.0 L 137.0 423.0 L 109.4 423.0 Z M 109.4 451.0 " fill="#272800"></path><path d="M 109.4 423.0 L 330.3 423.0 L 330.3 395.0 L 109.4 395.0 Z M 109.4 423.0 " fill="#272800"></path><path d="M 109.4 395.0 L 316.5 395.0 L 316.5 367.0 L 109.4 367.0 Z M 109.4 395.0 " fill="#272800"></path><path d="M 109.4 339.0 L 882.4 339.0 L 882.4 311.0 L 109.4 311.0 Z M 109.4 339.0 " fill="#272800"></path><path d="M 109.4 311.0 L 275.1 311.0 L 275.1 283.0 L 109.4 283.0 Z M 109.4 311.0 " fill="#272800"></path><path d="M 109.4 255.0 L 426.9 255.0 L 426.9 227.0 L 109.4 227.0 Z M 109.4 255.0 " fill="#272800"></path><path d="M 109.4 199.0 L 882.4 199.0 L 882.4 171.0 L 109.4 171.0 Z M 109.4 199.0 " fill="#272800"></path><path d="M 109.4 143.0 L 288.9 143.0 L 288.9 115.0 L 109.4 115.0 Z M 109.4 143.0 " fill="#272800"></path><path d="M 109.4 115.0 L 123.2 115.0 L 123.2 87.0 L 109.4 87.0 Z M 109.4 115.0 " fill="#272800"></path><text xml:space="preserve" font-family="Courier,Courier" font-size="23.0" fill="#FEFFFE" transform="matrix(1.00, 0.00, -0.00, -1.00, 109.4, 540.7)">#</text><text xml:space="preserve" font-family="Courier,Courier" font-size="23.0" fill="#FEFFFE" transform="matrix(1.00, 0.00, -0.00, -1.00, 123.2, 540.7)">i</text><text xml:space="preserve" font-family="Courier,Courier" font-size="23.0" fill="#FEFFFE" transform="matrix(1.00, 0.00, -0.00, -1.00, 137.0, 540.7)">n</text><text xml:space="preserve" font-family="Courier,Courier" font-size="23.0" fill="#FEFFFE" transform="matrix(1.00, 0.00, -0.00, -1.00, 150.8, 540.7)">c</text><text xml:space="preserve" font-family="Courier,Courier" font-size="23.0" fill="#FEFFFE" transform="matrix(1.00, 0.00, -0.00, -1.00, 164.6, 540.7)">l</text><text xml:space="preserve" font-family="Courier,Courier" font-size="23.0" fill="#FEFFFE" transform="matrix(1.00, 0.00, -0.00, -1.00, 178.4, 540.7)">u</text><text xml:space="preserve" font-family="Courier,Courier" font-size="23.0" fill="#FEFFFE" transform="matrix(1.00, 0.00, -0.00, -1.00, 192.2, 540.7)">d</text><text xml:space="preserve" font-family="Courier,Courier" font-size="23.0" fill="#FEFFFE" transform="matrix(1.00, 0.00, -0.00, -1.00, 206.0, 540.7)">e</text><text xml:space="preserve" font-family="Courier,Courier" font-size="23.0" fill="#FEFFFE" transform="matrix(1.00, 0.00, -0.00, -1.00, 219.8, 540.7)"> </text><text xml:space="preserve" font-family="Courier,Courier" font-size="23.0" fill="#FEFFFE" transform="matrix(1.00, 0.00, -0.00, -1.00, 233.6, 540.7)">&lt;</text><text xml:space="preserve" font-family="Courier,Courier" font-size="23.0" fill="#FEFFFE" transform="matrix(1.00, 0.00, -0.00, -1.00, 247.5, 540.7)">s</text><text xml:space="preserve" font-family="Courier,Courier" font-size="23.0" fill="#FEFFFE" transform="matrix(1.00, 0.00, -0.00, -1.00, 261.3, 540.7)">t</text><text xml:space="preserve" font-family="Courier,Courier" font-size="23.0" fill="#FEFFFE" transform="matrix(1.00, 0.00, -0.00, -1.00, 275.1, 540.7)">d</text><text xml:space="preserve" font-family="Courier,Courier" font-size="23.0" fill="#FEFFFE" transform="matrix(1.00, 0.00, -0.00, -1.00, 288.9, 540.7)">i</text><text xml:space="preserve" font-family="Courier,Courier" font-size="23.0" fill="#FEFFFE" transform="matrix(1.00, 0.00, -0.00, -1.00, 302.7, 540.7)">o</text><text xml:space="preserve" font-family="Courier,Courier" font-size="23.0" fill="#FEFFFE" transform="matrix(1.00, 0.00, -0.00, -1.00, 316.5, 540.7)">.</text><text xml:space="preserve" font-family="Courier,Courier" font-size="23.0" fill="#FEFFFE" transform="matrix(1.00, 0.00, -0.00, -1.00, 330.3, 540.7)">h</text><text xml:space="preserve" font-family="Courier,Courier" font-size="23.0" fill="#FEFFFE" transform="matrix(1.00, 0.00, -0.00, -1.00, 344.1, 540.7)">&gt;</text><text xml:space="preserve" font-family="Courier,Courier" font-size="23.0" fill="#FEFFFE" transform="matrix(1.00, 0.00, -0.00, -1.00, 109.4, 512.7)">#</text><text xml:space="preserve" font-family="Courier,Courier" font-size="23.0" fill="#FEFFFE" transform="matrix(1.00, 0.00, -0.00, -1.00, 123.2, 512.7)">i</text><text xml:space="preserve" font-family="Courier,Courier" font-size="23.0" fill="#FEFFFE" transform="matrix(1.00, 0.00, -0.00, -1.00, 137.0, 512.7)">n</text><text xml:space="preserve" font-family="Courier,Courier" font-size="23.0" fill="#FEFFFE" transform="matrix(1.00, 0.00, -0.00, -1.00, 150.8, 512.7)">c</text><text xml:space="preserve" font-family="Courier,Courier" font-size="23.0" fill="#FEFFFE" transform="matrix(1.00, 0.00, -0.00, -1.00, 164.6, 512.7)">l</text><text xml:space="preserve" font-family="Courier,Courier" font-size="23.0" fill="#FEFFFE" transform="matrix(1.00, 0.00, -0.00, -1.00, 178.4, 512.7)">u</text><text xml:space="preserve" font-family="Courier,Courier" font-size="23.0" fill="#FEFFFE" transform="matrix(1.00, 0.00, -0.00, -1.00, 192.2, 512.7)">d</text><text xml:space="preserve" font-family="Courier,Courier" font-size="23.0" fill="#FEFFFE" transform="matrix(1.00, 0.00, -0.00, -1.00, 206.0, 512.7)">e</text><text xml:space="preserve" font-family="Courier,Courier" font-size="23.0" fill="#FEFFFE" transform="matrix(1.00, 0.00, -0.00, -1.00, 219.8, 512.7)"> </text><text xml:space="preserve" font-family="Courier,Courier" font-size="23.0" fill="#FEFFFE" transform="matrix(1.00, 0.00, -0.00, -1.00, 233.6, 512.7)">&lt;</text><text xml:space="preserve" font-family="Courier,Courier" font-size="23.0" fill="#FEFFFE" transform="matrix(1.00, 0.00, -0.00, -1.00, 247.5, 512.7)">s</text><text xml:space="preserve" font-family="Courier,Courier" font-size="23.0" fill="#FEFFFE" transform="matrix(1.00, 0.00, -0.00, -1.00, 261.3, 512.7)">t</text><text xml:space="preserve" font-family="Courier,Courier" font-size="23.0" fill="#FEFFFE" transform="matrix(1.00, 0.00, -0.00, -1.00, 275.1, 512.7)">r</text><text xml:space="preserve" font-family="Courier,Courier" font-size="23.0" fill="#FEFFFE" transform="matrix(1.00, 0.00, -0.00, -1.00, 288.9, 512.7)">i</text><text xml:space="preserve" font-family="Courier,Courier" font-size="23.0" fill="#FEFFFE" transform="matrix(1.00, 0.00, -0.00, -1.00, 302.7, 512.7)">n</text><text xml:space="preserve" font-family="Courier,Courier" font-size="23.0" fill="#FEFFFE" transform="matrix(1.00, 0.00, -0.00, -1.00, 316.5, 512.7)">g</text><text xml:space="preserve" font-family="Courier,Courier" font-size="23.0" fill="#FEFFFE" transform="matrix(1.00, 0.00, -0.00, -1.00, 330.3, 512.7)">.</text><text xml:space="preserve" font-family="Courier,Courier" font-size="23.0" fill="#FEFFFE" transform="matrix(1.00, 0.00, -0.00, -1.00, 344.1, 512.7)">h</text><text xml:space="preserve" font-family="Courier,Courier" font-size="23.0" fill="#FEFFFE" transform="matrix(1.00, 0.00, -0.00, -1.00, 357.9, 512.7)">&gt;</text><text xml:space="preserve" font-family="Courier,Courier" font-size="23.0" fill="#FEFFFE" transform="matrix(1.00, 0.00, -0.00, -1.00, 109.4, 484.7)"> </text><text xml:space="preserve" font-family="Courier,Courier" font-size="23.0" fill="#FEFFFE" transform="matrix(1.00, 0.00, -0.00, -1.00, 109.4, 456.7)">i</text><text xml:space="preserve" font-family="Courier,Courier" font-size="23.0" fill="#FEFFFE" transform="matrix(1.00, 0.00, -0.00, -1.00, 123.2, 456.7)">n</text><text xml:space="preserve" font-family="Courier,Courier" font-size="23.0" fill="#FEFFFE" transform="matrix(1.00, 0.00, -0.00, -1.00, 137.0, 456.7)">t</text><text xml:space="preserve" font-family="Courier,Courier" font-size="23.0" fill="#FEFFFE" transform="matrix(1.00, 0.00, -0.00, -1.00, 150.8, 456.7)"> </text><text xml:space="preserve" font-family="Courier,Courier" font-size="23.0" fill="#FEFFFE" transform="matrix(1.00, 0.00, -0.00, -1.00, 164.6, 456.7)">m</text><text xml:space="preserve" font-family="Courier,Courier" font-size="23.0" fill="#FEFFFE" transform="matrix(1.00, 0.00, -0.00, -1.00, 178.4, 456.7)">a</text><text xml:space="preserve" font-family="Courier,Courier" font-size="23.0" fill="#FEFFFE" transform="matrix(1.00, 0.00, -0.00, -1.00, 192.2, 456.7)">i</text><text xml:space="preserve" font-family="Courier,Courier" font-size="23.0" fill="#FEFFFE" transform="matrix(1.00, 0.00, -0.00, -1.00, 206.0, 456.7)">n</text><text xml:space="preserve" font-family="Courier,Courier" font-size="23.0" fill="#FEFFFE" transform="matrix(1.00, 0.00, -0.00, -1.00, 219.8, 456.7)">(</text><text xml:space="preserve" font-family="Courier,Courier" font-size="23.0" fill="#FEFFFE" transform="matrix(1.00, 0.00, -0.00, -1.00, 233.6, 456.7)">)</text><text xml:space="preserve" font-family="Courier,Courier" font-size="23.0" fill="#FEFFFE" transform="matrix(1.00, 0.00, -0.00, -1.00, 109.4, 428.7)">{</text><text xml:space="preserve" font-family="Courier,Courier" font-size="23.0" fill="#FEFFFE" transform="matrix(1.00, 0.00, -0.00, -1.00, 109.4, 400.7)"> </text><text xml:space="preserve" font-family="Courier,Courier" font-size="23.0" fill="#FEFFFE" transform="matrix(1.00, 0.00, -0.00, -1.00, 123.2, 400.7)"> </text><text xml:space="preserve" font-family="Courier,Courier" font-size="23.0" fill="#FEFFFE" transform="matrix(1.00, 0.00, -0.00, -1.00, 137.0, 400.7)"> </text><text xml:space="preserve" font-family="Courier,Courier" font-size="23.0" fill="#FEFFFE" transform="matrix(1.00, 0.00, -0.00, -1.00, 150.8, 400.7)">c</text><text xml:space="preserve" font-family="Courier,Courier" font-size="23.0" fill="#FEFFFE" transform="matrix(1.00, 0.00, -0.00, -1.00, 164.6, 400.7)">h</text><text xml:space="preserve" font-family="Courier,Courier" font-size="23.0" fill="#FEFFFE" transform="matrix(1.00, 0.00, -0.00, -1.00, 178.4, 400.7)">a</text><text xml:space="preserve" font-family="Courier,Courier" font-size="23.0" fill="#FEFFFE" transform="matrix(1.00, 0.00, -0.00, -1.00, 192.2, 400.7)">r</text><text xml:space="preserve" font-family="Courier,Courier" font-size="23.0" fill="#FEFFFE" transform="matrix(1.00, 0.00, -0.00, -1.00, 206.1, 400.7)"> </text><text xml:space="preserve" font-family="Courier,Courier" font-size="23.0" fill="#FEFFFE" transform="matrix(1.00, 0.00, -0.00, -1.00, 219.9, 400.7)">a</text><text xml:space="preserve" font-family="Courier,Courier" font-size="23.0" fill="#FEFFFE" transform="matrix(1.00, 0.00, -0.00, -1.00, 233.7, 400.7)">[</text><text xml:space="preserve" font-family="Courier,Courier" font-size="23.0" fill="#FEFFFE" transform="matrix(1.00, 0.00, -0.00, -1.00, 247.5, 400.7)">1</text><text xml:space="preserve" font-family="Courier,Courier" font-size="23.0" fill="#FEFFFE" transform="matrix(1.00, 0.00, -0.00, -1.00, 261.3, 400.7)">0</text><text xml:space="preserve" font-family="Courier,Courier" font-size="23.0" fill="#FEFFFE" transform="matrix(1.00, 0.00, -0.00, -1.00, 275.1, 400.7)">0</text><text xml:space="preserve" font-family="Courier,Courier" font-size="23.0" fill="#FEFFFE" transform="matrix(1.00, 0.00, -0.00, -1.00, 288.9, 400.7)">]</text><text xml:space="preserve" font-family="Courier,Courier" font-size="23.0" fill="#FEFFFE" transform="matrix(1.00, 0.00, -0.00, -1.00, 302.7, 400.7)">;</text><text xml:space="preserve" font-family="Courier,Courier" font-size="23.0" fill="#FEFFFE" transform="matrix(1.00, 0.00, -0.00, -1.00, 109.4, 372.7)"> </text><text xml:space="preserve" font-family="Courier,Courier" font-size="23.0" fill="#FEFFFE" transform="matrix(1.00, 0.00, -0.00, -1.00, 123.2, 372.7)"> </text><text xml:space="preserve" font-family="Courier,Courier" font-size="23.0" fill="#FEFFFE" transform="matrix(1.00, 0.00, -0.00, -1.00, 137.0, 372.7)"> </text><text xml:space="preserve" font-family="Courier,Courier" font-size="23.0" fill="#FEFFFE" transform="matrix(1.00, 0.00, -0.00, -1.00, 150.8, 372.7)">i</text><text xml:space="preserve" font-family="Courier,Courier" font-size="23.0" fill="#FEFFFE" transform="matrix(1.00, 0.00, -0.00, -1.00, 164.6, 372.7)">n</text><text xml:space="preserve" font-family="Courier,Courier" font-size="23.0" fill="#FEFFFE" transform="matrix(1.00, 0.00, -0.00, -1.00, 178.4, 372.7)">t</text><text xml:space="preserve" font-family="Courier,Courier" font-size="23.0" fill="#FEFFFE" transform="matrix(1.00, 0.00, -0.00, -1.00, 192.2, 372.7)"> </text><text xml:space="preserve" font-family="Courier,Courier" font-size="23.0" fill="#FEFFFE" transform="matrix(1.00, 0.00, -0.00, -1.00, 206.1, 372.7)">l</text><text xml:space="preserve" font-family="Courier,Courier" font-size="23.0" fill="#FEFFFE" transform="matrix(1.00, 0.00, -0.00, -1.00, 219.9, 372.7)">e</text><text xml:space="preserve" font-family="Courier,Courier" font-size="23.0" fill="#FEFFFE" transform="matrix(1.00, 0.00, -0.00, -1.00, 233.7, 372.7)">n</text><text xml:space="preserve" font-family="Courier,Courier" font-size="23.0" fill="#FEFFFE" transform="matrix(1.00, 0.00, -0.00, -1.00, 247.5, 372.7)">g</text><text xml:space="preserve" font-family="Courier,Courier" font-size="23.0" fill="#FEFFFE" transform="matrix(1.00, 0.00, -0.00, -1.00, 261.3, 372.7)">t</text><text xml:space="preserve" font-family="Courier,Courier" font-size="23.0" fill="#FEFFFE" transform="matrix(1.00, 0.00, -0.00, -1.00, 275.1, 372.7)">h</text><text xml:space="preserve" font-family="Courier,Courier" font-size="23.0" fill="#FEFFFE" transform="matrix(1.00, 0.00, -0.00, -1.00, 288.9, 372.7)">;</text><text xml:space="preserve" font-family="Courier,Courier" font-size="23.0" fill="#FEFFFE" transform="matrix(1.00, 0.00, -0.00, -1.00, 109.4, 344.7)"> </text><text xml:space="preserve" font-family="Courier,Courier" font-size="23.0" fill="#FEFFFE" transform="matrix(1.00, 0.00, -0.00, -1.00, 109.4, 316.7)"> </text><text xml:space="preserve" font-family="Courier,Courier" font-size="23.0" fill="#FEFFFE" transform="matrix(1.00, 0.00, -0.00, -1.00, 123.2, 316.7)"> </text><text xml:space="preserve" font-family="Courier,Courier" font-size="23.0" fill="#FEFFFE" transform="matrix(1.00, 0.00, -0.00, -1.00, 137.0, 316.7)"> </text><text xml:space="preserve" font-family="Courier,Courier" font-size="23.0" fill="#FEFFFE" transform="matrix(1.00, 0.00, -0.00, -1.00, 150.8, 316.7)">p</text><text xml:space="preserve" font-family="Courier,Courier" font-size="23.0" fill="#FEFFFE" transform="matrix(1.00, 0.00, -0.00, -1.00, 164.6, 316.7)">r</text><text xml:space="preserve" font-family="Courier,Courier" font-size="23.0" fill="#FEFFFE" transform="matrix(1.00, 0.00, -0.00, -1.00, 178.4, 316.7)">i</text><text xml:space="preserve" font-family="Courier,Courier" font-size="23.0" fill="#FEFFFE" transform="matrix(1.00, 0.00, -0.00, -1.00, 192.2, 316.7)">n</text><text xml:space="preserve" font-family="Courier,Courier" font-size="23.0" fill="#FEFFFE" transform="matrix(1.00, 0.00, -0.00, -1.00, 206.1, 316.7)">t</text><text xml:space="preserve" font-family="Courier,Courier" font-size="23.0" fill="#FEFFFE" transform="matrix(1.00, 0.00, -0.00, -1.00, 219.9, 316.7)">f</text><text xml:space="preserve" font-family="Courier,Courier" font-size="23.0" fill="#FEFFFE" transform="matrix(1.00, 0.00, -0.00, -1.00, 233.7, 316.7)">(</text><text xml:space="preserve" font-family="Courier,Courier" font-size="23.0" fill="#FEFFFE" transform="matrix(1.00, 0.00, -0.00, -1.00, 247.5, 316.7)">"</text><text xml:space="preserve" font-family="Courier,Courier" font-size="23.0" fill="#FEFFFE" transform="matrix(1.00, 0.00, -0.00, -1.00, 261.3, 316.7)">E</text><text xml:space="preserve" font-family="Courier,Courier" font-size="23.0" fill="#FEFFFE" transform="matrix(1.00, 0.00, -0.00, -1.00, 275.1, 316.7)">n</text><text xml:space="preserve" font-family="Courier,Courier" font-size="23.0" fill="#FEFFFE" transform="matrix(1.00, 0.00, -0.00, -1.00, 288.9, 316.7)">t</text><text xml:space="preserve" font-family="Courier,Courier" font-size="23.0" fill="#FEFFFE" transform="matrix(1.00, 0.00, -0.00, -1.00, 302.7, 316.7)">e</text><text xml:space="preserve" font-family="Courier,Courier" font-size="23.0" fill="#FEFFFE" transform="matrix(1.00, 0.00, -0.00, -1.00, 316.5, 316.7)">r</text><text xml:space="preserve" font-family="Courier,Courier" font-size="23.0" fill="#FEFFFE" transform="matrix(1.00, 0.00, -0.00, -1.00, 330.3, 316.7)"> </text><text xml:space="preserve" font-family="Courier,Courier" font-size="23.0" fill="#FEFFFE" transform="matrix(1.00, 0.00, -0.00, -1.00, 344.1, 316.7)">a</text><text xml:space="preserve" font-family="Courier,Courier" font-size="23.0" fill="#FEFFFE" transform="matrix(1.00, 0.00, -0.00, -1.00, 357.9, 316.7)"> </text><text xml:space="preserve" font-family="Courier,Courier" font-size="23.0" fill="#FEFFFE" transform="matrix(1.00, 0.00, -0.00, -1.00, 371.7, 316.7)">s</text><text xml:space="preserve" font-family="Courier,Courier" font-size="23.0" fill="#FEFFFE" transform="matrix(1.00, 0.00, -0.00, -1.00, 385.5, 316.7)">t</text><text xml:space="preserve" font-family="Courier,Courier" font-size="23.0" fill="#FEFFFE" transform="matrix(1.00, 0.00, -0.00, -1.00, 399.3, 316.7)">r</text><text xml:space="preserve" font-family="Courier,Courier" font-size="23.0" fill="#FEFFFE" transform="matrix(1.00, 0.00, -0.00, -1.00, 413.1, 316.7)">i</text><text xml:space="preserve" font-family="Courier,Courier" font-size="23.0" fill="#FEFFFE" transform="matrix(1.00, 0.00, -0.00, -1.00, 426.9, 316.7)">n</text><text xml:space="preserve" font-family="Courier,Courier" font-size="23.0" fill="#FEFFFE" transform="matrix(1.00, 0.00, -0.00, -1.00, 440.7, 316.7)">g</text><text xml:space="preserve" font-family="Courier,Courier" font-size="23.0" fill="#FEFFFE" transform="matrix(1.00, 0.00, -0.00, -1.00, 454.5, 316.7)"> </text><text xml:space="preserve" font-family="Courier,Courier" font-size="23.0" fill="#FEFFFE" transform="matrix(1.00, 0.00, -0.00, -1.00, 468.3, 316.7)">t</text><text xml:space="preserve" font-family="Courier,Courier" font-size="23.0" fill="#FEFFFE" transform="matrix(1.00, 0.00, -0.00, -1.00, 482.1, 316.7)">o</text><text xml:space="preserve" font-family="Courier,Courier" font-size="23.0" fill="#FEFFFE" transform="matrix(1.00, 0.00, -0.00, -1.00, 495.9, 316.7)"> </text><text xml:space="preserve" font-family="Courier,Courier" font-size="23.0" fill="#FEFFFE" transform="matrix(1.00, 0.00, -0.00, -1.00, 509.7, 316.7)">c</text><text xml:space="preserve" font-family="Courier,Courier" font-size="23.0" fill="#FEFFFE" transform="matrix(1.00, 0.00, -0.00, -1.00, 523.5, 316.7)">a</text><text xml:space="preserve" font-family="Courier,Courier" font-size="23.0" fill="#FEFFFE" transform="matrix(1.00, 0.00, -0.00, -1.00, 537.3, 316.7)">l</text><text xml:space="preserve" font-family="Courier,Courier" font-size="23.0" fill="#FEFFFE" transform="matrix(1.00, 0.00, -0.00, -1.00, 551.1, 316.7)">c</text><text xml:space="preserve" font-family="Courier,Courier" font-size="23.0" fill="#FEFFFE" transform="matrix(1.00, 0.00, -0.00, -1.00, 564.9, 316.7)">u</text><text xml:space="preserve" font-family="Courier,Courier" font-size="23.0" fill="#FEFFFE" transform="matrix(1.00, 0.00, -0.00, -1.00, 578.7, 316.7)">l</text><text xml:space="preserve" font-family="Courier,Courier" font-size="23.0" fill="#FEFFFE" transform="matrix(1.00, 0.00, -0.00, -1.00, 592.5, 316.7)">a</text><text xml:space="preserve" font-family="Courier,Courier" font-size="23.0" fill="#FEFFFE" transform="matrix(1.00, 0.00, -0.00, -1.00, 606.3, 316.7)">t</text><text xml:space="preserve" font-family="Courier,Courier" font-size="23.0" fill="#FEFFFE" transform="matrix(1.00, 0.00, -0.00, -1.00, 620.1, 316.7)">e</text><text xml:space="preserve" font-family="Courier,Courier" font-size="23.0" fill="#FEFFFE" transform="matrix(1.00, 0.00, -0.00, -1.00, 633.9, 316.7)"> </text><text xml:space="preserve" font-family="Courier,Courier" font-size="23.0" fill="#FEFFFE" transform="matrix(1.00, 0.00, -0.00, -1.00, 647.7, 316.7)">i</text><text xml:space="preserve" font-family="Courier,Courier" font-size="23.0" fill="#FEFFFE" transform="matrix(1.00, 0.00, -0.00, -1.00, 661.5, 316.7)">t</text><text xml:space="preserve" font-family="Courier,Courier" font-size="23.0" fill="#FEFFFE" transform="matrix(1.00, 0.00, -0.00, -1.00, 675.3, 316.7)">'</text><text xml:space="preserve" font-family="Courier,Courier" font-size="23.0" fill="#FEFFFE" transform="matrix(1.00, 0.00, -0.00, -1.00, 689.1, 316.7)">s</text><text xml:space="preserve" font-family="Courier,Courier" font-size="23.0" fill="#FEFFFE" transform="matrix(1.00, 0.00, -0.00, -1.00, 702.9, 316.7)"> </text><text xml:space="preserve" font-family="Courier,Courier" font-size="23.0" fill="#FEFFFE" transform="matrix(1.00, 0.00, -0.00, -1.00, 716.7, 316.7)">l</text><text xml:space="preserve" font-family="Courier,Courier" font-size="23.0" fill="#FEFFFE" transform="matrix(1.00, 0.00, -0.00, -1.00, 730.5, 316.7)">e</text><text xml:space="preserve" font-family="Courier,Courier" font-size="23.0" fill="#FEFFFE" transform="matrix(1.00, 0.00, -0.00, -1.00, 744.4, 316.7)">n</text><text xml:space="preserve" font-family="Courier,Courier" font-size="23.0" fill="#FEFFFE" transform="matrix(1.00, 0.00, -0.00, -1.00, 758.2, 316.7)">g</text><text xml:space="preserve" font-family="Courier,Courier" font-size="23.0" fill="#FEFFFE" transform="matrix(1.00, 0.00, -0.00, -1.00, 772.0, 316.7)">t</text><text xml:space="preserve" font-family="Courier,Courier" font-size="23.0" fill="#FEFFFE" transform="matrix(1.00, 0.00, -0.00, -1.00, 785.8, 316.7)">h</text><text xml:space="preserve" font-family="Courier-Bold,Courier" font-weight="bold" font-size="23.0" fill="#FEFFFE" transform="matrix(1.00, 0.00, -0.00, -1.00, 799.5, 316.7)">\</text><text xml:space="preserve" font-family="Courier-Bold,Courier" font-weight="bold" font-size="23.0" fill="#FEFFFE" transform="matrix(1.00, 0.00, -0.00, -1.00, 813.3, 316.7)">n</text><text xml:space="preserve" font-family="Courier,Courier" font-size="23.0" fill="#FEFFFE" transform="matrix(1.00, 0.00, -0.00, -1.00, 827.1, 316.7)">"</text><text xml:space="preserve" font-family="Courier,Courier" font-size="23.0" fill="#FEFFFE" transform="matrix(1.00, 0.00, -0.00, -1.00, 840.9, 316.7)">)</text><text xml:space="preserve" font-family="Courier,Courier" font-size="23.0" fill="#FEFFFE" transform="matrix(1.00, 0.00, -0.00, -1.00, 854.7, 316.7)">;</text><text xml:space="preserve" font-family="Courier,Courier" font-size="23.0" fill="#FEFFFE" transform="matrix(1.00, 0.00, -0.00, -1.00, 109.4, 288.7)"> </text><text xml:space="preserve" font-family="Courier,Courier" font-size="23.0" fill="#FEFFFE" transform="matrix(1.00, 0.00, -0.00, -1.00, 123.2, 288.7)"> </text><text xml:space="preserve" font-family="Courier,Courier" font-size="23.0" fill="#FEFFFE" transform="matrix(1.00, 0.00, -0.00, -1.00, 137.0, 288.7)"> </text><text xml:space="preserve" font-family="Courier,Courier" font-size="23.0" fill="#FEFFFE" transform="matrix(1.00, 0.00, -0.00, -1.00, 150.8, 288.7)">g</text><text xml:space="preserve" font-family="Courier,Courier" font-size="23.0" fill="#FEFFFE" transform="matrix(1.00, 0.00, -0.00, -1.00, 164.6, 288.7)">e</text><text xml:space="preserve" font-family="Courier,Courier" font-size="23.0" fill="#FEFFFE" transform="matrix(1.00, 0.00, -0.00, -1.00, 178.4, 288.7)">t</text><text xml:space="preserve" font-family="Courier,Courier" font-size="23.0" fill="#FEFFFE" transform="matrix(1.00, 0.00, -0.00, -1.00, 192.2, 288.7)">s</text><text xml:space="preserve" font-family="Courier,Courier" font-size="23.0" fill="#FEFFFE" transform="matrix(1.00, 0.00, -0.00, -1.00, 206.1, 288.7)">(</text><text xml:space="preserve" font-family="Courier,Courier" font-size="23.0" fill="#FEFFFE" transform="matrix(1.00, 0.00, -0.00, -1.00, 219.9, 288.7)">a</text><text xml:space="preserve" font-family="Courier,Courier" font-size="23.0" fill="#FEFFFE" transform="matrix(1.00, 0.00, -0.00, -1.00, 233.7, 288.7)">)</text><text xml:space="preserve" font-family="Courier,Courier" font-size="23.0" fill="#FEFFFE" transform="matrix(1.00, 0.00, -0.00, -1.00, 247.5, 288.7)">;</text><text xml:space="preserve" font-family="Courier,Courier" font-size="23.0" fill="#FEFFFE" transform="matrix(1.00, 0.00, -0.00, -1.00, 109.4, 260.7)"> </text><text xml:space="preserve" font-family="Courier,Courier" font-size="23.0" fill="#FEFFFE" transform="matrix(1.00, 0.00, -0.00, -1.00, 109.4, 232.7)"> </text><text xml:space="preserve" font-family="Courier,Courier" font-size="23.0" fill="#FEFFFE" transform="matrix(1.00, 0.00, -0.00, -1.00, 123.2, 232.7)"> </text><text xml:space="preserve" font-family="Courier,Courier" font-size="23.0" fill="#FEFFFE" transform="matrix(1.00, 0.00, -0.00, -1.00, 137.0, 232.7)"> </text><text xml:space="preserve" font-family="Courier,Courier" font-size="23.0" fill="#FEFFFE" transform="matrix(1.00, 0.00, -0.00, -1.00, 150.8, 232.7)">l</text><text xml:space="preserve" font-family="Courier,Courier" font-size="23.0" fill="#FEFFFE" transform="matrix(1.00, 0.00, -0.00, -1.00, 164.6, 232.7)">e</text><text xml:space="preserve" font-family="Courier,Courier" font-size="23.0" fill="#FEFFFE" transform="matrix(1.00, 0.00, -0.00, -1.00, 178.4, 232.7)">n</text><text xml:space="preserve" font-family="Courier,Courier" font-size="23.0" fill="#FEFFFE" transform="matrix(1.00, 0.00, -0.00, -1.00, 192.2, 232.7)">g</text><text xml:space="preserve" font-family="Courier,Courier" font-size="23.0" fill="#FEFFFE" transform="matrix(1.00, 0.00, -0.00, -1.00, 206.1, 232.7)">t</text><text xml:space="preserve" font-family="Courier,Courier" font-size="23.0" fill="#FEFFFE" transform="matrix(1.00, 0.00, -0.00, -1.00, 219.9, 232.7)">h</text><text xml:space="preserve" font-family="Courier,Courier" font-size="23.0" fill="#FEFFFE" transform="matrix(1.00, 0.00, -0.00, -1.00, 233.7, 232.7)"> </text><text xml:space="preserve" font-family="Courier,Courier" font-size="23.0" fill="#FEFFFE" transform="matrix(1.00, 0.00, -0.00, -1.00, 247.5, 232.7)">=</text><text xml:space="preserve" font-family="Courier,Courier" font-size="23.0" fill="#FEFFFE" transform="matrix(1.00, 0.00, -0.00, -1.00, 261.3, 232.7)"> </text><text xml:space="preserve" font-family="Courier,Courier" font-size="23.0" fill="#FEFFFE" transform="matrix(1.00, 0.00, -0.00, -1.00, 275.1, 232.7)">s</text><text xml:space="preserve" font-family="Courier,Courier" font-size="23.0" fill="#FEFFFE" transform="matrix(1.00, 0.00, -0.00, -1.00, 288.9, 232.7)">t</text><text xml:space="preserve" font-family="Courier,Courier" font-size="23.0" fill="#FEFFFE" transform="matrix(1.00, 0.00, -0.00, -1.00, 302.7, 232.7)">r</text><text xml:space="preserve" font-family="Courier,Courier" font-size="23.0" fill="#FEFFFE" transform="matrix(1.00, 0.00, -0.00, -1.00, 316.5, 232.7)">l</text><text xml:space="preserve" font-family="Courier,Courier" font-size="23.0" fill="#FEFFFE" transform="matrix(1.00, 0.00, -0.00, -1.00, 330.3, 232.7)">e</text><text xml:space="preserve" font-family="Courier,Courier" font-size="23.0" fill="#FEFFFE" transform="matrix(1.00, 0.00, -0.00, -1.00, 344.1, 232.7)">n</text><text xml:space="preserve" font-family="Courier,Courier" font-size="23.0" fill="#FEFFFE" transform="matrix(1.00, 0.00, -0.00, -1.00, 357.9, 232.7)">(</text><text xml:space="preserve" font-family="Courier,Courier" font-size="23.0" fill="#FEFFFE" transform="matrix(1.00, 0.00, -0.00, -1.00, 371.7, 232.7)">a</text><text xml:space="preserve" font-family="Courier,Courier" font-size="23.0" fill="#FEFFFE" transform="matrix(1.00, 0.00, -0.00, -1.00, 385.5, 232.7)">)</text><text xml:space="preserve" font-family="Courier,Courier" font-size="23.0" fill="#FEFFFE" transform="matrix(1.00, 0.00, -0.00, -1.00, 399.3, 232.7)">;</text><text xml:space="preserve" font-family="Courier,Courier" font-size="23.0" fill="#FEFFFE" transform="matrix(1.00, 0.00, -0.00, -1.00, 109.4, 204.7)"> </text><text xml:space="preserve" font-family="Courier,Courier" font-size="23.0" fill="#FEFFFE" transform="matrix(1.00, 0.00, -0.00, -1.00, 109.4, 176.7)"> </text><text xml:space="preserve" font-family="Courier,Courier" font-size="23.0" fill="#FEFFFE" transform="matrix(1.00, 0.00, -0.00, -1.00, 123.2, 176.7)"> </text><text xml:space="preserve" font-family="Courier,Courier" font-size="23.0" fill="#FEFFFE" transform="matrix(1.00, 0.00, -0.00, -1.00, 137.0, 176.7)"> </text><text xml:space="preserve" font-family="Courier,Courier" font-size="23.0" fill="#FEFFFE" transform="matrix(1.00, 0.00, -0.00, -1.00, 150.8, 176.7)">p</text><text xml:space="preserve" font-family="Courier,Courier" font-size="23.0" fill="#FEFFFE" transform="matrix(1.00, 0.00, -0.00, -1.00, 164.6, 176.7)">r</text><text xml:space="preserve" font-family="Courier,Courier" font-size="23.0" fill="#FEFFFE" transform="matrix(1.00, 0.00, -0.00, -1.00, 178.4, 176.7)">i</text><text xml:space="preserve" font-family="Courier,Courier" font-size="23.0" fill="#FEFFFE" transform="matrix(1.00, 0.00, -0.00, -1.00, 192.2, 176.7)">n</text><text xml:space="preserve" font-family="Courier,Courier" font-size="23.0" fill="#FEFFFE" transform="matrix(1.00, 0.00, -0.00, -1.00, 206.1, 176.7)">t</text><text xml:space="preserve" font-family="Courier,Courier" font-size="23.0" fill="#FEFFFE" transform="matrix(1.00, 0.00, -0.00, -1.00, 219.9, 176.7)">f</text><text xml:space="preserve" font-family="Courier,Courier" font-size="23.0" fill="#FEFFFE" transform="matrix(1.00, 0.00, -0.00, -1.00, 233.7, 176.7)">(</text><text xml:space="preserve" font-family="Courier,Courier" font-size="23.0" fill="#FEFFFE" transform="matrix(1.00, 0.00, -0.00, -1.00, 247.5, 176.7)">"</text><text xml:space="preserve" font-family="Courier,Courier" font-size="23.0" fill="#FEFFFE" transform="matrix(1.00, 0.00, -0.00, -1.00, 261.3, 176.7)">L</text><text xml:space="preserve" font-family="Courier,Courier" font-size="23.0" fill="#FEFFFE" transform="matrix(1.00, 0.00, -0.00, -1.00, 275.1, 176.7)">e</text><text xml:space="preserve" font-family="Courier,Courier" font-size="23.0" fill="#FEFFFE" transform="matrix(1.00, 0.00, -0.00, -1.00, 288.9, 176.7)">n</text><text xml:space="preserve" font-family="Courier,Courier" font-size="23.0" fill="#FEFFFE" transform="matrix(1.00, 0.00, -0.00, -1.00, 302.7, 176.7)">g</text><text xml:space="preserve" font-family="Courier,Courier" font-size="23.0" fill="#FEFFFE" transform="matrix(1.00, 0.00, -0.00, -1.00, 316.5, 176.7)">t</text><text xml:space="preserve" font-family="Courier,Courier" font-size="23.0" fill="#FEFFFE" transform="matrix(1.00, 0.00, -0.00, -1.00, 330.3, 176.7)">h</text><text xml:space="preserve" font-family="Courier,Courier" font-size="23.0" fill="#FEFFFE" transform="matrix(1.00, 0.00, -0.00, -1.00, 344.1, 176.7)"> </text><text xml:space="preserve" font-family="Courier,Courier" font-size="23.0" fill="#FEFFFE" transform="matrix(1.00, 0.00, -0.00, -1.00, 357.9, 176.7)">o</text><text xml:space="preserve" font-family="Courier,Courier" font-size="23.0" fill="#FEFFFE" transform="matrix(1.00, 0.00, -0.00, -1.00, 371.7, 176.7)">f</text><text xml:space="preserve" font-family="Courier,Courier" font-size="23.0" fill="#FEFFFE" transform="matrix(1.00, 0.00, -0.00, -1.00, 385.5, 176.7)"> </text><text xml:space="preserve" font-family="Courier,Courier" font-size="23.0" fill="#FEFFFE" transform="matrix(1.00, 0.00, -0.00, -1.00, 399.3, 176.7)">e</text><text xml:space="preserve" font-family="Courier,Courier" font-size="23.0" fill="#FEFFFE" transform="matrix(1.00, 0.00, -0.00, -1.00, 413.1, 176.7)">n</text><text xml:space="preserve" font-family="Courier,Courier" font-size="23.0" fill="#FEFFFE" transform="matrix(1.00, 0.00, -0.00, -1.00, 426.9, 176.7)">t</text><text xml:space="preserve" font-family="Courier,Courier" font-size="23.0" fill="#FEFFFE" transform="matrix(1.00, 0.00, -0.00, -1.00, 440.7, 176.7)">e</text><text xml:space="preserve" font-family="Courier,Courier" font-size="23.0" fill="#FEFFFE" transform="matrix(1.00, 0.00, -0.00, -1.00, 454.5, 176.7)">r</text><text xml:space="preserve" font-family="Courier,Courier" font-size="23.0" fill="#FEFFFE" transform="matrix(1.00, 0.00, -0.00, -1.00, 468.3, 176.7)">e</text><text xml:space="preserve" font-family="Courier,Courier" font-size="23.0" fill="#FEFFFE" transform="matrix(1.00, 0.00, -0.00, -1.00, 482.1, 176.7)">d</text><text xml:space="preserve" font-family="Courier,Courier" font-size="23.0" fill="#FEFFFE" transform="matrix(1.00, 0.00, -0.00, -1.00, 495.9, 176.7)"> </text><text xml:space="preserve" font-family="Courier,Courier" font-size="23.0" fill="#FEFFFE" transform="matrix(1.00, 0.00, -0.00, -1.00, 509.7, 176.7)">s</text><text xml:space="preserve" font-family="Courier,Courier" font-size="23.0" fill="#FEFFFE" transform="matrix(1.00, 0.00, -0.00, -1.00, 523.5, 176.7)">t</text><text xml:space="preserve" font-family="Courier,Courier" font-size="23.0" fill="#FEFFFE" transform="matrix(1.00, 0.00, -0.00, -1.00, 537.3, 176.7)">r</text><text xml:space="preserve" font-family="Courier,Courier" font-size="23.0" fill="#FEFFFE" transform="matrix(1.00, 0.00, -0.00, -1.00, 551.1, 176.7)">i</text><text xml:space="preserve" font-family="Courier,Courier" font-size="23.0" fill="#FEFFFE" transform="matrix(1.00, 0.00, -0.00, -1.00, 564.9, 176.7)">n</text><text xml:space="preserve" font-family="Courier,Courier" font-size="23.0" fill="#FEFFFE" transform="matrix(1.00, 0.00, -0.00, -1.00, 578.7, 176.7)">g</text><text xml:space="preserve" font-family="Courier,Courier" font-size="23.0" fill="#FEFFFE" transform="matrix(1.00, 0.00, -0.00, -1.00, 592.5, 176.7)"> </text><text xml:space="preserve" font-family="Courier,Courier" font-size="23.0" fill="#FEFFFE" transform="matrix(1.00, 0.00, -0.00, -1.00, 606.3, 176.7)">i</text><text xml:space="preserve" font-family="Courier,Courier" font-size="23.0" fill="#FEFFFE" transform="matrix(1.00, 0.00, -0.00, -1.00, 620.1, 176.7)">s</text><text xml:space="preserve" font-family="Courier,Courier" font-size="23.0" fill="#FEFFFE" transform="matrix(1.00, 0.00, -0.00, -1.00, 633.9, 176.7)"> </text><text xml:space="preserve" font-family="Courier,Courier" font-size="23.0" fill="#FEFFFE" transform="matrix(1.00, 0.00, -0.00, -1.00, 647.7, 176.7)">=</text><text xml:space="preserve" font-family="Courier,Courier" font-size="23.0" fill="#FEFFFE" transform="matrix(1.00, 0.00, -0.00, -1.00, 661.5, 176.7)"> </text><text xml:space="preserve" font-family="Courier,Courier" font-size="23.0" fill="#FEFFFE" transform="matrix(1.00, 0.00, -0.00, -1.00, 675.3, 176.7)">%</text><text xml:space="preserve" font-family="Courier,Courier" font-size="23.0" fill="#FEFFFE" transform="matrix(1.00, 0.00, -0.00, -1.00, 689.1, 176.7)">d</text><text xml:space="preserve" font-family="Courier-Bold,Courier" font-weight="bold" font-size="23.0" fill="#FEFFFE" transform="matrix(1.00, 0.00, -0.00, -1.00, 702.9, 176.7)">\</text><text xml:space="preserve" font-family="Courier-Bold,Courier" font-weight="bold" font-size="23.0" fill="#FEFFFE" transform="matrix(1.00, 0.00, -0.00, -1.00, 716.7, 176.7)">n</text><text xml:space="preserve" font-family="Courier,Courier" font-size="23.0" fill="#FEFFFE" transform="matrix(1.00, 0.00, -0.00, -1.00, 730.5, 176.7)">"</text><text xml:space="preserve" font-family="Courier,Courier" font-size="23.0" fill="#FEFFFE" transform="matrix(1.00, 0.00, -0.00, -1.00, 744.3, 176.7)">,</text><text xml:space="preserve" font-family="Courier,Courier" font-size="23.0" fill="#FEFFFE" transform="matrix(1.00, 0.00, -0.00, -1.00, 758.1, 176.7)">l</text><text xml:space="preserve" font-family="Courier,Courier" font-size="23.0" fill="#FEFFFE" transform="matrix(1.00, 0.00, -0.00, -1.00, 771.9, 176.7)">e</text><text xml:space="preserve" font-family="Courier,Courier" font-size="23.0" fill="#FEFFFE" transform="matrix(1.00, 0.00, -0.00, -1.00, 785.7, 176.7)">n</text><text xml:space="preserve" font-family="Courier,Courier" font-size="23.0" fill="#FEFFFE" transform="matrix(1.00, 0.00, -0.00, -1.00, 799.5, 176.7)">g</text><text xml:space="preserve" font-family="Courier,Courier" font-size="23.0" fill="#FEFFFE" transform="matrix(1.00, 0.00, -0.00, -1.00, 813.3, 176.7)">t</text><text xml:space="preserve" font-family="Courier,Courier" font-size="23.0" fill="#FEFFFE" transform="matrix(1.00, 0.00, -0.00, -1.00, 827.1, 176.7)">h</text><text xml:space="preserve" font-family="Courier,Courier" font-size="23.0" fill="#FEFFFE" transform="matrix(1.00, 0.00, -0.00, -1.00, 840.9, 176.7)">)</text><text xml:space="preserve" font-family="Courier,Courier" font-size="23.0" fill="#FEFFFE" transform="matrix(1.00, 0.00, -0.00, -1.00, 854.7, 176.7)">;</text><text xml:space="preserve" font-family="Courier,Courier" font-size="23.0" fill="#FEFFFE" transform="matrix(1.00, 0.00, -0.00, -1.00, 109.4, 148.7)"> </text><text xml:space="preserve" font-family="Courier,Courier" font-size="23.0" fill="#FEFFFE" transform="matrix(1.00, 0.00, -0.00, -1.00, 109.4, 120.7)"> </text><text xml:space="preserve" font-family="Courier,Courier" font-size="23.0" fill="#FEFFFE" transform="matrix(1.00, 0.00, -0.00, -1.00, 123.2, 120.7)"> </text><text xml:space="preserve" font-family="Courier,Courier" font-size="23.0" fill="#FEFFFE" transform="matrix(1.00, 0.00, -0.00, -1.00, 137.0, 120.7)"> </text><text xml:space="preserve" font-family="Courier,Courier" font-size="23.0" fill="#FEFFFE" transform="matrix(1.00, 0.00, -0.00, -1.00, 150.8, 120.7)">r</text><text xml:space="preserve" font-family="Courier,Courier" font-size="23.0" fill="#FEFFFE" transform="matrix(1.00, 0.00, -0.00, -1.00, 164.6, 120.7)">e</text><text xml:space="preserve" font-family="Courier,Courier" font-size="23.0" fill="#FEFFFE" transform="matrix(1.00, 0.00, -0.00, -1.00, 178.4, 120.7)">t</text><text xml:space="preserve" font-family="Courier,Courier" font-size="23.0" fill="#FEFFFE" transform="matrix(1.00, 0.00, -0.00, -1.00, 192.2, 120.7)">u</text><text xml:space="preserve" font-family="Courier,Courier" font-size="23.0" fill="#FEFFFE" transform="matrix(1.00, 0.00, -0.00, -1.00, 206.1, 120.7)">r</text><text xml:space="preserve" font-family="Courier,Courier" font-size="23.0" fill="#FEFFFE" transform="matrix(1.00, 0.00, -0.00, -1.00, 219.9, 120.7)">n</text><text xml:space="preserve" font-family="Courier,Courier" font-size="23.0" fill="#FEFFFE" transform="matrix(1.00, 0.00, -0.00, -1.00, 233.7, 120.7)"> </text><text xml:space="preserve" font-family="Courier,Courier" font-size="23.0" fill="#FEFFFE" transform="matrix(1.00, 0.00, -0.00, -1.00, 247.5, 120.7)">0</text><text xml:space="preserve" font-family="Courier,Courier" font-size="23.0" fill="#FEFFFE" transform="matrix(1.00, 0.00, -0.00, -1.00, 261.3, 120.7)">;</text><text xml:space="preserve" font-family="Courier,Courier" font-size="23.0" fill="#FEFFFE" transform="matrix(1.00, 0.00, -0.00, -1.00, 109.4, 92.7)">}</text></g></g></g></svg>