<?xml version="1.0" encoding="UTF-8" standalone="no"?><svg xmlns="http://www.w3.org/2000/svg" xmlns:xlink="http://www.w3.org/1999/xlink" clip-rule="evenodd" stroke-miterlimit="10" viewBox="0 0 1024 768"><desc>SVG generated by Keynote</desc><defs></defs><g transform="matrix(1.00, 0.00, -0.00, -1.00, 0.0, 768.0)"><g><clipPath id="clip0x6080006aa8c0"><path d="M 0.0 768.0 L 1024.0 768.0 L 1024.0 0.0 L 0.0 0.0 Z M 0.0 768.0 "></path></clipPath><g clip-path="url(#clip0x6080006aa8c0)"><image xlink:href="../../69E4C2E2-6185-4F29-93A3-A8243C0B68C4/assets/B4C0A52AB44535D77F6859A7B0B72F7C.jpeg" width="2880.00" height="1800.00" transform="matrix(0.36, 0.00, -0.00, -0.36, 0.0, 704.0)"></image></g></g><text xml:space="preserve" font-family="HelveticaNeue,Helvetica Neue" font-size="80.0" fill="#FEFFFF" transform="matrix(1.00, 0.00, -0.00, -1.00, 298.6, 633.3)">“</text><text xml:space="preserve" font-family="HelveticaNeue,Helvetica Neue" font-size="80.0" fill="#FEFFFF" transform="matrix(1.00, 0.00, -0.00, -1.00, 332.7, 633.3)">C</text><text xml:space="preserve" font-family="HelveticaNeue,Helvetica Neue" font-size="80.0" fill="#FEFFFF" transform="matrix(1.00, 0.00, -0.00, -1.00, 390.4, 633.3)">o</text><text xml:space="preserve" font-family="HelveticaNeue,Helvetica Neue" font-size="80.0" fill="#FEFFFF" transform="matrix(1.00, 0.00, -0.00, -1.00, 436.4, 633.3)">m</text><text xml:space="preserve" font-family="HelveticaNeue,Helvetica Neue" font-size="80.0" fill="#FEFFFF" transform="matrix(1.00, 0.00, -0.00, -1.00, 504.6, 633.3)">p</text><text xml:space="preserve" font-family="HelveticaNeue,Helvetica Neue" font-size="80.0" fill="#FEFFFF" transform="matrix(1.00, 0.00, -0.00, -1.00, 552.0, 633.3)">u</text><text xml:space="preserve" font-family="HelveticaNeue,Helvetica Neue" font-size="80.0" fill="#FEFFFF" transform="matrix(1.00, 0.00, -0.00, -1.00, 596.5, 633.3)">t</text><text xml:space="preserve" font-family="HelveticaNeue,Helvetica Neue" font-size="80.0" fill="#FEFFFF" transform="matrix(1.00, 0.00, -0.00, -1.00, 621.7, 633.3)">e</text><text xml:space="preserve" font-family="HelveticaNeue,Helvetica Neue" font-size="80.0" fill="#FEFFFF" transform="matrix(1.00, 0.00, -0.00, -1.00, 664.7, 633.3)">r</text><text xml:space="preserve" font-family="HelveticaNeue,Helvetica Neue" font-size="80.0" fill="#FEFFFF" transform="matrix(1.00, 0.00, -0.00, -1.00, 691.3, 633.3)">”</text><text xml:space="preserve" font-family="IowanOldStyle-Italic,Iowan Old Style" font-style="italic" font-size="46.0" fill="#FEFFFF" transform="matrix(1.00, 0.00, -0.00, -1.00, 136.6, 485.6)">“</text><text xml:space="preserve" font-family="IowanOldStyle-Italic,Iowan Old Style" font-style="italic" font-size="46.0" fill="#FEFFFF" transform="matrix(1.00, 0.00, -0.00, -1.00, 158.1, 485.6)">I</text><text xml:space="preserve" font-family="IowanOldStyle-Italic,Iowan Old Style" font-style="italic" font-size="46.0" fill="#FEFFFF" transform="matrix(1.00, 0.00, -0.00, -1.00, 173.2, 485.6)"> </text><text xml:space="preserve" font-family="IowanOldStyle-Italic,Iowan Old Style" font-style="italic" font-size="46.0" fill="#FEFFFF" transform="matrix(1.00, 0.00, -0.00, -1.00, 183.3, 485.6)">h</text><text xml:space="preserve" font-family="IowanOldStyle-Italic,Iowan Old Style" font-style="italic" font-size="46.0" fill="#FEFFFF" transform="matrix(1.00, 0.00, -0.00, -1.00, 206.3, 485.6)">a</text><text xml:space="preserve" font-family="IowanOldStyle-Italic,Iowan Old Style" font-style="italic" font-size="46.0" fill="#FEFFFF" transform="matrix(1.00, 0.00, -0.00, -1.00, 228.0, 485.6)">u</text><text xml:space="preserve" font-family="IowanOldStyle-Italic,Iowan Old Style" font-style="italic" font-size="46.0" fill="#FEFFFF" transform="matrix(1.00, 0.00, -0.00, -1.00, 251.2, 485.6)">e</text><text xml:space="preserve" font-family="IowanOldStyle-Italic,Iowan Old Style" font-style="italic" font-size="46.0" fill="#FEFFFF" transform="matrix(1.00, 0.00, -0.00, -1.00, 268.6, 485.6)"> </text><text xml:space="preserve" font-family="IowanOldStyle-Italic,Iowan Old Style" font-style="italic" font-size="46.0" fill="#FEFFFF" transform="matrix(1.00, 0.00, -0.00, -1.00, 278.7, 485.6)">r</text><text xml:space="preserve" font-family="IowanOldStyle-Italic,Iowan Old Style" font-style="italic" font-size="46.0" fill="#FEFFFF" transform="matrix(1.00, 0.00, -0.00, -1.00, 294.9, 485.6)">e</text><text xml:space="preserve" font-family="IowanOldStyle-Italic,Iowan Old Style" font-style="italic" font-size="46.0" fill="#FEFFFF" transform="matrix(1.00, 0.00, -0.00, -1.00, 312.4, 485.6)">a</text><text xml:space="preserve" font-family="IowanOldStyle-Italic,Iowan Old Style" font-style="italic" font-size="46.0" fill="#FEFFFF" transform="matrix(1.00, 0.00, -0.00, -1.00, 334.1, 485.6)">d</text><text xml:space="preserve" font-family="IowanOldStyle-Italic,Iowan Old Style" font-style="italic" font-size="46.0" fill="#FEFFFF" transform="matrix(1.00, 0.00, -0.00, -1.00, 356.5, 485.6)"> </text><text xml:space="preserve" font-family="IowanOldStyle-Italic,Iowan Old Style" font-style="italic" font-size="46.0" fill="#FEFFFF" transform="matrix(1.00, 0.00, -0.00, -1.00, 366.6, 485.6)">t</text><text xml:space="preserve" font-family="IowanOldStyle-Italic,Iowan Old Style" font-style="italic" font-size="46.0" fill="#FEFFFF" transform="matrix(1.00, 0.00, -0.00, -1.00, 382.2, 485.6)">h</text><text xml:space="preserve" font-family="IowanOldStyle-Italic,Iowan Old Style" font-style="italic" font-size="46.0" fill="#FEFFFF" transform="matrix(1.00, 0.00, -0.00, -1.00, 405.1, 485.6)">e</text><text xml:space="preserve" font-family="IowanOldStyle-Italic,Iowan Old Style" font-style="italic" font-size="46.0" fill="#FEFFFF" transform="matrix(1.00, 0.00, -0.00, -1.00, 422.6, 485.6)"> </text><text xml:space="preserve" font-family="IowanOldStyle-Italic,Iowan Old Style" font-style="italic" font-size="46.0" fill="#FEFFFF" transform="matrix(1.00, 0.00, -0.00, -1.00, 432.7, 485.6)">t</text><text xml:space="preserve" font-family="IowanOldStyle-Italic,Iowan Old Style" font-style="italic" font-size="46.0" fill="#FEFFFF" transform="matrix(1.00, 0.00, -0.00, -1.00, 448.2, 485.6)">r</text><text xml:space="preserve" font-family="IowanOldStyle-Italic,Iowan Old Style" font-style="italic" font-size="46.0" fill="#FEFFFF" transform="matrix(1.00, 0.00, -0.00, -1.00, 466.1, 485.6)">u</text><text xml:space="preserve" font-family="IowanOldStyle-Italic,Iowan Old Style" font-style="italic" font-size="46.0" fill="#FEFFFF" transform="matrix(1.00, 0.00, -0.00, -1.00, 489.2, 485.6)">e</text><text xml:space="preserve" font-family="IowanOldStyle-Italic,Iowan Old Style" font-style="italic" font-size="46.0" fill="#FEFFFF" transform="matrix(1.00, 0.00, -0.00, -1.00, 506.7, 485.6)">s</text><text xml:space="preserve" font-family="IowanOldStyle-Italic,Iowan Old Style" font-style="italic" font-size="46.0" fill="#FEFFFF" transform="matrix(1.00, 0.00, -0.00, -1.00, 523.0, 485.6)">t</text><text xml:space="preserve" font-family="IowanOldStyle-Italic,Iowan Old Style" font-style="italic" font-size="46.0" fill="#FEFFFF" transform="matrix(1.00, 0.00, -0.00, -1.00, 538.5, 485.6)"> </text><text xml:space="preserve" font-family="IowanOldStyle-Italic,Iowan Old Style" font-style="italic" font-size="46.0" fill="#FEFFFF" transform="matrix(1.00, 0.00, -0.00, -1.00, 548.6, 485.6)">c</text><text xml:space="preserve" font-family="IowanOldStyle-Italic,Iowan Old Style" font-style="italic" font-size="46.0" fill="#FEFFFF" transform="matrix(1.00, 0.00, -0.00, -1.00, 565.2, 485.6)">o</text><text xml:space="preserve" font-family="IowanOldStyle-Italic,Iowan Old Style" font-style="italic" font-size="46.0" fill="#FEFFFF" transform="matrix(1.00, 0.00, -0.00, -1.00, 586.1, 485.6)">m</text><text xml:space="preserve" font-family="IowanOldStyle-Italic,Iowan Old Style" font-style="italic" font-size="46.0" fill="#FEFFFF" transform="matrix(1.00, 0.00, -0.00, -1.00, 619.8, 485.6)">p</text><text xml:space="preserve" font-family="IowanOldStyle-Italic,Iowan Old Style" font-style="italic" font-size="46.0" fill="#FEFFFF" transform="matrix(1.00, 0.00, -0.00, -1.00, 642.1, 485.6)">u</text><text xml:space="preserve" font-family="IowanOldStyle-Italic,Iowan Old Style" font-style="italic" font-size="46.0" fill="#FEFFFF" transform="matrix(1.00, 0.00, -0.00, -1.00, 665.2, 485.6)">t</text><text xml:space="preserve" font-family="IowanOldStyle-Italic,Iowan Old Style" font-style="italic" font-size="46.0" fill="#FEFFFF" transform="matrix(1.00, 0.00, -0.00, -1.00, 680.8, 485.6)">e</text><text xml:space="preserve" font-family="IowanOldStyle-Italic,Iowan Old Style" font-style="italic" font-size="46.0" fill="#FEFFFF" transform="matrix(1.00, 0.00, -0.00, -1.00, 698.3, 485.6)">r</text><text xml:space="preserve" font-family="IowanOldStyle-Italic,Iowan Old Style" font-style="italic" font-size="46.0" fill="#FEFFFF" transform="matrix(1.00, 0.00, -0.00, -1.00, 715.2, 485.6)"> </text><text xml:space="preserve" font-family="IowanOldStyle-Italic,Iowan Old Style" font-style="italic" font-size="46.0" fill="#FEFFFF" transform="matrix(1.00, 0.00, -0.00, -1.00, 725.3, 485.6)">o</text><text xml:space="preserve" font-family="IowanOldStyle-Italic,Iowan Old Style" font-style="italic" font-size="46.0" fill="#FEFFFF" transform="matrix(1.00, 0.00, -0.00, -1.00, 746.2, 485.6)">f</text><text xml:space="preserve" font-family="IowanOldStyle-Italic,Iowan Old Style" font-style="italic" font-size="46.0" fill="#FEFFFF" transform="matrix(1.00, 0.00, -0.00, -1.00, 760.7, 485.6)"> </text><text xml:space="preserve" font-family="IowanOldStyle-Italic,Iowan Old Style" font-style="italic" font-size="46.0" fill="#FEFFFF" transform="matrix(1.00, 0.00, -0.00, -1.00, 770.8, 485.6)">T</text><text xml:space="preserve" font-family="IowanOldStyle-Italic,Iowan Old Style" font-style="italic" font-size="46.0" fill="#FEFFFF" transform="matrix(1.00, 0.00, -0.00, -1.00, 794.7, 485.6)">i</text><text xml:space="preserve" font-family="IowanOldStyle-Italic,Iowan Old Style" font-style="italic" font-size="46.0" fill="#FEFFFF" transform="matrix(1.00, 0.00, -0.00, -1.00, 807.3, 485.6)">m</text><text xml:space="preserve" font-family="IowanOldStyle-Italic,Iowan Old Style" font-style="italic" font-size="46.0" fill="#FEFFFF" transform="matrix(1.00, 0.00, -0.00, -1.00, 841.0, 485.6)">e</text><text xml:space="preserve" font-family="IowanOldStyle-Italic,Iowan Old Style" font-style="italic" font-size="46.0" fill="#FEFFFF" transform="matrix(1.00, 0.00, -0.00, -1.00, 858.5, 485.6)">s</text><text xml:space="preserve" font-family="IowanOldStyle-Italic,Iowan Old Style" font-style="italic" font-size="46.0" fill="#FEFFFF" transform="matrix(1.00, 0.00, -0.00, -1.00, 874.8, 485.6)">,</text><text xml:space="preserve" font-family="IowanOldStyle-Italic,Iowan Old Style" font-style="italic" font-size="46.0" fill="#FEFFFF" transform="matrix(1.00, 0.00, -0.00, -1.00, 887.4, 485.6)"> </text><text xml:space="preserve" font-family="LucidaGrande,Lucida Grande" font-size="46.0" fill="#FEFFFF" transform="matrix(1.00, 0.00, -0.00, -1.00, 897.5, 485.6)"> </text><text xml:space="preserve" font-family="IowanOldStyle-Italic,Iowan Old Style" font-style="italic" font-size="46.0" fill="#FEFFFF" transform="matrix(1.00, 0.00, -0.00, -1.00, 97.8, 422.6)">a</text><text xml:space="preserve" font-family="IowanOldStyle-Italic,Iowan Old Style" font-style="italic" font-size="46.0" fill="#FEFFFF" transform="matrix(1.00, 0.00, -0.00, -1.00, 119.6, 422.6)">n</text><text xml:space="preserve" font-family="IowanOldStyle-Italic,Iowan Old Style" font-style="italic" font-size="46.0" fill="#FEFFFF" transform="matrix(1.00, 0.00, -0.00, -1.00, 142.8, 422.6)">d</text><text xml:space="preserve" font-family="IowanOldStyle-Italic,Iowan Old Style" font-style="italic" font-size="46.0" fill="#FEFFFF" transform="matrix(1.00, 0.00, -0.00, -1.00, 165.2, 422.6)"> </text><text xml:space="preserve" font-family="IowanOldStyle-Italic,Iowan Old Style" font-style="italic" font-size="46.0" fill="#FEFFFF" transform="matrix(1.00, 0.00, -0.00, -1.00, 175.3, 422.6)">t</text><text xml:space="preserve" font-family="IowanOldStyle-Italic,Iowan Old Style" font-style="italic" font-size="46.0" fill="#FEFFFF" transform="matrix(1.00, 0.00, -0.00, -1.00, 190.9, 422.6)">h</text><text xml:space="preserve" font-family="IowanOldStyle-Italic,Iowan Old Style" font-style="italic" font-size="46.0" fill="#FEFFFF" transform="matrix(1.00, 0.00, -0.00, -1.00, 213.8, 422.6)">e</text><text xml:space="preserve" font-family="IowanOldStyle-Italic,Iowan Old Style" font-style="italic" font-size="46.0" fill="#FEFFFF" transform="matrix(1.00, 0.00, -0.00, -1.00, 231.3, 422.6)"> </text><text xml:space="preserve" font-family="IowanOldStyle-Italic,Iowan Old Style" font-style="italic" font-size="46.0" fill="#FEFFFF" transform="matrix(1.00, 0.00, -0.00, -1.00, 241.4, 422.6)">b</text><text xml:space="preserve" font-family="IowanOldStyle-Italic,Iowan Old Style" font-style="italic" font-size="46.0" fill="#FEFFFF" transform="matrix(1.00, 0.00, -0.00, -1.00, 263.2, 422.6)">e</text><text xml:space="preserve" font-family="IowanOldStyle-Italic,Iowan Old Style" font-style="italic" font-size="46.0" fill="#FEFFFF" transform="matrix(1.00, 0.00, -0.00, -1.00, 280.7, 422.6)">s</text><text xml:space="preserve" font-family="IowanOldStyle-Italic,Iowan Old Style" font-style="italic" font-size="46.0" fill="#FEFFFF" transform="matrix(1.00, 0.00, -0.00, -1.00, 297.0, 422.6)">t</text><text xml:space="preserve" font-family="IowanOldStyle-Italic,Iowan Old Style" font-style="italic" font-size="46.0" fill="#FEFFFF" transform="matrix(1.00, 0.00, -0.00, -1.00, 312.6, 422.6)"> </text><text xml:space="preserve" font-family="IowanOldStyle-Italic,Iowan Old Style" font-style="italic" font-size="46.0" fill="#FEFFFF" transform="matrix(1.00, 0.00, -0.00, -1.00, 322.7, 422.6)">A</text><text xml:space="preserve" font-family="IowanOldStyle-Italic,Iowan Old Style" font-style="italic" font-size="46.0" fill="#FEFFFF" transform="matrix(1.00, 0.00, -0.00, -1.00, 355.1, 422.6)">r</text><text xml:space="preserve" font-family="IowanOldStyle-Italic,Iowan Old Style" font-style="italic" font-size="46.0" fill="#FEFFFF" transform="matrix(1.00, 0.00, -0.00, -1.00, 372.1, 422.6)">i</text><text xml:space="preserve" font-family="IowanOldStyle-Italic,Iowan Old Style" font-style="italic" font-size="46.0" fill="#FEFFFF" transform="matrix(1.00, 0.00, -0.00, -1.00, 384.7, 422.6)">t</text><text xml:space="preserve" font-family="IowanOldStyle-Italic,Iowan Old Style" font-style="italic" font-size="46.0" fill="#FEFFFF" transform="matrix(1.00, 0.00, -0.00, -1.00, 400.3, 422.6)">h</text><text xml:space="preserve" font-family="IowanOldStyle-Italic,Iowan Old Style" font-style="italic" font-size="46.0" fill="#FEFFFF" transform="matrix(1.00, 0.00, -0.00, -1.00, 423.2, 422.6)">m</text><text xml:space="preserve" font-family="IowanOldStyle-Italic,Iowan Old Style" font-style="italic" font-size="46.0" fill="#FEFFFF" transform="matrix(1.00, 0.00, -0.00, -1.00, 456.9, 422.6)">e</text><text xml:space="preserve" font-family="IowanOldStyle-Italic,Iowan Old Style" font-style="italic" font-size="46.0" fill="#FEFFFF" transform="matrix(1.00, 0.00, -0.00, -1.00, 474.4, 422.6)">t</text><text xml:space="preserve" font-family="IowanOldStyle-Italic,Iowan Old Style" font-style="italic" font-size="46.0" fill="#FEFFFF" transform="matrix(1.00, 0.00, -0.00, -1.00, 489.9, 422.6)">i</text><text xml:space="preserve" font-family="IowanOldStyle-Italic,Iowan Old Style" font-style="italic" font-size="46.0" fill="#FEFFFF" transform="matrix(1.00, 0.00, -0.00, -1.00, 502.6, 422.6)">c</text><text xml:space="preserve" font-family="IowanOldStyle-Italic,Iowan Old Style" font-style="italic" font-size="46.0" fill="#FEFFFF" transform="matrix(1.00, 0.00, -0.00, -1.00, 519.2, 422.6)">i</text><text xml:space="preserve" font-family="IowanOldStyle-Italic,Iowan Old Style" font-style="italic" font-size="46.0" fill="#FEFFFF" transform="matrix(1.00, 0.00, -0.00, -1.00, 531.8, 422.6)">a</text><text xml:space="preserve" font-family="IowanOldStyle-Italic,Iowan Old Style" font-style="italic" font-size="46.0" fill="#FEFFFF" transform="matrix(1.00, 0.00, -0.00, -1.00, 553.6, 422.6)">n</text><text xml:space="preserve" font-family="IowanOldStyle-Italic,Iowan Old Style" font-style="italic" font-size="46.0" fill="#FEFFFF" transform="matrix(1.00, 0.00, -0.00, -1.00, 576.9, 422.6)"> </text><text xml:space="preserve" font-family="IowanOldStyle-Italic,Iowan Old Style" font-style="italic" font-size="46.0" fill="#FEFFFF" transform="matrix(1.00, 0.00, -0.00, -1.00, 586.9, 422.6)">t</text><text xml:space="preserve" font-family="IowanOldStyle-Italic,Iowan Old Style" font-style="italic" font-size="46.0" fill="#FEFFFF" transform="matrix(1.00, 0.00, -0.00, -1.00, 602.5, 422.6)">h</text><text xml:space="preserve" font-family="IowanOldStyle-Italic,Iowan Old Style" font-style="italic" font-size="46.0" fill="#FEFFFF" transform="matrix(1.00, 0.00, -0.00, -1.00, 625.4, 422.6)">a</text><text xml:space="preserve" font-family="IowanOldStyle-Italic,Iowan Old Style" font-style="italic" font-size="46.0" fill="#FEFFFF" transform="matrix(1.00, 0.00, -0.00, -1.00, 647.2, 422.6)">t</text><text xml:space="preserve" font-family="IowanOldStyle-Italic,Iowan Old Style" font-style="italic" font-size="46.0" fill="#FEFFFF" transform="matrix(1.00, 0.00, -0.00, -1.00, 662.7, 422.6)"> </text><text xml:space="preserve" font-family="IowanOldStyle-Italic,Iowan Old Style" font-style="italic" font-size="46.0" fill="#FEFFFF" transform="matrix(1.00, 0.00, -0.00, -1.00, 672.8, 422.6)">e</text><text xml:space="preserve" font-family="IowanOldStyle-Italic,Iowan Old Style" font-style="italic" font-size="46.0" fill="#FEFFFF" transform="matrix(1.00, 0.00, -0.00, -1.00, 690.3, 422.6)">u</text><text xml:space="preserve" font-family="IowanOldStyle-Italic,Iowan Old Style" font-style="italic" font-size="46.0" fill="#FEFFFF" transform="matrix(1.00, 0.00, -0.00, -1.00, 713.4, 422.6)">e</text><text xml:space="preserve" font-family="IowanOldStyle-Italic,Iowan Old Style" font-style="italic" font-size="46.0" fill="#FEFFFF" transform="matrix(1.00, 0.00, -0.00, -1.00, 730.9, 422.6)">r</text><text xml:space="preserve" font-family="IowanOldStyle-Italic,Iowan Old Style" font-style="italic" font-size="46.0" fill="#FEFFFF" transform="matrix(1.00, 0.00, -0.00, -1.00, 747.9, 422.6)"> </text><text xml:space="preserve" font-family="IowanOldStyle-Italic,Iowan Old Style" font-style="italic" font-size="46.0" fill="#FEFFFF" transform="matrix(1.00, 0.00, -0.00, -1.00, 758.0, 422.6)">b</text><text xml:space="preserve" font-family="IowanOldStyle-Italic,Iowan Old Style" font-style="italic" font-size="46.0" fill="#FEFFFF" transform="matrix(1.00, 0.00, -0.00, -1.00, 779.8, 422.6)">r</text><text xml:space="preserve" font-family="IowanOldStyle-Italic,Iowan Old Style" font-style="italic" font-size="46.0" fill="#FEFFFF" transform="matrix(1.00, 0.00, -0.00, -1.00, 796.0, 422.6)">e</text><text xml:space="preserve" font-family="IowanOldStyle-Italic,Iowan Old Style" font-style="italic" font-size="46.0" fill="#FEFFFF" transform="matrix(1.00, 0.00, -0.00, -1.00, 813.5, 422.6)">a</text><text xml:space="preserve" font-family="IowanOldStyle-Italic,Iowan Old Style" font-style="italic" font-size="46.0" fill="#FEFFFF" transform="matrix(1.00, 0.00, -0.00, -1.00, 835.3, 422.6)">t</text><text xml:space="preserve" font-family="IowanOldStyle-Italic,Iowan Old Style" font-style="italic" font-size="46.0" fill="#FEFFFF" transform="matrix(1.00, 0.00, -0.00, -1.00, 850.8, 422.6)">h</text><text xml:space="preserve" font-family="IowanOldStyle-Italic,Iowan Old Style" font-style="italic" font-size="46.0" fill="#FEFFFF" transform="matrix(1.00, 0.00, -0.00, -1.00, 873.8, 422.6)">e</text><text xml:space="preserve" font-family="IowanOldStyle-Italic,Iowan Old Style" font-style="italic" font-size="46.0" fill="#FEFFFF" transform="matrix(1.00, 0.00, -0.00, -1.00, 891.2, 422.6)">d</text><text xml:space="preserve" font-family="IowanOldStyle-Italic,Iowan Old Style" font-style="italic" font-size="46.0" fill="#FEFFFF" transform="matrix(1.00, 0.00, -0.00, -1.00, 913.6, 422.6)">,</text><text xml:space="preserve" font-family="IowanOldStyle-Italic,Iowan Old Style" font-style="italic" font-size="46.0" fill="#FEFFFF" transform="matrix(1.00, 0.00, -0.00, -1.00, 926.2, 422.6)"> </text><text xml:space="preserve" font-family="LucidaGrande,Lucida Grande" font-size="46.0" fill="#FEFFFF" transform="matrix(1.00, 0.00, -0.00, -1.00, 936.3, 422.6)"> </text><text xml:space="preserve" font-family="IowanOldStyle-Italic,Iowan Old Style" font-style="italic" font-size="46.0" fill="#FEFFFF" transform="matrix(1.00, 0.00, -0.00, -1.00, 84.7, 359.6)">a</text><text xml:space="preserve" font-family="IowanOldStyle-Italic,Iowan Old Style" font-style="italic" font-size="46.0" fill="#FEFFFF" transform="matrix(1.00, 0.00, -0.00, -1.00, 106.4, 359.6)">n</text><text xml:space="preserve" font-family="IowanOldStyle-Italic,Iowan Old Style" font-style="italic" font-size="46.0" fill="#FEFFFF" transform="matrix(1.00, 0.00, -0.00, -1.00, 129.7, 359.6)">d</text><text xml:space="preserve" font-family="IowanOldStyle-Italic,Iowan Old Style" font-style="italic" font-size="46.0" fill="#FEFFFF" transform="matrix(1.00, 0.00, -0.00, -1.00, 152.1, 359.6)"> </text><text xml:space="preserve" font-family="IowanOldStyle-Italic,Iowan Old Style" font-style="italic" font-size="46.0" fill="#FEFFFF" transform="matrix(1.00, 0.00, -0.00, -1.00, 162.2, 359.6)">h</text><text xml:space="preserve" font-family="IowanOldStyle-Italic,Iowan Old Style" font-style="italic" font-size="46.0" fill="#FEFFFF" transform="matrix(1.00, 0.00, -0.00, -1.00, 185.1, 359.6)">e</text><text xml:space="preserve" font-family="IowanOldStyle-Italic,Iowan Old Style" font-style="italic" font-size="46.0" fill="#FEFFFF" transform="matrix(1.00, 0.00, -0.00, -1.00, 202.6, 359.6)"> </text><text xml:space="preserve" font-family="IowanOldStyle-Italic,Iowan Old Style" font-style="italic" font-size="46.0" fill="#FEFFFF" transform="matrix(1.00, 0.00, -0.00, -1.00, 212.7, 359.6)">r</text><text xml:space="preserve" font-family="IowanOldStyle-Italic,Iowan Old Style" font-style="italic" font-size="46.0" fill="#FEFFFF" transform="matrix(1.00, 0.00, -0.00, -1.00, 228.9, 359.6)">e</text><text xml:space="preserve" font-family="IowanOldStyle-Italic,Iowan Old Style" font-style="italic" font-size="46.0" fill="#FEFFFF" transform="matrix(1.00, 0.00, -0.00, -1.00, 246.4, 359.6)">d</text><text xml:space="preserve" font-family="IowanOldStyle-Italic,Iowan Old Style" font-style="italic" font-size="46.0" fill="#FEFFFF" transform="matrix(1.00, 0.00, -0.00, -1.00, 268.7, 359.6)">u</text><text xml:space="preserve" font-family="IowanOldStyle-Italic,Iowan Old Style" font-style="italic" font-size="46.0" fill="#FEFFFF" transform="matrix(1.00, 0.00, -0.00, -1.00, 291.9, 359.6)">c</text><text xml:space="preserve" font-family="IowanOldStyle-Italic,Iowan Old Style" font-style="italic" font-size="46.0" fill="#FEFFFF" transform="matrix(1.00, 0.00, -0.00, -1.00, 308.5, 359.6)">e</text><text xml:space="preserve" font-family="IowanOldStyle-Italic,Iowan Old Style" font-style="italic" font-size="46.0" fill="#FEFFFF" transform="matrix(1.00, 0.00, -0.00, -1.00, 325.9, 359.6)">t</text><text xml:space="preserve" font-family="IowanOldStyle-Italic,Iowan Old Style" font-style="italic" font-size="46.0" fill="#FEFFFF" transform="matrix(1.00, 0.00, -0.00, -1.00, 341.5, 359.6)">h</text><text xml:space="preserve" font-family="IowanOldStyle-Italic,Iowan Old Style" font-style="italic" font-size="46.0" fill="#FEFFFF" transform="matrix(1.00, 0.00, -0.00, -1.00, 364.4, 359.6)"> </text><text xml:space="preserve" font-family="IowanOldStyle-Italic,Iowan Old Style" font-style="italic" font-size="46.0" fill="#FEFFFF" transform="matrix(1.00, 0.00, -0.00, -1.00, 374.5, 359.6)">t</text><text xml:space="preserve" font-family="IowanOldStyle-Italic,Iowan Old Style" font-style="italic" font-size="46.0" fill="#FEFFFF" transform="matrix(1.00, 0.00, -0.00, -1.00, 390.1, 359.6)">h</text><text xml:space="preserve" font-family="IowanOldStyle-Italic,Iowan Old Style" font-style="italic" font-size="46.0" fill="#FEFFFF" transform="matrix(1.00, 0.00, -0.00, -1.00, 413.0, 359.6)">y</text><text xml:space="preserve" font-family="IowanOldStyle-Italic,Iowan Old Style" font-style="italic" font-size="46.0" fill="#FEFFFF" transform="matrix(1.00, 0.00, -0.00, -1.00, 433.3, 359.6)"> </text><text xml:space="preserve" font-family="IowanOldStyle-Italic,Iowan Old Style" font-style="italic" font-size="46.0" fill="#FEFFFF" transform="matrix(1.00, 0.00, -0.00, -1.00, 443.4, 359.6)">d</text><text xml:space="preserve" font-family="IowanOldStyle-Italic,Iowan Old Style" font-style="italic" font-size="46.0" fill="#FEFFFF" transform="matrix(1.00, 0.00, -0.00, -1.00, 465.8, 359.6)">a</text><text xml:space="preserve" font-family="IowanOldStyle-Italic,Iowan Old Style" font-style="italic" font-size="46.0" fill="#FEFFFF" transform="matrix(1.00, 0.00, -0.00, -1.00, 487.6, 359.6)">y</text><text xml:space="preserve" font-family="IowanOldStyle-Italic,Iowan Old Style" font-style="italic" font-size="46.0" fill="#FEFFFF" transform="matrix(1.00, 0.00, -0.00, -1.00, 507.9, 359.6)">e</text><text xml:space="preserve" font-family="IowanOldStyle-Italic,Iowan Old Style" font-style="italic" font-size="46.0" fill="#FEFFFF" transform="matrix(1.00, 0.00, -0.00, -1.00, 525.4, 359.6)">s</text><text xml:space="preserve" font-family="IowanOldStyle-Italic,Iowan Old Style" font-style="italic" font-size="46.0" fill="#FEFFFF" transform="matrix(1.00, 0.00, -0.00, -1.00, 541.7, 359.6)"> </text><text xml:space="preserve" font-family="IowanOldStyle-Italic,Iowan Old Style" font-style="italic" font-size="46.0" fill="#FEFFFF" transform="matrix(1.00, 0.00, -0.00, -1.00, 551.8, 359.6)">i</text><text xml:space="preserve" font-family="IowanOldStyle-Italic,Iowan Old Style" font-style="italic" font-size="46.0" fill="#FEFFFF" transform="matrix(1.00, 0.00, -0.00, -1.00, 564.4, 359.6)">n</text><text xml:space="preserve" font-family="IowanOldStyle-Italic,Iowan Old Style" font-style="italic" font-size="46.0" fill="#FEFFFF" transform="matrix(1.00, 0.00, -0.00, -1.00, 587.7, 359.6)">t</text><text xml:space="preserve" font-family="IowanOldStyle-Italic,Iowan Old Style" font-style="italic" font-size="46.0" fill="#FEFFFF" transform="matrix(1.00, 0.00, -0.00, -1.00, 603.2, 359.6)">o</text><text xml:space="preserve" font-family="IowanOldStyle-Italic,Iowan Old Style" font-style="italic" font-size="46.0" fill="#FEFFFF" transform="matrix(1.00, 0.00, -0.00, -1.00, 624.1, 359.6)"> </text><text xml:space="preserve" font-family="IowanOldStyle-Italic,Iowan Old Style" font-style="italic" font-size="46.0" fill="#FEFFFF" transform="matrix(1.00, 0.00, -0.00, -1.00, 634.2, 359.6)">a</text><text xml:space="preserve" font-family="IowanOldStyle-Italic,Iowan Old Style" font-style="italic" font-size="46.0" fill="#FEFFFF" transform="matrix(1.00, 0.00, -0.00, -1.00, 656.0, 359.6)"> </text><text xml:space="preserve" font-family="IowanOldStyle-Italic,Iowan Old Style" font-style="italic" font-size="46.0" fill="#FEFFFF" transform="matrix(1.00, 0.00, -0.00, -1.00, 666.1, 359.6)">s</text><text xml:space="preserve" font-family="IowanOldStyle-Italic,Iowan Old Style" font-style="italic" font-size="46.0" fill="#FEFFFF" transform="matrix(1.00, 0.00, -0.00, -1.00, 682.4, 359.6)">h</text><text xml:space="preserve" font-family="IowanOldStyle-Italic,Iowan Old Style" font-style="italic" font-size="46.0" fill="#FEFFFF" transform="matrix(1.00, 0.00, -0.00, -1.00, 705.4, 359.6)">o</text><text xml:space="preserve" font-family="IowanOldStyle-Italic,Iowan Old Style" font-style="italic" font-size="46.0" fill="#FEFFFF" transform="matrix(1.00, 0.00, -0.00, -1.00, 726.3, 359.6)">r</text><text xml:space="preserve" font-family="IowanOldStyle-Italic,Iowan Old Style" font-style="italic" font-size="46.0" fill="#FEFFFF" transform="matrix(1.00, 0.00, -0.00, -1.00, 743.3, 359.6)">t</text><text xml:space="preserve" font-family="IowanOldStyle-Italic,Iowan Old Style" font-style="italic" font-size="46.0" fill="#FEFFFF" transform="matrix(1.00, 0.00, -0.00, -1.00, 758.8, 359.6)"> </text><text xml:space="preserve" font-family="IowanOldStyle-Italic,Iowan Old Style" font-style="italic" font-size="46.0" fill="#FEFFFF" transform="matrix(1.00, 0.00, -0.00, -1.00, 768.9, 359.6)">n</text><text xml:space="preserve" font-family="IowanOldStyle-Italic,Iowan Old Style" font-style="italic" font-size="46.0" fill="#FEFFFF" transform="matrix(1.00, 0.00, -0.00, -1.00, 792.1, 359.6)">u</text><text xml:space="preserve" font-family="IowanOldStyle-Italic,Iowan Old Style" font-style="italic" font-size="46.0" fill="#FEFFFF" transform="matrix(1.00, 0.00, -0.00, -1.00, 815.3, 359.6)">m</text><text xml:space="preserve" font-family="IowanOldStyle-Italic,Iowan Old Style" font-style="italic" font-size="46.0" fill="#FEFFFF" transform="matrix(1.00, 0.00, -0.00, -1.00, 849.0, 359.6)">b</text><text xml:space="preserve" font-family="IowanOldStyle-Italic,Iowan Old Style" font-style="italic" font-size="46.0" fill="#FEFFFF" transform="matrix(1.00, 0.00, -0.00, -1.00, 870.8, 359.6)">e</text><text xml:space="preserve" font-family="IowanOldStyle-Italic,Iowan Old Style" font-style="italic" font-size="46.0" fill="#FEFFFF" transform="matrix(1.00, 0.00, -0.00, -1.00, 888.3, 359.6)">r</text><text xml:space="preserve" font-family="IowanOldStyle-Italic,Iowan Old Style" font-style="italic" font-size="46.0" fill="#FEFFFF" transform="matrix(1.00, 0.00, -0.00, -1.00, 905.3, 359.6)">.</text><text xml:space="preserve" font-family="IowanOldStyle-Italic,Iowan Old Style" font-style="italic" font-size="46.0" fill="#FEFFFF" transform="matrix(1.00, 0.00, -0.00, -1.00, 917.9, 359.6)">”</text><text xml:space="preserve" font-family="HelveticaNeue,Helvetica Neue" font-size="38.0" fill="#FEFFFF" transform="matrix(1.00, 0.00, -0.00, -1.00, 294.8, 177.6)">T</text><text xml:space="preserve" font-family="HelveticaNeue,Helvetica Neue" font-size="38.0" fill="#FEFFFF" transform="matrix(1.00, 0.00, -0.00, -1.00, 316.7, 177.6)">h</text><text xml:space="preserve" font-family="HelveticaNeue,Helvetica Neue" font-size="38.0" fill="#FEFFFF" transform="matrix(1.00, 0.00, -0.00, -1.00, 337.8, 177.6)">e</text><text xml:space="preserve" font-family="HelveticaNeue,Helvetica Neue" font-size="38.0" fill="#FEFFFF" transform="matrix(1.00, 0.00, -0.00, -1.00, 358.2, 177.6)"> </text><text xml:space="preserve" font-family="HelveticaNeue,Helvetica Neue" font-size="38.0" fill="#FEFFFF" transform="matrix(1.00, 0.00, -0.00, -1.00, 368.8, 177.6)">y</text><text xml:space="preserve" font-family="HelveticaNeue,Helvetica Neue" font-size="38.0" fill="#FEFFFF" transform="matrix(1.00, 0.00, -0.00, -1.00, 387.8, 177.6)">o</text><text xml:space="preserve" font-family="HelveticaNeue,Helvetica Neue" font-size="38.0" fill="#FEFFFF" transform="matrix(1.00, 0.00, -0.00, -1.00, 409.6, 177.6)">n</text><text xml:space="preserve" font-family="HelveticaNeue,Helvetica Neue" font-size="38.0" fill="#FEFFFF" transform="matrix(1.00, 0.00, -0.00, -1.00, 430.7, 177.6)">g</text><text xml:space="preserve" font-family="HelveticaNeue,Helvetica Neue" font-size="38.0" fill="#FEFFFF" transform="matrix(1.00, 0.00, -0.00, -1.00, 452.5, 177.6)"> </text><text xml:space="preserve" font-family="HelveticaNeue,Helvetica Neue" font-size="38.0" fill="#FEFFFF" transform="matrix(1.00, 0.00, -0.00, -1.00, 463.1, 177.6)">m</text><text xml:space="preserve" font-family="HelveticaNeue,Helvetica Neue" font-size="38.0" fill="#FEFFFF" transform="matrix(1.00, 0.00, -0.00, -1.00, 495.5, 177.6)">a</text><text xml:space="preserve" font-family="HelveticaNeue,Helvetica Neue" font-size="38.0" fill="#FEFFFF" transform="matrix(1.00, 0.00, -0.00, -1.00, 515.9, 177.6)">n</text><text xml:space="preserve" font-family="HelveticaNeue,Helvetica Neue" font-size="38.0" fill="#FEFFFF" transform="matrix(1.00, 0.00, -0.00, -1.00, 537.0, 177.6)">s</text><text xml:space="preserve" font-family="HelveticaNeue,Helvetica Neue" font-size="38.0" fill="#FEFFFF" transform="matrix(1.00, 0.00, -0.00, -1.00, 556.0, 177.6)"> </text><text xml:space="preserve" font-family="HelveticaNeue,Helvetica Neue" font-size="38.0" fill="#FEFFFF" transform="matrix(1.00, 0.00, -0.00, -1.00, 566.6, 177.6)">g</text><text xml:space="preserve" font-family="HelveticaNeue,Helvetica Neue" font-size="38.0" fill="#FEFFFF" transform="matrix(1.00, 0.00, -0.00, -1.00, 588.4, 177.6)">l</text><text xml:space="preserve" font-family="HelveticaNeue,Helvetica Neue" font-size="38.0" fill="#FEFFFF" transform="matrix(1.00, 0.00, -0.00, -1.00, 596.8, 177.6)">e</text><text xml:space="preserve" font-family="HelveticaNeue,Helvetica Neue" font-size="38.0" fill="#FEFFFF" transform="matrix(1.00, 0.00, -0.00, -1.00, 617.2, 177.6)">a</text><text xml:space="preserve" font-family="HelveticaNeue,Helvetica Neue" font-size="38.0" fill="#FEFFFF" transform="matrix(1.00, 0.00, -0.00, -1.00, 637.6, 177.6)">n</text><text xml:space="preserve" font-family="HelveticaNeue,Helvetica Neue" font-size="38.0" fill="#FEFFFF" transform="matrix(1.00, 0.00, -0.00, -1.00, 658.8, 177.6)">i</text><text xml:space="preserve" font-family="HelveticaNeue,Helvetica Neue" font-size="38.0" fill="#FEFFFF" transform="matrix(1.00, 0.00, -0.00, -1.00, 667.2, 177.6)">n</text><text xml:space="preserve" font-family="HelveticaNeue,Helvetica Neue" font-size="38.0" fill="#FEFFFF" transform="matrix(1.00, 0.00, -0.00, -1.00, 688.3, 177.6)">g</text><text xml:space="preserve" font-family="HelveticaNeue,Helvetica Neue" font-size="38.0" fill="#FEFFFF" transform="matrix(1.00, 0.00, -0.00, -1.00, 710.2, 177.6)">s</text><text xml:space="preserve" font-family="HelveticaNeue,Helvetica Neue" font-size="38.0" fill="#FEFFFF" transform="matrix(1.00, 0.00, -0.00, -1.00, 729.2, 177.6)"> </text><text xml:space="preserve" font-family="HelveticaNeue,Helvetica Neue" font-size="38.0" fill="#FEFFFF" transform="matrix(1.00, 0.00, -0.00, -1.00, 277.3, 132.6)">b</text><text xml:space="preserve" font-family="HelveticaNeue,Helvetica Neue" font-size="38.0" fill="#FEFFFF" transform="matrix(1.00, 0.00, -0.00, -1.00, 299.8, 132.6)">y</text><text xml:space="preserve" font-family="HelveticaNeue,Helvetica Neue" font-size="38.0" fill="#FEFFFF" transform="matrix(1.00, 0.00, -0.00, -1.00, 318.8, 132.6)"> </text><text xml:space="preserve" font-family="HelveticaNeue,Helvetica Neue" font-size="38.0" fill="#FEFFFF" transform="matrix(1.00, 0.00, -0.00, -1.00, 329.4, 132.6)">R</text><text xml:space="preserve" font-family="HelveticaNeue,Helvetica Neue" font-size="38.0" fill="#FEFFFF" transform="matrix(1.00, 0.00, -0.00, -1.00, 355.4, 132.6)">i</text><text xml:space="preserve" font-family="HelveticaNeue,Helvetica Neue" font-size="38.0" fill="#FEFFFF" transform="matrix(1.00, 0.00, -0.00, -1.00, 363.8, 132.6)">c</text><text xml:space="preserve" font-family="HelveticaNeue,Helvetica Neue" font-size="38.0" fill="#FEFFFF" transform="matrix(1.00, 0.00, -0.00, -1.00, 384.2, 132.6)">h</text><text xml:space="preserve" font-family="HelveticaNeue,Helvetica Neue" font-size="38.0" fill="#FEFFFF" transform="matrix(1.00, 0.00, -0.00, -1.00, 405.4, 132.6)">a</text><text xml:space="preserve" font-family="HelveticaNeue,Helvetica Neue" font-size="38.0" fill="#FEFFFF" transform="matrix(1.00, 0.00, -0.00, -1.00, 425.8, 132.6)">r</text><text xml:space="preserve" font-family="HelveticaNeue,Helvetica Neue" font-size="38.0" fill="#FEFFFF" transform="matrix(1.00, 0.00, -0.00, -1.00, 437.7, 132.6)">d</text><text xml:space="preserve" font-family="HelveticaNeue,Helvetica Neue" font-size="38.0" fill="#FEFFFF" transform="matrix(1.00, 0.00, -0.00, -1.00, 460.3, 132.6)"> </text><text xml:space="preserve" font-family="HelveticaNeue,Helvetica Neue" font-size="38.0" fill="#FEFFFF" transform="matrix(1.00, 0.00, -0.00, -1.00, 470.8, 132.6)">B</text><text xml:space="preserve" font-family="HelveticaNeue,Helvetica Neue" font-size="38.0" fill="#FEFFFF" transform="matrix(1.00, 0.00, -0.00, -1.00, 496.9, 132.6)">r</text><text xml:space="preserve" font-family="HelveticaNeue,Helvetica Neue" font-size="38.0" fill="#FEFFFF" transform="matrix(1.00, 0.00, -0.00, -1.00, 509.5, 132.6)">a</text><text xml:space="preserve" font-family="HelveticaNeue,Helvetica Neue" font-size="38.0" fill="#FEFFFF" transform="matrix(1.00, 0.00, -0.00, -1.00, 529.9, 132.6)">i</text><text xml:space="preserve" font-family="HelveticaNeue,Helvetica Neue" font-size="38.0" fill="#FEFFFF" transform="matrix(1.00, 0.00, -0.00, -1.00, 538.4, 132.6)">t</text><text xml:space="preserve" font-family="HelveticaNeue,Helvetica Neue" font-size="38.0" fill="#FEFFFF" transform="matrix(1.00, 0.00, -0.00, -1.00, 550.3, 132.6)">h</text><text xml:space="preserve" font-family="HelveticaNeue,Helvetica Neue" font-size="38.0" fill="#FEFFFF" transform="matrix(1.00, 0.00, -0.00, -1.00, 571.5, 132.6)">w</text><text xml:space="preserve" font-family="HelveticaNeue,Helvetica Neue" font-size="38.0" fill="#FEFFFF" transform="matrix(1.00, 0.00, -0.00, -1.00, 600.3, 132.6)">a</text><text xml:space="preserve" font-family="HelveticaNeue,Helvetica Neue" font-size="38.0" fill="#FEFFFF" transform="matrix(1.00, 0.00, -0.00, -1.00, 620.7, 132.6)">i</text><text xml:space="preserve" font-family="HelveticaNeue,Helvetica Neue" font-size="38.0" fill="#FEFFFF" transform="matrix(1.00, 0.00, -0.00, -1.00, 629.1, 132.6)">t</text><text xml:space="preserve" font-family="HelveticaNeue,Helvetica Neue" font-size="38.0" fill="#FEFFFF" transform="matrix(1.00, 0.00, -0.00, -1.00, 641.1, 132.6)">,</text><text xml:space="preserve" font-family="HelveticaNeue,Helvetica Neue" font-size="38.0" fill="#FEFFFF" transform="matrix(1.00, 0.00, -0.00, -1.00, 651.7, 132.6)"> </text><text xml:space="preserve" font-family="HelveticaNeue,Helvetica Neue" font-size="38.0" fill="#FEFFFF" transform="matrix(1.00, 0.00, -0.00, -1.00, 662.2, 132.6)">1</text><text xml:space="preserve" font-family="HelveticaNeue,Helvetica Neue" font-size="38.0" fill="#FEFFFF" transform="matrix(1.00, 0.00, -0.00, -1.00, 683.3, 132.6)">6</text><text xml:space="preserve" font-family="HelveticaNeue,Helvetica Neue" font-size="38.0" fill="#FEFFFF" transform="matrix(1.00, 0.00, -0.00, -1.00, 704.5, 132.6)">1</text><text xml:space="preserve" font-family="HelveticaNeue,Helvetica Neue" font-size="38.0" fill="#FEFFFF" transform="matrix(1.00, 0.00, -0.00, -1.00, 725.6, 132.6)">3</text></g></svg>