<?xml version="1.0" encoding="UTF-8" standalone="no"?><svg xmlns="http://www.w3.org/2000/svg" xmlns:xlink="http://www.w3.org/1999/xlink" clip-rule="evenodd" stroke-miterlimit="10" viewBox="0 0 1024 768"><desc>SVG generated by Keynote</desc><defs></defs><g transform="matrix(1.00, 0.00, -0.00, -1.00, 0.0, 768.0)"><g><clipPath id="clip0x600000cb51e0"><path d="M 0.0 768.0 L 1024.0 768.0 L 1024.0 0.0 L 0.0 0.0 Z M 0.0 768.0 "></path></clipPath><g clip-path="url(#clip0x600000cb51e0)"><image xlink:href="../../69E4C2E2-6185-4F29-93A3-A8243C0B68C4/assets/B4C0A52AB44535D77F6859A7B0B72F7C.jpeg" width="2880.00" height="1800.00" transform="matrix(0.36, 0.00, -0.00, -0.36, 0.0, 704.0)"></image></g></g><text xml:space="preserve" font-family="HelveticaNeue,Helvetica Neue" font-size="79.2" fill="#FEFFFF" transform="matrix(1.00, 0.00, -0.00, -1.00, 79.9, 634.1)">F</text><text xml:space="preserve" font-family="HelveticaNeue,Helvetica Neue" font-size="79.2" fill="#FEFFFF" transform="matrix(1.00, 0.00, -0.00, -1.00, 125.4, 634.1)">u</text><text xml:space="preserve" font-family="HelveticaNeue,Helvetica Neue" font-size="79.2" fill="#FEFFFF" transform="matrix(1.00, 0.00, -0.00, -1.00, 169.4, 634.1)">n</text><text xml:space="preserve" font-family="HelveticaNeue,Helvetica Neue" font-size="79.2" fill="#FEFFFF" transform="matrix(1.00, 0.00, -0.00, -1.00, 213.5, 634.1)">d</text><text xml:space="preserve" font-family="HelveticaNeue,Helvetica Neue" font-size="79.2" fill="#FEFFFF" transform="matrix(1.00, 0.00, -0.00, -1.00, 260.4, 634.1)">a</text><text xml:space="preserve" font-family="HelveticaNeue,Helvetica Neue" font-size="79.2" fill="#FEFFFF" transform="matrix(1.00, 0.00, -0.00, -1.00, 303.0, 634.1)">m</text><text xml:space="preserve" font-family="HelveticaNeue,Helvetica Neue" font-size="79.2" fill="#FEFFFF" transform="matrix(1.00, 0.00, -0.00, -1.00, 370.5, 634.1)">e</text><text xml:space="preserve" font-family="HelveticaNeue,Helvetica Neue" font-size="79.2" fill="#FEFFFF" transform="matrix(1.00, 0.00, -0.00, -1.00, 413.0, 634.1)">n</text><text xml:space="preserve" font-family="HelveticaNeue,Helvetica Neue" font-size="79.2" fill="#FEFFFF" transform="matrix(1.00, 0.00, -0.00, -1.00, 457.1, 634.1)">t</text><text xml:space="preserve" font-family="HelveticaNeue,Helvetica Neue" font-size="79.2" fill="#FEFFFF" transform="matrix(1.00, 0.00, -0.00, -1.00, 482.0, 634.1)">a</text><text xml:space="preserve" font-family="HelveticaNeue,Helvetica Neue" font-size="79.2" fill="#FEFFFF" transform="matrix(1.00, 0.00, -0.00, -1.00, 524.6, 634.1)">l</text><text xml:space="preserve" font-family="HelveticaNeue,Helvetica Neue" font-size="79.2" fill="#FEFFFF" transform="matrix(1.00, 0.00, -0.00, -1.00, 542.1, 634.1)"> </text><text xml:space="preserve" font-family="HelveticaNeue,Helvetica Neue" font-size="79.2" fill="#FEFFFF" transform="matrix(1.00, 0.00, -0.00, -1.00, 564.2, 634.1)">P</text><text xml:space="preserve" font-family="HelveticaNeue,Helvetica Neue" font-size="79.2" fill="#FEFFFF" transform="matrix(1.00, 0.00, -0.00, -1.00, 615.5, 634.1)">a</text><text xml:space="preserve" font-family="HelveticaNeue,Helvetica Neue" font-size="79.2" fill="#FEFFFF" transform="matrix(1.00, 0.00, -0.00, -1.00, 658.0, 634.1)">r</text><text xml:space="preserve" font-family="HelveticaNeue,Helvetica Neue" font-size="79.2" fill="#FEFFFF" transform="matrix(1.00, 0.00, -0.00, -1.00, 684.4, 634.1)">a</text><text xml:space="preserve" font-family="HelveticaNeue,Helvetica Neue" font-size="79.2" fill="#FEFFFF" transform="matrix(1.00, 0.00, -0.00, -1.00, 726.9, 634.1)">d</text><text xml:space="preserve" font-family="HelveticaNeue,Helvetica Neue" font-size="79.2" fill="#FEFFFF" transform="matrix(1.00, 0.00, -0.00, -1.00, 773.9, 634.1)">i</text><text xml:space="preserve" font-family="HelveticaNeue,Helvetica Neue" font-size="79.2" fill="#FEFFFF" transform="matrix(1.00, 0.00, -0.00, -1.00, 791.5, 634.1)">g</text><text xml:space="preserve" font-family="HelveticaNeue,Helvetica Neue" font-size="79.2" fill="#FEFFFF" transform="matrix(1.00, 0.00, -0.00, -1.00, 836.9, 634.1)">m</text><text xml:space="preserve" font-family="HelveticaNeue,Helvetica Neue" font-size="79.2" fill="#FEFFFF" transform="matrix(1.00, 0.00, -0.00, -1.00, 904.5, 634.1)">s</text><g><g><clipPath id="clip0x600000cb6140"><path d="M 99.5 550.5 L 924.5 550.5 L 924.5 99.5 L 99.5 99.5 Z M 99.5 550.5 "></path></clipPath><g clip-path="url(#clip0x600000cb6140)"><g><clipPath id="clip0x600000cb62c0"><path d="M 100.5 486.2 L 511.5 486.2 L 511.5 549.5 L 100.5 549.5 Z M 100.5 486.2 "></path></clipPath><g clip-path="url(#clip0x600000cb62c0)"><text xml:space="preserve" font-family="Helvetica-Bold,Helvetica" font-weight="bold" font-size="28.0" fill="#FEFFFE" transform="matrix(1.00, 0.00, -0.00, -1.00, 274.9, 506.9)">1</text><text xml:space="preserve" font-family="Helvetica-Bold,Helvetica" font-weight="bold" font-size="28.0" fill="#FEFFFE" transform="matrix(1.00, 0.00, -0.00, -1.00, 290.4, 506.9)">9</text><text xml:space="preserve" font-family="Helvetica-Bold,Helvetica" font-weight="bold" font-size="28.0" fill="#FEFFFE" transform="matrix(1.00, 0.00, -0.00, -1.00, 306.0, 506.9)">6</text><text xml:space="preserve" font-family="Helvetica-Bold,Helvetica" font-weight="bold" font-size="28.0" fill="#FEFFFE" transform="matrix(1.00, 0.00, -0.00, -1.00, 321.6, 506.9)">8</text></g></g></g></g><g><clipPath id="clip0x600000cb6620"><path d="M 99.5 550.5 L 924.5 550.5 L 924.5 99.5 L 99.5 99.5 Z M 99.5 550.5 "></path></clipPath><g clip-path="url(#clip0x600000cb6620)"><g><clipPath id="clip0x600000cb67a0"><path d="M 512.5 486.2 L 923.5 486.2 L 923.5 549.5 L 512.5 549.5 Z M 512.5 486.2 "></path></clipPath><g clip-path="url(#clip0x600000cb67a0)"><text xml:space="preserve" font-family="Helvetica-Bold,Helvetica" font-weight="bold" font-size="28.0" fill="#FEFFFE" transform="matrix(1.00, 0.00, -0.00, -1.00, 683.8, 506.9)">L</text><text xml:space="preserve" font-family="Helvetica-Bold,Helvetica" font-weight="bold" font-size="28.0" fill="#FEFFFE" transform="matrix(1.00, 0.00, -0.00, -1.00, 700.9, 506.9)">o</text><text xml:space="preserve" font-family="Helvetica-Bold,Helvetica" font-weight="bold" font-size="28.0" fill="#FEFFFE" transform="matrix(1.00, 0.00, -0.00, -1.00, 718.0, 506.9)">g</text><text xml:space="preserve" font-family="Helvetica-Bold,Helvetica" font-weight="bold" font-size="28.0" fill="#FEFFFE" transform="matrix(1.00, 0.00, -0.00, -1.00, 735.1, 506.9)">o</text></g></g></g></g><g><clipPath id="clip0x600000cb6b00"><path d="M 99.5 550.5 L 924.5 550.5 L 924.5 99.5 L 99.5 99.5 Z M 99.5 550.5 "></path></clipPath><g clip-path="url(#clip0x600000cb6b00)"><g><clipPath id="clip0x600000cb6c80"><path d="M 100.5 421.9 L 511.5 421.9 L 511.5 485.2 L 100.5 485.2 Z M 100.5 421.9 "></path></clipPath><g clip-path="url(#clip0x600000cb6c80)"><text xml:space="preserve" font-family="Helvetica-Bold,Helvetica" font-weight="bold" font-size="28.0" fill="#FEFFFE" transform="matrix(1.00, 0.00, -0.00, -1.00, 274.9, 442.7)">1</text><text xml:space="preserve" font-family="Helvetica-Bold,Helvetica" font-weight="bold" font-size="28.0" fill="#FEFFFE" transform="matrix(1.00, 0.00, -0.00, -1.00, 290.4, 442.7)">9</text><text xml:space="preserve" font-family="Helvetica-Bold,Helvetica" font-weight="bold" font-size="28.0" fill="#FEFFFE" transform="matrix(1.00, 0.00, -0.00, -1.00, 306.0, 442.7)">6</text><text xml:space="preserve" font-family="Helvetica-Bold,Helvetica" font-weight="bold" font-size="28.0" fill="#FEFFFE" transform="matrix(1.00, 0.00, -0.00, -1.00, 321.6, 442.7)">9</text></g></g></g></g><g><clipPath id="clip0x600000cb6fe0"><path d="M 99.5 550.5 L 924.5 550.5 L 924.5 99.5 L 99.5 99.5 Z M 99.5 550.5 "></path></clipPath><g clip-path="url(#clip0x600000cb6fe0)"><g><clipPath id="clip0x600000cb7160"><path d="M 512.5 421.9 L 923.5 421.9 L 923.5 485.2 L 512.5 485.2 Z M 512.5 421.9 "></path></clipPath><g clip-path="url(#clip0x600000cb7160)"><text xml:space="preserve" font-family="Helvetica-Bold,Helvetica" font-weight="bold" font-size="28.0" fill="#FEFFFE" transform="matrix(1.00, 0.00, -0.00, -1.00, 592.8, 442.7)">B</text><text xml:space="preserve" font-family="Helvetica-Bold,Helvetica" font-weight="bold" font-size="28.0" fill="#FEFFFE" transform="matrix(1.00, 0.00, -0.00, -1.00, 613.0, 442.7)"> </text><text xml:space="preserve" font-family="Helvetica-Bold,Helvetica" font-weight="bold" font-size="28.0" fill="#FEFFFE" transform="matrix(1.00, 0.00, -0.00, -1.00, 620.8, 442.7)">(</text><text xml:space="preserve" font-family="Helvetica-Bold,Helvetica" font-weight="bold" font-size="28.0" fill="#FEFFFE" transform="matrix(1.00, 0.00, -0.00, -1.00, 630.1, 442.7)">f</text><text xml:space="preserve" font-family="Helvetica-Bold,Helvetica" font-weight="bold" font-size="28.0" fill="#FEFFFE" transform="matrix(1.00, 0.00, -0.00, -1.00, 639.4, 442.7)">o</text><text xml:space="preserve" font-family="Helvetica-Bold,Helvetica" font-weight="bold" font-size="28.0" fill="#FEFFFE" transform="matrix(1.00, 0.00, -0.00, -1.00, 656.5, 442.7)">r</text><text xml:space="preserve" font-family="Helvetica-Bold,Helvetica" font-weight="bold" font-size="28.0" fill="#FEFFFE" transform="matrix(1.00, 0.00, -0.00, -1.00, 667.4, 442.7)">e</text><text xml:space="preserve" font-family="Helvetica-Bold,Helvetica" font-weight="bold" font-size="28.0" fill="#FEFFFE" transform="matrix(1.00, 0.00, -0.00, -1.00, 683.0, 442.7)">r</text><text xml:space="preserve" font-family="Helvetica-Bold,Helvetica" font-weight="bold" font-size="28.0" fill="#FEFFFE" transform="matrix(1.00, 0.00, -0.00, -1.00, 693.9, 442.7)">u</text><text xml:space="preserve" font-family="Helvetica-Bold,Helvetica" font-weight="bold" font-size="28.0" fill="#FEFFFE" transform="matrix(1.00, 0.00, -0.00, -1.00, 711.0, 442.7)">n</text><text xml:space="preserve" font-family="Helvetica-Bold,Helvetica" font-weight="bold" font-size="28.0" fill="#FEFFFE" transform="matrix(1.00, 0.00, -0.00, -1.00, 728.1, 442.7)">n</text><text xml:space="preserve" font-family="Helvetica-Bold,Helvetica" font-weight="bold" font-size="28.0" fill="#FEFFFE" transform="matrix(1.00, 0.00, -0.00, -1.00, 745.2, 442.7)">e</text><text xml:space="preserve" font-family="Helvetica-Bold,Helvetica" font-weight="bold" font-size="28.0" fill="#FEFFFE" transform="matrix(1.00, 0.00, -0.00, -1.00, 760.8, 442.7)">r</text><text xml:space="preserve" font-family="Helvetica-Bold,Helvetica" font-weight="bold" font-size="28.0" fill="#FEFFFE" transform="matrix(1.00, 0.00, -0.00, -1.00, 771.7, 442.7)"> </text><text xml:space="preserve" font-family="Helvetica-Bold,Helvetica" font-weight="bold" font-size="28.0" fill="#FEFFFE" transform="matrix(1.00, 0.00, -0.00, -1.00, 779.5, 442.7)">t</text><text xml:space="preserve" font-family="Helvetica-Bold,Helvetica" font-weight="bold" font-size="28.0" fill="#FEFFFE" transform="matrix(1.00, 0.00, -0.00, -1.00, 788.8, 442.7)">o</text><text xml:space="preserve" font-family="Helvetica-Bold,Helvetica" font-weight="bold" font-size="28.0" fill="#FEFFFE" transform="matrix(1.00, 0.00, -0.00, -1.00, 805.9, 442.7)"> </text><text xml:space="preserve" font-family="Helvetica-Bold,Helvetica" font-weight="bold" font-size="28.0" fill="#FEFFFE" transform="matrix(1.00, 0.00, -0.00, -1.00, 813.7, 442.7)">C</text><text xml:space="preserve" font-family="Helvetica-Bold,Helvetica" font-weight="bold" font-size="28.0" fill="#FEFFFE" transform="matrix(1.00, 0.00, -0.00, -1.00, 833.9, 442.7)">)</text></g></g></g></g><g><clipPath id="clip0x600000cb7a60"><path d="M 99.5 550.5 L 924.5 550.5 L 924.5 99.5 L 99.5 99.5 Z M 99.5 550.5 "></path></clipPath><g clip-path="url(#clip0x600000cb7a60)"><g><clipPath id="clip0x600000cb7be0"><path d="M 100.5 357.6 L 511.5 357.6 L 511.5 420.9 L 100.5 420.9 Z M 100.5 357.6 "></path></clipPath><g clip-path="url(#clip0x600000cb7be0)"><text xml:space="preserve" font-family="Helvetica-Bold,Helvetica" font-weight="bold" font-size="28.0" fill="#FEFFFE" transform="matrix(1.00, 0.00, -0.00, -1.00, 274.9, 378.4)">1</text><text xml:space="preserve" font-family="Helvetica-Bold,Helvetica" font-weight="bold" font-size="28.0" fill="#FEFFFE" transform="matrix(1.00, 0.00, -0.00, -1.00, 290.4, 378.4)">9</text><text xml:space="preserve" font-family="Helvetica-Bold,Helvetica" font-weight="bold" font-size="28.0" fill="#FEFFFE" transform="matrix(1.00, 0.00, -0.00, -1.00, 306.0, 378.4)">7</text><text xml:space="preserve" font-family="Helvetica-Bold,Helvetica" font-weight="bold" font-size="28.0" fill="#FEFFFE" transform="matrix(1.00, 0.00, -0.00, -1.00, 321.6, 378.4)">0</text></g></g></g></g><g><clipPath id="clip0x600000cb7f40"><path d="M 99.5 550.5 L 924.5 550.5 L 924.5 99.5 L 99.5 99.5 Z M 99.5 550.5 "></path></clipPath><g clip-path="url(#clip0x600000cb7f40)"><g><clipPath id="clip0x600000cb80c0"><path d="M 512.5 357.6 L 923.5 357.6 L 923.5 420.9 L 512.5 420.9 Z M 512.5 357.6 "></path></clipPath><g clip-path="url(#clip0x600000cb80c0)"><text xml:space="preserve" font-family="Helvetica-Bold,Helvetica" font-weight="bold" font-size="28.0" fill="#FEFFFE" transform="matrix(1.00, 0.00, -0.00, -1.00, 673.6, 378.4)">P</text><text xml:space="preserve" font-family="Helvetica-Bold,Helvetica" font-weight="bold" font-size="28.0" fill="#FEFFFE" transform="matrix(1.00, 0.00, -0.00, -1.00, 692.3, 378.4)">a</text><text xml:space="preserve" font-family="Helvetica-Bold,Helvetica" font-weight="bold" font-size="28.0" fill="#FEFFFE" transform="matrix(1.00, 0.00, -0.00, -1.00, 707.9, 378.4)">s</text><text xml:space="preserve" font-family="Helvetica-Bold,Helvetica" font-weight="bold" font-size="28.0" fill="#FEFFFE" transform="matrix(1.00, 0.00, -0.00, -1.00, 723.5, 378.4)">c</text><text xml:space="preserve" font-family="Helvetica-Bold,Helvetica" font-weight="bold" font-size="28.0" fill="#FEFFFE" transform="matrix(1.00, 0.00, -0.00, -1.00, 739.0, 378.4)">a</text><text xml:space="preserve" font-family="Helvetica-Bold,Helvetica" font-weight="bold" font-size="28.0" fill="#FEFFFE" transform="matrix(1.00, 0.00, -0.00, -1.00, 754.6, 378.4)">l</text></g></g></g></g><g><clipPath id="clip0x600000cb84e0"><path d="M 99.5 550.5 L 924.5 550.5 L 924.5 99.5 L 99.5 99.5 Z M 99.5 550.5 "></path></clipPath><g clip-path="url(#clip0x600000cb84e0)"><g><clipPath id="clip0x600000cb8660"><path d="M 100.5 293.4 L 511.5 293.4 L 511.5 356.6 L 100.5 356.6 Z M 100.5 293.4 "></path></clipPath><g clip-path="url(#clip0x600000cb8660)"><text xml:space="preserve" font-family="Helvetica-Bold,Helvetica" font-weight="bold" font-size="28.0" fill="#FEFFFE" transform="matrix(1.00, 0.00, -0.00, -1.00, 274.9, 314.1)">1</text><text xml:space="preserve" font-family="Helvetica-Bold,Helvetica" font-weight="bold" font-size="28.0" fill="#FEFFFE" transform="matrix(1.00, 0.00, -0.00, -1.00, 290.4, 314.1)">9</text><text xml:space="preserve" font-family="Helvetica-Bold,Helvetica" font-weight="bold" font-size="28.0" fill="#FEFFFE" transform="matrix(1.00, 0.00, -0.00, -1.00, 306.0, 314.1)">7</text><text xml:space="preserve" font-family="Helvetica-Bold,Helvetica" font-weight="bold" font-size="28.0" fill="#FEFFFE" transform="matrix(1.00, 0.00, -0.00, -1.00, 321.6, 314.1)">2</text></g></g></g></g><g><clipPath id="clip0x600000cb89c0"><path d="M 99.5 550.5 L 924.5 550.5 L 924.5 99.5 L 99.5 99.5 Z M 99.5 550.5 "></path></clipPath><g clip-path="url(#clip0x600000cb89c0)"><g><clipPath id="clip0x600000cb8b40"><path d="M 512.5 293.4 L 923.5 293.4 L 923.5 356.6 L 512.5 356.6 Z M 512.5 293.4 "></path></clipPath><g clip-path="url(#clip0x600000cb8b40)"><text xml:space="preserve" font-family="Helvetica-Bold,Helvetica" font-weight="bold" font-size="28.0" fill="#FEFFFE" transform="matrix(1.00, 0.00, -0.00, -1.00, 707.9, 314.1)">C</text></g></g></g></g><g><clipPath id="clip0x600000cb8d80"><path d="M 99.5 550.5 L 924.5 550.5 L 924.5 99.5 L 99.5 99.5 Z M 99.5 550.5 "></path></clipPath><g clip-path="url(#clip0x600000cb8d80)"><g><clipPath id="clip0x600000cb8f00"><path d="M 100.5 229.1 L 511.5 229.1 L 511.5 292.4 L 100.5 292.4 Z M 100.5 229.1 "></path></clipPath><g clip-path="url(#clip0x600000cb8f00)"><text xml:space="preserve" font-family="Helvetica-Bold,Helvetica" font-weight="bold" font-size="28.0" fill="#FEFFFE" transform="matrix(1.00, 0.00, -0.00, -1.00, 274.9, 249.8)">1</text><text xml:space="preserve" font-family="Helvetica-Bold,Helvetica" font-weight="bold" font-size="28.0" fill="#FEFFFE" transform="matrix(1.00, 0.00, -0.00, -1.00, 290.4, 249.8)">9</text><text xml:space="preserve" font-family="Helvetica-Bold,Helvetica" font-weight="bold" font-size="28.0" fill="#FEFFFE" transform="matrix(1.00, 0.00, -0.00, -1.00, 306.0, 249.8)">7</text><text xml:space="preserve" font-family="Helvetica-Bold,Helvetica" font-weight="bold" font-size="28.0" fill="#FEFFFE" transform="matrix(1.00, 0.00, -0.00, -1.00, 321.6, 249.8)">2</text></g></g></g></g><g><clipPath id="clip0x600000cb9260"><path d="M 99.5 550.5 L 924.5 550.5 L 924.5 99.5 L 99.5 99.5 Z M 99.5 550.5 "></path></clipPath><g clip-path="url(#clip0x600000cb9260)"><g><clipPath id="clip0x600000cb93e0"><path d="M 512.5 229.1 L 923.5 229.1 L 923.5 292.4 L 512.5 292.4 Z M 512.5 229.1 "></path></clipPath><g clip-path="url(#clip0x600000cb93e0)"><text xml:space="preserve" font-family="Helvetica-Bold,Helvetica" font-weight="bold" font-size="28.0" fill="#FEFFFE" transform="matrix(1.00, 0.00, -0.00, -1.00, 656.5, 249.8)">S</text><text xml:space="preserve" font-family="Helvetica-Bold,Helvetica" font-weight="bold" font-size="28.0" fill="#FEFFFE" transform="matrix(1.00, 0.00, -0.00, -1.00, 675.2, 249.8)">m</text><text xml:space="preserve" font-family="Helvetica-Bold,Helvetica" font-weight="bold" font-size="28.0" fill="#FEFFFE" transform="matrix(1.00, 0.00, -0.00, -1.00, 700.1, 249.8)">a</text><text xml:space="preserve" font-family="Helvetica-Bold,Helvetica" font-weight="bold" font-size="28.0" fill="#FEFFFE" transform="matrix(1.00, 0.00, -0.00, -1.00, 715.7, 249.8)">l</text><text xml:space="preserve" font-family="Helvetica-Bold,Helvetica" font-weight="bold" font-size="28.0" fill="#FEFFFE" transform="matrix(1.00, 0.00, -0.00, -1.00, 723.5, 249.8)">l</text><text xml:space="preserve" font-family="Helvetica-Bold,Helvetica" font-weight="bold" font-size="28.0" fill="#FEFFFE" transform="matrix(1.00, 0.00, -0.00, -1.00, 731.2, 249.8)">t</text><text xml:space="preserve" font-family="Helvetica-Bold,Helvetica" font-weight="bold" font-size="28.0" fill="#FEFFFE" transform="matrix(1.00, 0.00, -0.00, -1.00, 740.6, 249.8)">a</text><text xml:space="preserve" font-family="Helvetica-Bold,Helvetica" font-weight="bold" font-size="28.0" fill="#FEFFFE" transform="matrix(1.00, 0.00, -0.00, -1.00, 756.1, 249.8)">l</text><text xml:space="preserve" font-family="Helvetica-Bold,Helvetica" font-weight="bold" font-size="28.0" fill="#FEFFFE" transform="matrix(1.00, 0.00, -0.00, -1.00, 763.9, 249.8)">k</text></g></g></g></g><g><clipPath id="clip0x600000cb9920"><path d="M 99.5 550.5 L 924.5 550.5 L 924.5 99.5 L 99.5 99.5 Z M 99.5 550.5 "></path></clipPath><g clip-path="url(#clip0x600000cb9920)"><g><clipPath id="clip0x600000cb9aa0"><path d="M 100.5 164.8 L 511.5 164.8 L 511.5 228.1 L 100.5 228.1 Z M 100.5 164.8 "></path></clipPath><g clip-path="url(#clip0x600000cb9aa0)"><text xml:space="preserve" font-family="Helvetica-Bold,Helvetica" font-weight="bold" font-size="28.0" fill="#FEFFFE" transform="matrix(1.00, 0.00, -0.00, -1.00, 274.9, 185.5)">1</text><text xml:space="preserve" font-family="Helvetica-Bold,Helvetica" font-weight="bold" font-size="28.0" fill="#FEFFFE" transform="matrix(1.00, 0.00, -0.00, -1.00, 290.4, 185.5)">9</text><text xml:space="preserve" font-family="Helvetica-Bold,Helvetica" font-weight="bold" font-size="28.0" fill="#FEFFFE" transform="matrix(1.00, 0.00, -0.00, -1.00, 306.0, 185.5)">7</text><text xml:space="preserve" font-family="Helvetica-Bold,Helvetica" font-weight="bold" font-size="28.0" fill="#FEFFFE" transform="matrix(1.00, 0.00, -0.00, -1.00, 321.6, 185.5)">2</text></g></g></g></g><g><clipPath id="clip0x600000cb9e00"><path d="M 99.5 550.5 L 924.5 550.5 L 924.5 99.5 L 99.5 99.5 Z M 99.5 550.5 "></path></clipPath><g clip-path="url(#clip0x600000cb9e00)"><g><clipPath id="clip0x600000cb9f80"><path d="M 512.5 164.8 L 923.5 164.8 L 923.5 228.1 L 512.5 228.1 Z M 512.5 164.8 "></path></clipPath><g clip-path="url(#clip0x600000cb9f80)"><text xml:space="preserve" font-family="Helvetica-Bold,Helvetica" font-weight="bold" font-size="28.0" fill="#FEFFFE" transform="matrix(1.00, 0.00, -0.00, -1.00, 673.7, 185.5)">P</text><text xml:space="preserve" font-family="Helvetica-Bold,Helvetica" font-weight="bold" font-size="28.0" fill="#FEFFFE" transform="matrix(1.00, 0.00, -0.00, -1.00, 692.3, 185.5)">r</text><text xml:space="preserve" font-family="Helvetica-Bold,Helvetica" font-weight="bold" font-size="28.0" fill="#FEFFFE" transform="matrix(1.00, 0.00, -0.00, -1.00, 703.2, 185.5)">o</text><text xml:space="preserve" font-family="Helvetica-Bold,Helvetica" font-weight="bold" font-size="28.0" fill="#FEFFFE" transform="matrix(1.00, 0.00, -0.00, -1.00, 720.3, 185.5)">l</text><text xml:space="preserve" font-family="Helvetica-Bold,Helvetica" font-weight="bold" font-size="28.0" fill="#FEFFFE" transform="matrix(1.00, 0.00, -0.00, -1.00, 728.1, 185.5)">o</text><text xml:space="preserve" font-family="Helvetica-Bold,Helvetica" font-weight="bold" font-size="28.0" fill="#FEFFFE" transform="matrix(1.00, 0.00, -0.00, -1.00, 745.2, 185.5)">g</text></g></g></g></g><g><clipPath id="clip0x600000cba3a0"><path d="M 99.5 550.5 L 924.5 550.5 L 924.5 99.5 L 99.5 99.5 Z M 99.5 550.5 "></path></clipPath><g clip-path="url(#clip0x600000cba3a0)"><g><clipPath id="clip0x600000cba520"><path d="M 100.5 100.5 L 511.5 100.5 L 511.5 163.8 L 100.5 163.8 Z M 100.5 100.5 "></path></clipPath><g clip-path="url(#clip0x600000cba520)"><text xml:space="preserve" font-family="Helvetica-Bold,Helvetica" font-weight="bold" font-size="28.0" fill="#FEFFFE" transform="matrix(1.00, 0.00, -0.00, -1.00, 274.9, 121.2)">1</text><text xml:space="preserve" font-family="Helvetica-Bold,Helvetica" font-weight="bold" font-size="28.0" fill="#FEFFFE" transform="matrix(1.00, 0.00, -0.00, -1.00, 290.4, 121.2)">9</text><text xml:space="preserve" font-family="Helvetica-Bold,Helvetica" font-weight="bold" font-size="28.0" fill="#FEFFFE" transform="matrix(1.00, 0.00, -0.00, -1.00, 306.0, 121.2)">7</text><text xml:space="preserve" font-family="Helvetica-Bold,Helvetica" font-weight="bold" font-size="28.0" fill="#FEFFFE" transform="matrix(1.00, 0.00, -0.00, -1.00, 321.6, 121.2)">8</text></g></g></g></g><g><clipPath id="clip0x600000cba880"><path d="M 99.5 550.5 L 924.5 550.5 L 924.5 99.5 L 99.5 99.5 Z M 99.5 550.5 "></path></clipPath><g clip-path="url(#clip0x600000cba880)"><g><clipPath id="clip0x600000cbaa00"><path d="M 512.5 100.5 L 923.5 100.5 L 923.5 163.8 L 512.5 163.8 Z M 512.5 100.5 "></path></clipPath><g clip-path="url(#clip0x600000cbaa00)"><text xml:space="preserve" font-family="Helvetica-Bold,Helvetica" font-weight="bold" font-size="28.0" fill="#FEFFFE" transform="matrix(1.00, 0.00, -0.00, -1.00, 689.2, 121.2)">S</text><text xml:space="preserve" font-family="Helvetica-Bold,Helvetica" font-weight="bold" font-size="28.0" fill="#FEFFFE" transform="matrix(1.00, 0.00, -0.00, -1.00, 707.9, 121.2)">Q</text><text xml:space="preserve" font-family="Helvetica-Bold,Helvetica" font-weight="bold" font-size="28.0" fill="#FEFFFE" transform="matrix(1.00, 0.00, -0.00, -1.00, 729.7, 121.2)">L</text></g></g></g></g><g><clipPath id="clip0x600000cbad00"><path d="M 99.5 550.5 L 924.5 550.5 L 924.5 99.5 L 99.5 99.5 Z M 99.5 550.5 "></path></clipPath><g clip-path="url(#clip0x600000cbad00)"><g><clipPath id="clip0x600000cbae80"><path d="M 0.0 0.0 L 1024.0 0.0 L 1024.0 768.0 L 0.0 768.0 Z M 0.0 0.0 "></path></clipPath><g clip-path="url(#clip0x600000cbae80)"><path d="M 414.0 1.5 L 414.0 452.5 " fill="none" stroke="#D6D6D6" stroke-width="1.00" transform="matrix(1.00, 0.00, 0.00, -1.00, 98.0, 552.0)"></path><path d="M 1.5 66.3 L 826.5 66.3 " fill="none" stroke="#D6D6D6" stroke-width="1.00" transform="matrix(1.00, 0.00, 0.00, -1.00, 98.0, 552.0)"></path><path d="M 1.5 130.6 L 826.5 130.6 " fill="none" stroke="#D6D6D6" stroke-width="1.00" transform="matrix(1.00, 0.00, 0.00, -1.00, 98.0, 552.0)"></path><path d="M 1.5 194.9 L 826.5 194.9 " fill="none" stroke="#D6D6D6" stroke-width="1.00" transform="matrix(1.00, 0.00, 0.00, -1.00, 98.0, 552.0)"></path><path d="M 1.5 259.1 L 826.5 259.1 " fill="none" stroke="#D6D6D6" stroke-width="1.00" transform="matrix(1.00, 0.00, 0.00, -1.00, 98.0, 552.0)"></path><path d="M 1.5 323.4 L 826.5 323.4 " fill="none" stroke="#D6D6D6" stroke-width="1.00" transform="matrix(1.00, 0.00, 0.00, -1.00, 98.0, 552.0)"></path><path d="M 1.5 387.7 L 826.5 387.7 " fill="none" stroke="#D6D6D6" stroke-width="1.00" transform="matrix(1.00, 0.00, 0.00, -1.00, 98.0, 552.0)"></path><path d="M 2.0 1.5 L 2.0 452.5 " fill="none" stroke="#D5D5D5" stroke-width="1.00" transform="matrix(1.00, 0.00, 0.00, -1.00, 98.0, 552.0)"></path><path d="M 826.0 1.5 L 826.0 452.5 " fill="none" stroke="#D5D5D5" stroke-width="1.00" transform="matrix(1.00, 0.00, 0.00, -1.00, 98.0, 552.0)"></path><path d="M 1.5 2.0 L 826.5 2.0 " fill="none" stroke="#D5D5D5" stroke-width="1.00" transform="matrix(1.00, 0.00, 0.00, -1.00, 98.0, 552.0)"></path><path d="M 1.5 452.0 L 826.5 452.0 " fill="none" stroke="#D5D5D5" stroke-width="1.00" transform="matrix(1.00, 0.00, 0.00, -1.00, 98.0, 552.0)"></path></g></g></g></g></g></g></svg>