<?xml version="1.0" encoding="UTF-8" standalone="no"?><svg xmlns="http://www.w3.org/2000/svg" xmlns:xlink="http://www.w3.org/1999/xlink" clip-rule="evenodd" stroke-miterlimit="10" viewBox="0 0 1024 768"><desc>SVG generated by Keynote</desc><defs></defs><g transform="matrix(1.00, 0.00, -0.00, -1.00, 0.0, 768.0)"><g><clipPath id="clip0x6080006b6aa0"><path d="M 0.0 768.0 L 1024.0 768.0 L 1024.0 0.0 L 0.0 0.0 Z M 0.0 768.0 "></path></clipPath><g clip-path="url(#clip0x6080006b6aa0)"><image xlink:href="../../69E4C2E2-6185-4F29-93A3-A8243C0B68C4/assets/B4C0A52AB44535D77F6859A7B0B72F7C.jpeg" width="2880.00" height="1800.00" transform="matrix(0.36, 0.00, -0.00, -0.36, 0.0, 704.0)"></image></g></g><image xlink:href="EDD41F83030489EC31A473081C94F62A.png" width="720.00" height="720.00" transform="matrix(0.80, 0.00, -0.00, -0.80, 222.9, 614.1)"></image><text xml:space="preserve" font-family="HelveticaNeue,Helvetica Neue" font-size="80.0" fill="#FEFFFF" transform="matrix(1.00, 0.00, -0.00, -1.00, 197.8, 633.3)">D</text><text xml:space="preserve" font-family="HelveticaNeue,Helvetica Neue" font-size="80.0" fill="#FEFFFF" transform="matrix(1.00, 0.00, -0.00, -1.00, 254.1, 633.3)">i</text><text xml:space="preserve" font-family="HelveticaNeue,Helvetica Neue" font-size="80.0" fill="#FEFFFF" transform="matrix(1.00, 0.00, -0.00, -1.00, 271.8, 633.3)">ﬀ</text><text xml:space="preserve" font-family="HelveticaNeue,Helvetica Neue" font-size="80.0" fill="#FEFFFF" transform="matrix(1.00, 0.00, -0.00, -1.00, 318.0, 633.3)">e</text><text xml:space="preserve" font-family="HelveticaNeue,Helvetica Neue" font-size="80.0" fill="#FEFFFF" transform="matrix(1.00, 0.00, -0.00, -1.00, 361.0, 633.3)">r</text><text xml:space="preserve" font-family="HelveticaNeue,Helvetica Neue" font-size="80.0" fill="#FEFFFF" transform="matrix(1.00, 0.00, -0.00, -1.00, 386.2, 633.3)">e</text><text xml:space="preserve" font-family="HelveticaNeue,Helvetica Neue" font-size="80.0" fill="#FEFFFF" transform="matrix(1.00, 0.00, -0.00, -1.00, 429.1, 633.3)">n</text><text xml:space="preserve" font-family="HelveticaNeue,Helvetica Neue" font-size="80.0" fill="#FEFFFF" transform="matrix(1.00, 0.00, -0.00, -1.00, 473.6, 633.3)">c</text><text xml:space="preserve" font-family="HelveticaNeue,Helvetica Neue" font-size="80.0" fill="#FEFFFF" transform="matrix(1.00, 0.00, -0.00, -1.00, 516.6, 633.3)">e</text><text xml:space="preserve" font-family="HelveticaNeue,Helvetica Neue" font-size="80.0" fill="#FEFFFF" transform="matrix(1.00, 0.00, -0.00, -1.00, 559.5, 633.3)"> </text><text xml:space="preserve" font-family="HelveticaNeue,Helvetica Neue" font-size="80.0" fill="#FEFFFF" transform="matrix(1.00, 0.00, -0.00, -1.00, 581.8, 633.3)">E</text><text xml:space="preserve" font-family="HelveticaNeue,Helvetica Neue" font-size="80.0" fill="#FEFFFF" transform="matrix(1.00, 0.00, -0.00, -1.00, 630.6, 633.3)">n</text><text xml:space="preserve" font-family="HelveticaNeue,Helvetica Neue" font-size="80.0" fill="#FEFFFF" transform="matrix(1.00, 0.00, -0.00, -1.00, 675.1, 633.3)">g</text><text xml:space="preserve" font-family="HelveticaNeue,Helvetica Neue" font-size="80.0" fill="#FEFFFF" transform="matrix(1.00, 0.00, -0.00, -1.00, 721.0, 633.3)">i</text><text xml:space="preserve" font-family="HelveticaNeue,Helvetica Neue" font-size="80.0" fill="#FEFFFF" transform="matrix(1.00, 0.00, -0.00, -1.00, 738.8, 633.3)">n</text><text xml:space="preserve" font-family="HelveticaNeue,Helvetica Neue" font-size="80.0" fill="#FEFFFF" transform="matrix(1.00, 0.00, -0.00, -1.00, 783.3, 633.3)">e</text></g></svg>