<?xml version="1.0" encoding="UTF-8" standalone="no"?><svg xmlns="http://www.w3.org/2000/svg" xmlns:xlink="http://www.w3.org/1999/xlink" clip-rule="evenodd" stroke-miterlimit="10" viewBox="0 0 1024 768"><desc>SVG generated by Keynote</desc><defs></defs><g transform="matrix(1.00, 0.00, -0.00, -1.00, 0.0, 768.0)"><g><clipPath id="clip0x608000caf780"><path d="M 0.0 768.0 L 1024.0 768.0 L 1024.0 0.0 L 0.0 0.0 Z M 0.0 768.0 "></path></clipPath><g clip-path="url(#clip0x608000caf780)"><image xlink:href="../../69E4C2E2-6185-4F29-93A3-A8243C0B68C4/assets/B4C0A52AB44535D77F6859A7B0B72F7C.jpeg" width="2880.00" height="1800.00" transform="matrix(0.36, 0.00, -0.00, -0.36, 0.0, 704.0)"></image></g></g><text xml:space="preserve" font-family="HelveticaNeue,Helvetica Neue" font-size="80.0" fill="#FEFFFF" transform="matrix(1.00, 0.00, -0.00, -1.00, 433.4, 633.3)">S</text><text xml:space="preserve" font-family="HelveticaNeue,Helvetica Neue" font-size="80.0" fill="#FEFFFF" transform="matrix(1.00, 0.00, -0.00, -1.00, 485.3, 633.3)">Q</text><text xml:space="preserve" font-family="HelveticaNeue,Helvetica Neue" font-size="80.0" fill="#FEFFFF" transform="matrix(1.00, 0.00, -0.00, -1.00, 546.1, 633.3)">L</text><text xml:space="preserve" font-family="Courier,Courier" font-size="37.0" fill="#FEFFFE" transform="matrix(1.00, 0.00, -0.00, -1.00, 145.1, 446.3)">s</text><text xml:space="preserve" font-family="Courier,Courier" font-size="37.0" fill="#FEFFFE" transform="matrix(1.00, 0.00, -0.00, -1.00, 167.3, 446.3)">e</text><text xml:space="preserve" font-family="Courier,Courier" font-size="37.0" fill="#FEFFFE" transform="matrix(1.00, 0.00, -0.00, -1.00, 189.5, 446.3)">l</text><text xml:space="preserve" font-family="Courier,Courier" font-size="37.0" fill="#FEFFFE" transform="matrix(1.00, 0.00, -0.00, -1.00, 211.8, 446.3)">e</text><text xml:space="preserve" font-family="Courier,Courier" font-size="37.0" fill="#FEFFFE" transform="matrix(1.00, 0.00, -0.00, -1.00, 234.0, 446.3)">c</text><text xml:space="preserve" font-family="Courier,Courier" font-size="37.0" fill="#FEFFFE" transform="matrix(1.00, 0.00, -0.00, -1.00, 256.2, 446.3)">t</text><text xml:space="preserve" font-family="Courier,Courier" font-size="37.0" fill="#FEFFFE" transform="matrix(1.00, 0.00, -0.00, -1.00, 278.4, 446.3)"> </text><text xml:space="preserve" font-family="Courier,Courier" font-size="37.0" fill="#FEFFFE" transform="matrix(1.00, 0.00, -0.00, -1.00, 300.6, 446.3)">*</text><text xml:space="preserve" font-family="Courier,Courier" font-size="37.0" fill="#FEFFFE" transform="matrix(1.00, 0.00, -0.00, -1.00, 322.8, 446.3)"> </text><text xml:space="preserve" font-family="Courier,Courier" font-size="37.0" fill="#FEFFFE" transform="matrix(1.00, 0.00, -0.00, -1.00, 145.1, 386.3)">f</text><text xml:space="preserve" font-family="Courier,Courier" font-size="37.0" fill="#FEFFFE" transform="matrix(1.00, 0.00, -0.00, -1.00, 167.3, 386.3)">r</text><text xml:space="preserve" font-family="Courier,Courier" font-size="37.0" fill="#FEFFFE" transform="matrix(1.00, 0.00, -0.00, -1.00, 189.5, 386.3)">o</text><text xml:space="preserve" font-family="Courier,Courier" font-size="37.0" fill="#FEFFFE" transform="matrix(1.00, 0.00, -0.00, -1.00, 211.8, 386.3)">m</text><text xml:space="preserve" font-family="Courier,Courier" font-size="37.0" fill="#FEFFFE" transform="matrix(1.00, 0.00, -0.00, -1.00, 234.0, 386.3)"> </text><text xml:space="preserve" font-family="Courier,Courier" font-size="37.0" fill="#FEFFFE" transform="matrix(1.00, 0.00, -0.00, -1.00, 256.2, 386.3)">p</text><text xml:space="preserve" font-family="Courier,Courier" font-size="37.0" fill="#FEFFFE" transform="matrix(1.00, 0.00, -0.00, -1.00, 278.4, 386.3)">e</text><text xml:space="preserve" font-family="Courier,Courier" font-size="37.0" fill="#FEFFFE" transform="matrix(1.00, 0.00, -0.00, -1.00, 300.6, 386.3)">o</text><text xml:space="preserve" font-family="Courier,Courier" font-size="37.0" fill="#FEFFFE" transform="matrix(1.00, 0.00, -0.00, -1.00, 322.8, 386.3)">p</text><text xml:space="preserve" font-family="Courier,Courier" font-size="37.0" fill="#FEFFFE" transform="matrix(1.00, 0.00, -0.00, -1.00, 345.0, 386.3)">l</text><text xml:space="preserve" font-family="Courier,Courier" font-size="37.0" fill="#FEFFFE" transform="matrix(1.00, 0.00, -0.00, -1.00, 367.2, 386.3)">e</text><text xml:space="preserve" font-family="Courier,Courier" font-size="37.0" fill="#FEFFFE" transform="matrix(1.00, 0.00, -0.00, -1.00, 389.4, 386.3)"> </text><text xml:space="preserve" font-family="Courier,Courier" font-size="37.0" fill="#FEFFFE" transform="matrix(1.00, 0.00, -0.00, -1.00, 145.1, 326.3)">w</text><text xml:space="preserve" font-family="Courier,Courier" font-size="37.0" fill="#FEFFFE" transform="matrix(1.00, 0.00, -0.00, -1.00, 167.3, 326.3)">h</text><text xml:space="preserve" font-family="Courier,Courier" font-size="37.0" fill="#FEFFFE" transform="matrix(1.00, 0.00, -0.00, -1.00, 189.5, 326.3)">e</text><text xml:space="preserve" font-family="Courier,Courier" font-size="37.0" fill="#FEFFFE" transform="matrix(1.00, 0.00, -0.00, -1.00, 211.8, 326.3)">r</text><text xml:space="preserve" font-family="Courier,Courier" font-size="37.0" fill="#FEFFFE" transform="matrix(1.00, 0.00, -0.00, -1.00, 234.0, 326.3)">e</text><text xml:space="preserve" font-family="Courier,Courier" font-size="37.0" fill="#FEFFFE" transform="matrix(1.00, 0.00, -0.00, -1.00, 256.2, 326.3)"> </text><text xml:space="preserve" font-family="Courier,Courier" font-size="37.0" fill="#FEFFFE" transform="matrix(1.00, 0.00, -0.00, -1.00, 278.4, 326.3)">f</text><text xml:space="preserve" font-family="Courier,Courier" font-size="37.0" fill="#FEFFFE" transform="matrix(1.00, 0.00, -0.00, -1.00, 300.6, 326.3)">a</text><text xml:space="preserve" font-family="Courier,Courier" font-size="37.0" fill="#FEFFFE" transform="matrix(1.00, 0.00, -0.00, -1.00, 322.8, 326.3)">m</text><text xml:space="preserve" font-family="Courier,Courier" font-size="37.0" fill="#FEFFFE" transform="matrix(1.00, 0.00, -0.00, -1.00, 345.0, 326.3)">i</text><text xml:space="preserve" font-family="Courier,Courier" font-size="37.0" fill="#FEFFFE" transform="matrix(1.00, 0.00, -0.00, -1.00, 367.2, 326.3)">l</text><text xml:space="preserve" font-family="Courier,Courier" font-size="37.0" fill="#FEFFFE" transform="matrix(1.00, 0.00, -0.00, -1.00, 389.4, 326.3)">y</text><text xml:space="preserve" font-family="Courier,Courier" font-size="37.0" fill="#FEFFFE" transform="matrix(1.00, 0.00, -0.00, -1.00, 411.6, 326.3)">_</text><text xml:space="preserve" font-family="Courier,Courier" font-size="37.0" fill="#FEFFFE" transform="matrix(1.00, 0.00, -0.00, -1.00, 433.8, 326.3)">n</text><text xml:space="preserve" font-family="Courier,Courier" font-size="37.0" fill="#FEFFFE" transform="matrix(1.00, 0.00, -0.00, -1.00, 456.0, 326.3)">a</text><text xml:space="preserve" font-family="Courier,Courier" font-size="37.0" fill="#FEFFFE" transform="matrix(1.00, 0.00, -0.00, -1.00, 478.2, 326.3)">m</text><text xml:space="preserve" font-family="Courier,Courier" font-size="37.0" fill="#FEFFFE" transform="matrix(1.00, 0.00, -0.00, -1.00, 500.4, 326.3)">e</text><text xml:space="preserve" font-family="Courier,Courier" font-size="37.0" fill="#FEFFFE" transform="matrix(1.00, 0.00, -0.00, -1.00, 522.6, 326.3)"> </text><text xml:space="preserve" font-family="Courier,Courier" font-size="37.0" fill="#FEFFFE" transform="matrix(1.00, 0.00, -0.00, -1.00, 544.8, 326.3)">=</text><text xml:space="preserve" font-family="Courier,Courier" font-size="37.0" fill="#FEFFFE" transform="matrix(1.00, 0.00, -0.00, -1.00, 567.0, 326.3)"> </text><text xml:space="preserve" font-family="Courier,Courier" font-size="37.0" fill="#FEFFFE" transform="matrix(1.00, 0.00, -0.00, -1.00, 589.2, 326.3)">“</text><text xml:space="preserve" font-family="Courier,Courier" font-size="37.0" fill="#FEFFFE" transform="matrix(1.00, 0.00, -0.00, -1.00, 611.4, 326.3)">M</text><text xml:space="preserve" font-family="Courier,Courier" font-size="37.0" fill="#FEFFFE" transform="matrix(1.00, 0.00, -0.00, -1.00, 633.6, 326.3)">A</text><text xml:space="preserve" font-family="Courier,Courier" font-size="37.0" fill="#FEFFFE" transform="matrix(1.00, 0.00, -0.00, -1.00, 655.8, 326.3)">C</text><text xml:space="preserve" font-family="Courier,Courier" font-size="37.0" fill="#FEFFFE" transform="matrix(1.00, 0.00, -0.00, -1.00, 678.0, 326.3)">H</text><text xml:space="preserve" font-family="Courier,Courier" font-size="37.0" fill="#FEFFFE" transform="matrix(1.00, 0.00, -0.00, -1.00, 700.2, 326.3)">I</text><text xml:space="preserve" font-family="Courier,Courier" font-size="37.0" fill="#FEFFFE" transform="matrix(1.00, 0.00, -0.00, -1.00, 722.4, 326.3)">A</text><text xml:space="preserve" font-family="Courier,Courier" font-size="37.0" fill="#FEFFFE" transform="matrix(1.00, 0.00, -0.00, -1.00, 744.6, 326.3)">V</text><text xml:space="preserve" font-family="Courier,Courier" font-size="37.0" fill="#FEFFFE" transform="matrix(1.00, 0.00, -0.00, -1.00, 766.9, 326.3)">E</text><text xml:space="preserve" font-family="Courier,Courier" font-size="37.0" fill="#FEFFFE" transform="matrix(1.00, 0.00, -0.00, -1.00, 789.1, 326.3)">L</text><text xml:space="preserve" font-family="Courier,Courier" font-size="37.0" fill="#FEFFFE" transform="matrix(1.00, 0.00, -0.00, -1.00, 811.3, 326.3)">L</text><text xml:space="preserve" font-family="Courier,Courier" font-size="37.0" fill="#FEFFFE" transform="matrix(1.00, 0.00, -0.00, -1.00, 833.5, 326.3)">I</text><text xml:space="preserve" font-family="Courier,Courier" font-size="37.0" fill="#FEFFFE" transform="matrix(1.00, 0.00, -0.00, -1.00, 855.7, 326.3)">”</text></g></svg>