<?xml version="1.0" encoding="UTF-8" standalone="no"?><svg xmlns="http://www.w3.org/2000/svg" xmlns:xlink="http://www.w3.org/1999/xlink" clip-rule="evenodd" stroke-miterlimit="10" viewBox="0 0 1024 768"><desc>SVG generated by Keynote</desc><defs></defs><g transform="matrix(1.00, 0.00, -0.00, -1.00, 0.0, 768.0)"><g><clipPath id="clip0x600000ebea80"><path d="M 0.0 768.0 L 1024.0 768.0 L 1024.0 0.0 L 0.0 0.0 Z M 0.0 768.0 "></path></clipPath><g clip-path="url(#clip0x600000ebea80)"><image xlink:href="../../69E4C2E2-6185-4F29-93A3-A8243C0B68C4/assets/B4C0A52AB44535D77F6859A7B0B72F7C.jpeg" width="2880.00" height="1800.00" transform="matrix(0.36, 0.00, -0.00, -0.36, 0.0, 704.0)"></image></g></g><text xml:space="preserve" font-family="HelveticaNeue,Helvetica Neue" font-size="68.0" fill="#FEFFFF" transform="matrix(1.00, 0.00, -0.00, -1.00, 271.4, 678.4)">C</text><text xml:space="preserve" font-family="HelveticaNeue,Helvetica Neue" font-size="68.0" fill="#FEFFFF" transform="matrix(1.00, 0.00, -0.00, -1.00, 320.5, 678.4)">o</text><text xml:space="preserve" font-family="HelveticaNeue,Helvetica Neue" font-size="68.0" fill="#FEFFFF" transform="matrix(1.00, 0.00, -0.00, -1.00, 359.6, 678.4)">n</text><text xml:space="preserve" font-family="HelveticaNeue,Helvetica Neue" font-size="68.0" fill="#FEFFFF" transform="matrix(1.00, 0.00, -0.00, -1.00, 397.4, 678.4)">s</text><text xml:space="preserve" font-family="HelveticaNeue,Helvetica Neue" font-size="68.0" fill="#FEFFFF" transform="matrix(1.00, 0.00, -0.00, -1.00, 431.4, 678.4)">o</text><text xml:space="preserve" font-family="HelveticaNeue,Helvetica Neue" font-size="68.0" fill="#FEFFFF" transform="matrix(1.00, 0.00, -0.00, -1.00, 470.4, 678.4)">l</text><text xml:space="preserve" font-family="HelveticaNeue,Helvetica Neue" font-size="68.0" fill="#FEFFFF" transform="matrix(1.00, 0.00, -0.00, -1.00, 485.5, 678.4)">i</text><text xml:space="preserve" font-family="HelveticaNeue,Helvetica Neue" font-size="68.0" fill="#FEFFFF" transform="matrix(1.00, 0.00, -0.00, -1.00, 500.6, 678.4)">d</text><text xml:space="preserve" font-family="HelveticaNeue,Helvetica Neue" font-size="68.0" fill="#FEFFFF" transform="matrix(1.00, 0.00, -0.00, -1.00, 540.9, 678.4)">a</text><text xml:space="preserve" font-family="HelveticaNeue,Helvetica Neue" font-size="68.0" fill="#FEFFFF" transform="matrix(1.00, 0.00, -0.00, -1.00, 577.5, 678.4)">t</text><text xml:space="preserve" font-family="HelveticaNeue,Helvetica Neue" font-size="68.0" fill="#FEFFFF" transform="matrix(1.00, 0.00, -0.00, -1.00, 598.9, 678.4)">i</text><text xml:space="preserve" font-family="HelveticaNeue,Helvetica Neue" font-size="68.0" fill="#FEFFFF" transform="matrix(1.00, 0.00, -0.00, -1.00, 614.0, 678.4)">o</text><text xml:space="preserve" font-family="HelveticaNeue,Helvetica Neue" font-size="68.0" fill="#FEFFFF" transform="matrix(1.00, 0.00, -0.00, -1.00, 653.0, 678.4)">n</text><text xml:space="preserve" font-family="HelveticaNeue,Helvetica Neue" font-size="68.0" fill="#FEFFFF" transform="matrix(1.00, 0.00, -0.00, -1.00, 690.8, 678.4)"> </text><text xml:space="preserve" font-family="HelveticaNeue,Helvetica Neue" font-size="68.0" fill="#FEFFFF" transform="matrix(1.00, 0.00, -0.00, -1.00, 709.7, 678.4)">&amp;</text><text xml:space="preserve" font-family="HelveticaNeue,Helvetica Neue" font-size="68.0" fill="#FEFFFF" transform="matrix(1.00, 0.00, -0.00, -1.00, 752.5, 678.4)"> </text><text xml:space="preserve" font-family="HelveticaNeue,Helvetica Neue" font-size="68.0" fill="#FEFFFF" transform="matrix(1.00, 0.00, -0.00, -1.00, 318.7, 597.4)">p</text><text xml:space="preserve" font-family="HelveticaNeue,Helvetica Neue" font-size="68.0" fill="#FEFFFF" transform="matrix(1.00, 0.00, -0.00, -1.00, 359.0, 597.4)">e</text><text xml:space="preserve" font-family="HelveticaNeue,Helvetica Neue" font-size="68.0" fill="#FEFFFF" transform="matrix(1.00, 0.00, -0.00, -1.00, 395.5, 597.4)">r</text><text xml:space="preserve" font-family="HelveticaNeue,Helvetica Neue" font-size="68.0" fill="#FEFFFF" transform="matrix(1.00, 0.00, -0.00, -1.00, 418.2, 597.4)">f</text><text xml:space="preserve" font-family="HelveticaNeue,Helvetica Neue" font-size="68.0" fill="#FEFFFF" transform="matrix(1.00, 0.00, -0.00, -1.00, 438.3, 597.4)">o</text><text xml:space="preserve" font-family="HelveticaNeue,Helvetica Neue" font-size="68.0" fill="#FEFFFF" transform="matrix(1.00, 0.00, -0.00, -1.00, 477.3, 597.4)">r</text><text xml:space="preserve" font-family="HelveticaNeue,Helvetica Neue" font-size="68.0" fill="#FEFFFF" transform="matrix(1.00, 0.00, -0.00, -1.00, 500.0, 597.4)">m</text><text xml:space="preserve" font-family="HelveticaNeue,Helvetica Neue" font-size="68.0" fill="#FEFFFF" transform="matrix(1.00, 0.00, -0.00, -1.00, 558.0, 597.4)">a</text><text xml:space="preserve" font-family="HelveticaNeue,Helvetica Neue" font-size="68.0" fill="#FEFFFF" transform="matrix(1.00, 0.00, -0.00, -1.00, 594.5, 597.4)">n</text><text xml:space="preserve" font-family="HelveticaNeue,Helvetica Neue" font-size="68.0" fill="#FEFFFF" transform="matrix(1.00, 0.00, -0.00, -1.00, 632.3, 597.4)">c</text><text xml:space="preserve" font-family="HelveticaNeue,Helvetica Neue" font-size="68.0" fill="#FEFFFF" transform="matrix(1.00, 0.00, -0.00, -1.00, 668.8, 597.4)">e</text><g><g><clipPath id="clip0x600000ebf620"><path d="M 99.5 550.5 L 924.5 550.5 L 924.5 99.5 L 99.5 99.5 Z M 99.5 550.5 "></path></clipPath><g clip-path="url(#clip0x600000ebf620)"><g><clipPath id="clip0x600000ebf7a0"><path d="M 100.5 486.2 L 511.5 486.2 L 511.5 549.5 L 100.5 549.5 Z M 100.5 486.2 "></path></clipPath><g clip-path="url(#clip0x600000ebf7a0)"><text xml:space="preserve" font-family="Helvetica-Bold,Helvetica" font-weight="bold" font-size="28.0" fill="#FEFFFE" transform="matrix(1.00, 0.00, -0.00, -1.00, 274.9, 506.9)">1</text><text xml:space="preserve" font-family="Helvetica-Bold,Helvetica" font-weight="bold" font-size="28.0" fill="#FEFFFE" transform="matrix(1.00, 0.00, -0.00, -1.00, 290.4, 506.9)">9</text><text xml:space="preserve" font-family="Helvetica-Bold,Helvetica" font-weight="bold" font-size="28.0" fill="#FEFFFE" transform="matrix(1.00, 0.00, -0.00, -1.00, 306.0, 506.9)">8</text><text xml:space="preserve" font-family="Helvetica-Bold,Helvetica" font-weight="bold" font-size="28.0" fill="#FEFFFE" transform="matrix(1.00, 0.00, -0.00, -1.00, 321.6, 506.9)">0</text></g></g></g></g><g><clipPath id="clip0x600000ebfb00"><path d="M 99.5 550.5 L 924.5 550.5 L 924.5 99.5 L 99.5 99.5 Z M 99.5 550.5 "></path></clipPath><g clip-path="url(#clip0x600000ebfb00)"><g><clipPath id="clip0x600000ebfc80"><path d="M 512.5 486.2 L 923.5 486.2 L 923.5 549.5 L 512.5 549.5 Z M 512.5 486.2 "></path></clipPath><g clip-path="url(#clip0x600000ebfc80)"><text xml:space="preserve" font-family="Helvetica-Bold,Helvetica" font-weight="bold" font-size="28.0" fill="#FEFFFE" transform="matrix(1.00, 0.00, -0.00, -1.00, 691.5, 506.9)">C</text><text xml:space="preserve" font-family="Helvetica-Bold,Helvetica" font-weight="bold" font-size="28.0" fill="#FEFFFE" transform="matrix(1.00, 0.00, -0.00, -1.00, 711.8, 506.9)">+</text><text xml:space="preserve" font-family="Helvetica-Bold,Helvetica" font-weight="bold" font-size="28.0" fill="#FEFFFE" transform="matrix(1.00, 0.00, -0.00, -1.00, 728.1, 506.9)">+</text></g></g></g></g><g><clipPath id="clip0x600000ebff80"><path d="M 99.5 550.5 L 924.5 550.5 L 924.5 99.5 L 99.5 99.5 Z M 99.5 550.5 "></path></clipPath><g clip-path="url(#clip0x600000ebff80)"><g><clipPath id="clip0x6000010a0120"><path d="M 100.5 421.9 L 511.5 421.9 L 511.5 485.2 L 100.5 485.2 Z M 100.5 421.9 "></path></clipPath><g clip-path="url(#clip0x6000010a0120)"><text xml:space="preserve" font-family="Helvetica-Bold,Helvetica" font-weight="bold" font-size="28.0" fill="#FEFFFE" transform="matrix(1.00, 0.00, -0.00, -1.00, 274.9, 442.7)">1</text><text xml:space="preserve" font-family="Helvetica-Bold,Helvetica" font-weight="bold" font-size="28.0" fill="#FEFFFE" transform="matrix(1.00, 0.00, -0.00, -1.00, 290.4, 442.7)">9</text><text xml:space="preserve" font-family="Helvetica-Bold,Helvetica" font-weight="bold" font-size="28.0" fill="#FEFFFE" transform="matrix(1.00, 0.00, -0.00, -1.00, 306.0, 442.7)">8</text><text xml:space="preserve" font-family="Helvetica-Bold,Helvetica" font-weight="bold" font-size="28.0" fill="#FEFFFE" transform="matrix(1.00, 0.00, -0.00, -1.00, 321.6, 442.7)">4</text></g></g></g></g><g><clipPath id="clip0x6000010a0480"><path d="M 99.5 550.5 L 924.5 550.5 L 924.5 99.5 L 99.5 99.5 Z M 99.5 550.5 "></path></clipPath><g clip-path="url(#clip0x6000010a0480)"><g><clipPath id="clip0x6000010a0600"><path d="M 512.5 421.9 L 923.5 421.9 L 923.5 485.2 L 512.5 485.2 Z M 512.5 421.9 "></path></clipPath><g clip-path="url(#clip0x6000010a0600)"><text xml:space="preserve" font-family="Helvetica-Bold,Helvetica" font-weight="bold" font-size="28.0" fill="#FEFFFE" transform="matrix(1.00, 0.00, -0.00, -1.00, 659.9, 442.7)">M</text><text xml:space="preserve" font-family="Helvetica-Bold,Helvetica" font-weight="bold" font-size="28.0" fill="#FEFFFE" transform="matrix(1.00, 0.00, -0.00, -1.00, 683.3, 442.7)">A</text><text xml:space="preserve" font-family="Helvetica-Bold,Helvetica" font-weight="bold" font-size="28.0" fill="#FEFFFE" transform="matrix(1.00, 0.00, -0.00, -1.00, 701.4, 442.7)">T</text><text xml:space="preserve" font-family="Helvetica-Bold,Helvetica" font-weight="bold" font-size="28.0" fill="#FEFFFE" transform="matrix(1.00, 0.00, -0.00, -1.00, 718.5, 442.7)">L</text><text xml:space="preserve" font-family="Helvetica-Bold,Helvetica" font-weight="bold" font-size="28.0" fill="#FEFFFE" transform="matrix(1.00, 0.00, -0.00, -1.00, 735.6, 442.7)">A</text><text xml:space="preserve" font-family="Helvetica-Bold,Helvetica" font-weight="bold" font-size="28.0" fill="#FEFFFE" transform="matrix(1.00, 0.00, -0.00, -1.00, 755.8, 442.7)">B</text></g></g></g></g><g><clipPath id="clip0x6000010a0a20"><path d="M 99.5 550.5 L 924.5 550.5 L 924.5 99.5 L 99.5 99.5 Z M 99.5 550.5 "></path></clipPath><g clip-path="url(#clip0x6000010a0a20)"><g><clipPath id="clip0x6000010a0ba0"><path d="M 100.5 357.6 L 511.5 357.6 L 511.5 420.9 L 100.5 420.9 Z M 100.5 357.6 "></path></clipPath><g clip-path="url(#clip0x6000010a0ba0)"><text xml:space="preserve" font-family="Helvetica-Bold,Helvetica" font-weight="bold" font-size="28.0" fill="#FEFFFE" transform="matrix(1.00, 0.00, -0.00, -1.00, 274.9, 378.4)">1</text><text xml:space="preserve" font-family="Helvetica-Bold,Helvetica" font-weight="bold" font-size="28.0" fill="#FEFFFE" transform="matrix(1.00, 0.00, -0.00, -1.00, 290.4, 378.4)">9</text><text xml:space="preserve" font-family="Helvetica-Bold,Helvetica" font-weight="bold" font-size="28.0" fill="#FEFFFE" transform="matrix(1.00, 0.00, -0.00, -1.00, 306.0, 378.4)">8</text><text xml:space="preserve" font-family="Helvetica-Bold,Helvetica" font-weight="bold" font-size="28.0" fill="#FEFFFE" transform="matrix(1.00, 0.00, -0.00, -1.00, 321.6, 378.4)">6</text></g></g></g></g><g><clipPath id="clip0x6000010a0f00"><path d="M 99.5 550.5 L 924.5 550.5 L 924.5 99.5 L 99.5 99.5 Z M 99.5 550.5 "></path></clipPath><g clip-path="url(#clip0x6000010a0f00)"><g><clipPath id="clip0x6000010a1080"><path d="M 512.5 357.6 L 923.5 357.6 L 923.5 420.9 L 512.5 420.9 Z M 512.5 357.6 "></path></clipPath><g clip-path="url(#clip0x6000010a1080)"><text xml:space="preserve" font-family="Helvetica-Bold,Helvetica" font-weight="bold" font-size="28.0" fill="#FEFFFE" transform="matrix(1.00, 0.00, -0.00, -1.00, 640.2, 378.4)">O</text><text xml:space="preserve" font-family="Helvetica-Bold,Helvetica" font-weight="bold" font-size="28.0" fill="#FEFFFE" transform="matrix(1.00, 0.00, -0.00, -1.00, 662.0, 378.4)">b</text><text xml:space="preserve" font-family="Helvetica-Bold,Helvetica" font-weight="bold" font-size="28.0" fill="#FEFFFE" transform="matrix(1.00, 0.00, -0.00, -1.00, 679.1, 378.4)">j</text><text xml:space="preserve" font-family="Helvetica-Bold,Helvetica" font-weight="bold" font-size="28.0" fill="#FEFFFE" transform="matrix(1.00, 0.00, -0.00, -1.00, 686.8, 378.4)">e</text><text xml:space="preserve" font-family="Helvetica-Bold,Helvetica" font-weight="bold" font-size="28.0" fill="#FEFFFE" transform="matrix(1.00, 0.00, -0.00, -1.00, 702.4, 378.4)">c</text><text xml:space="preserve" font-family="Helvetica-Bold,Helvetica" font-weight="bold" font-size="28.0" fill="#FEFFFE" transform="matrix(1.00, 0.00, -0.00, -1.00, 718.0, 378.4)">t</text><text xml:space="preserve" font-family="Helvetica-Bold,Helvetica" font-weight="bold" font-size="28.0" fill="#FEFFFE" transform="matrix(1.00, 0.00, -0.00, -1.00, 727.3, 378.4)">i</text><text xml:space="preserve" font-family="Helvetica-Bold,Helvetica" font-weight="bold" font-size="28.0" fill="#FEFFFE" transform="matrix(1.00, 0.00, -0.00, -1.00, 735.1, 378.4)">v</text><text xml:space="preserve" font-family="Helvetica-Bold,Helvetica" font-weight="bold" font-size="28.0" fill="#FEFFFE" transform="matrix(1.00, 0.00, -0.00, -1.00, 750.7, 378.4)">e</text><text xml:space="preserve" font-family="Helvetica-Bold,Helvetica" font-weight="bold" font-size="28.0" fill="#FEFFFE" transform="matrix(1.00, 0.00, -0.00, -1.00, 766.3, 378.4)">-</text><text xml:space="preserve" font-family="Helvetica-Bold,Helvetica" font-weight="bold" font-size="28.0" fill="#FEFFFE" transform="matrix(1.00, 0.00, -0.00, -1.00, 775.6, 378.4)">C</text></g></g></g></g><g><clipPath id="clip0x6000010a1680"><path d="M 99.5 550.5 L 924.5 550.5 L 924.5 99.5 L 99.5 99.5 Z M 99.5 550.5 "></path></clipPath><g clip-path="url(#clip0x6000010a1680)"><g><clipPath id="clip0x6000010a1800"><path d="M 100.5 293.4 L 511.5 293.4 L 511.5 356.6 L 100.5 356.6 Z M 100.5 293.4 "></path></clipPath><g clip-path="url(#clip0x6000010a1800)"><text xml:space="preserve" font-family="Helvetica-Bold,Helvetica" font-weight="bold" font-size="28.0" fill="#FEFFFE" transform="matrix(1.00, 0.00, -0.00, -1.00, 274.9, 314.1)">1</text><text xml:space="preserve" font-family="Helvetica-Bold,Helvetica" font-weight="bold" font-size="28.0" fill="#FEFFFE" transform="matrix(1.00, 0.00, -0.00, -1.00, 290.4, 314.1)">9</text><text xml:space="preserve" font-family="Helvetica-Bold,Helvetica" font-weight="bold" font-size="28.0" fill="#FEFFFE" transform="matrix(1.00, 0.00, -0.00, -1.00, 306.0, 314.1)">8</text><text xml:space="preserve" font-family="Helvetica-Bold,Helvetica" font-weight="bold" font-size="28.0" fill="#FEFFFE" transform="matrix(1.00, 0.00, -0.00, -1.00, 321.6, 314.1)">6</text></g></g></g></g><g><clipPath id="clip0x6000010a1b60"><path d="M 99.5 550.5 L 924.5 550.5 L 924.5 99.5 L 99.5 99.5 Z M 99.5 550.5 "></path></clipPath><g clip-path="url(#clip0x6000010a1b60)"><g><clipPath id="clip0x6000010a1ce0"><path d="M 512.5 293.4 L 923.5 293.4 L 923.5 356.6 L 512.5 356.6 Z M 512.5 293.4 "></path></clipPath><g clip-path="url(#clip0x6000010a1ce0)"><text xml:space="preserve" font-family="Helvetica-Bold,Helvetica" font-weight="bold" font-size="28.0" fill="#FEFFFE" transform="matrix(1.00, 0.00, -0.00, -1.00, 674.4, 314.1)">E</text><text xml:space="preserve" font-family="Helvetica-Bold,Helvetica" font-weight="bold" font-size="28.0" fill="#FEFFFE" transform="matrix(1.00, 0.00, -0.00, -1.00, 693.1, 314.1)">r</text><text xml:space="preserve" font-family="Helvetica-Bold,Helvetica" font-weight="bold" font-size="28.0" fill="#FEFFFE" transform="matrix(1.00, 0.00, -0.00, -1.00, 704.0, 314.1)">l</text><text xml:space="preserve" font-family="Helvetica-Bold,Helvetica" font-weight="bold" font-size="28.0" fill="#FEFFFE" transform="matrix(1.00, 0.00, -0.00, -1.00, 711.8, 314.1)">a</text><text xml:space="preserve" font-family="Helvetica-Bold,Helvetica" font-weight="bold" font-size="28.0" fill="#FEFFFE" transform="matrix(1.00, 0.00, -0.00, -1.00, 727.4, 314.1)">n</text><text xml:space="preserve" font-family="Helvetica-Bold,Helvetica" font-weight="bold" font-size="28.0" fill="#FEFFFE" transform="matrix(1.00, 0.00, -0.00, -1.00, 744.5, 314.1)">g</text></g></g></g></g><g><clipPath id="clip0x6000010a2100"><path d="M 99.5 550.5 L 924.5 550.5 L 924.5 99.5 L 99.5 99.5 Z M 99.5 550.5 "></path></clipPath><g clip-path="url(#clip0x6000010a2100)"><g><clipPath id="clip0x6000010a2280"><path d="M 100.5 229.1 L 511.5 229.1 L 511.5 292.4 L 100.5 292.4 Z M 100.5 229.1 "></path></clipPath><g clip-path="url(#clip0x6000010a2280)"><text xml:space="preserve" font-family="Helvetica-Bold,Helvetica" font-weight="bold" font-size="28.0" fill="#FEFFFE" transform="matrix(1.00, 0.00, -0.00, -1.00, 274.9, 249.8)">1</text><text xml:space="preserve" font-family="Helvetica-Bold,Helvetica" font-weight="bold" font-size="28.0" fill="#FEFFFE" transform="matrix(1.00, 0.00, -0.00, -1.00, 290.4, 249.8)">9</text><text xml:space="preserve" font-family="Helvetica-Bold,Helvetica" font-weight="bold" font-size="28.0" fill="#FEFFFE" transform="matrix(1.00, 0.00, -0.00, -1.00, 306.0, 249.8)">8</text><text xml:space="preserve" font-family="Helvetica-Bold,Helvetica" font-weight="bold" font-size="28.0" fill="#FEFFFE" transform="matrix(1.00, 0.00, -0.00, -1.00, 321.6, 249.8)">7</text></g></g></g></g><g><clipPath id="clip0x6000010a25e0"><path d="M 99.5 550.5 L 924.5 550.5 L 924.5 99.5 L 99.5 99.5 Z M 99.5 550.5 "></path></clipPath><g clip-path="url(#clip0x6000010a25e0)"><g><clipPath id="clip0x6000010a2760"><path d="M 512.5 229.1 L 923.5 229.1 L 923.5 292.4 L 512.5 292.4 Z M 512.5 229.1 "></path></clipPath><g clip-path="url(#clip0x6000010a2760)"><text xml:space="preserve" font-family="Helvetica-Bold,Helvetica" font-weight="bold" font-size="28.0" fill="#FEFFFE" transform="matrix(1.00, 0.00, -0.00, -1.00, 691.5, 249.8)">P</text><text xml:space="preserve" font-family="Helvetica-Bold,Helvetica" font-weight="bold" font-size="28.0" fill="#FEFFFE" transform="matrix(1.00, 0.00, -0.00, -1.00, 710.2, 249.8)">e</text><text xml:space="preserve" font-family="Helvetica-Bold,Helvetica" font-weight="bold" font-size="28.0" fill="#FEFFFE" transform="matrix(1.00, 0.00, -0.00, -1.00, 725.8, 249.8)">r</text><text xml:space="preserve" font-family="Helvetica-Bold,Helvetica" font-weight="bold" font-size="28.0" fill="#FEFFFE" transform="matrix(1.00, 0.00, -0.00, -1.00, 736.7, 249.8)">l</text></g></g></g></g><g><clipPath id="clip0x6000010a2ac0"><path d="M 99.5 550.5 L 924.5 550.5 L 924.5 99.5 L 99.5 99.5 Z M 99.5 550.5 "></path></clipPath><g clip-path="url(#clip0x6000010a2ac0)"><g><clipPath id="clip0x6000010a2c40"><path d="M 100.5 164.8 L 511.5 164.8 L 511.5 228.1 L 100.5 228.1 Z M 100.5 164.8 "></path></clipPath><g clip-path="url(#clip0x6000010a2c40)"><text xml:space="preserve" font-family="Helvetica-Bold,Helvetica" font-weight="bold" font-size="28.0" fill="#FEFFFE" transform="matrix(1.00, 0.00, -0.00, -1.00, 274.9, 185.5)">1</text><text xml:space="preserve" font-family="Helvetica-Bold,Helvetica" font-weight="bold" font-size="28.0" fill="#FEFFFE" transform="matrix(1.00, 0.00, -0.00, -1.00, 290.4, 185.5)">9</text><text xml:space="preserve" font-family="Helvetica-Bold,Helvetica" font-weight="bold" font-size="28.0" fill="#FEFFFE" transform="matrix(1.00, 0.00, -0.00, -1.00, 306.0, 185.5)">8</text><text xml:space="preserve" font-family="Helvetica-Bold,Helvetica" font-weight="bold" font-size="28.0" fill="#FEFFFE" transform="matrix(1.00, 0.00, -0.00, -1.00, 321.6, 185.5)">8</text></g></g></g></g><g><clipPath id="clip0x6000010a2fa0"><path d="M 99.5 550.5 L 924.5 550.5 L 924.5 99.5 L 99.5 99.5 Z M 99.5 550.5 "></path></clipPath><g clip-path="url(#clip0x6000010a2fa0)"><g><clipPath id="clip0x6000010a3120"><path d="M 512.5 164.8 L 923.5 164.8 L 923.5 228.1 L 512.5 228.1 Z M 512.5 164.8 "></path></clipPath><g clip-path="url(#clip0x6000010a3120)"><text xml:space="preserve" font-family="Helvetica-Bold,Helvetica" font-weight="bold" font-size="28.0" fill="#FEFFFE" transform="matrix(1.00, 0.00, -0.00, -1.00, 698.8, 185.5)">T</text><text xml:space="preserve" font-family="Helvetica-Bold,Helvetica" font-weight="bold" font-size="28.0" fill="#FEFFFE" transform="matrix(1.00, 0.00, -0.00, -1.00, 713.8, 185.5)">c</text><text xml:space="preserve" font-family="Helvetica-Bold,Helvetica" font-weight="bold" font-size="28.0" fill="#FEFFFE" transform="matrix(1.00, 0.00, -0.00, -1.00, 729.4, 185.5)">l</text></g></g></g></g><g><clipPath id="clip0x6000010a3420"><path d="M 99.5 550.5 L 924.5 550.5 L 924.5 99.5 L 99.5 99.5 Z M 99.5 550.5 "></path></clipPath><g clip-path="url(#clip0x6000010a3420)"><g><clipPath id="clip0x6000010a35a0"><path d="M 100.5 100.5 L 511.5 100.5 L 511.5 163.8 L 100.5 163.8 Z M 100.5 100.5 "></path></clipPath><g clip-path="url(#clip0x6000010a35a0)"><text xml:space="preserve" font-family="Helvetica-Bold,Helvetica" font-weight="bold" font-size="28.0" fill="#FEFFFE" transform="matrix(1.00, 0.00, -0.00, -1.00, 274.9, 121.2)">1</text><text xml:space="preserve" font-family="Helvetica-Bold,Helvetica" font-weight="bold" font-size="28.0" fill="#FEFFFE" transform="matrix(1.00, 0.00, -0.00, -1.00, 290.4, 121.2)">9</text><text xml:space="preserve" font-family="Helvetica-Bold,Helvetica" font-weight="bold" font-size="28.0" fill="#FEFFFE" transform="matrix(1.00, 0.00, -0.00, -1.00, 306.0, 121.2)">8</text><text xml:space="preserve" font-family="Helvetica-Bold,Helvetica" font-weight="bold" font-size="28.0" fill="#FEFFFE" transform="matrix(1.00, 0.00, -0.00, -1.00, 321.6, 121.2)">8</text></g></g></g></g><g><clipPath id="clip0x6000010a3900"><path d="M 99.5 550.5 L 924.5 550.5 L 924.5 99.5 L 99.5 99.5 Z M 99.5 550.5 "></path></clipPath><g clip-path="url(#clip0x6000010a3900)"><g><clipPath id="clip0x6000010a3a80"><path d="M 512.5 100.5 L 923.5 100.5 L 923.5 163.8 L 512.5 163.8 Z M 512.5 100.5 "></path></clipPath><g clip-path="url(#clip0x6000010a3a80)"><text xml:space="preserve" font-family="Helvetica-Bold,Helvetica" font-weight="bold" font-size="28.0" fill="#FEFFFE" transform="matrix(1.00, 0.00, -0.00, -1.00, 633.2, 121.2)">M</text><text xml:space="preserve" font-family="Helvetica-Bold,Helvetica" font-weight="bold" font-size="28.0" fill="#FEFFFE" transform="matrix(1.00, 0.00, -0.00, -1.00, 656.5, 121.2)">a</text><text xml:space="preserve" font-family="Helvetica-Bold,Helvetica" font-weight="bold" font-size="28.0" fill="#FEFFFE" transform="matrix(1.00, 0.00, -0.00, -1.00, 672.1, 121.2)">t</text><text xml:space="preserve" font-family="Helvetica-Bold,Helvetica" font-weight="bold" font-size="28.0" fill="#FEFFFE" transform="matrix(1.00, 0.00, -0.00, -1.00, 681.4, 121.2)">h</text><text xml:space="preserve" font-family="Helvetica-Bold,Helvetica" font-weight="bold" font-size="28.0" fill="#FEFFFE" transform="matrix(1.00, 0.00, -0.00, -1.00, 698.5, 121.2)">e</text><text xml:space="preserve" font-family="Helvetica-Bold,Helvetica" font-weight="bold" font-size="28.0" fill="#FEFFFE" transform="matrix(1.00, 0.00, -0.00, -1.00, 714.1, 121.2)">m</text><text xml:space="preserve" font-family="Helvetica-Bold,Helvetica" font-weight="bold" font-size="28.0" fill="#FEFFFE" transform="matrix(1.00, 0.00, -0.00, -1.00, 739.0, 121.2)">a</text><text xml:space="preserve" font-family="Helvetica-Bold,Helvetica" font-weight="bold" font-size="28.0" fill="#FEFFFE" transform="matrix(1.00, 0.00, -0.00, -1.00, 754.6, 121.2)">t</text><text xml:space="preserve" font-family="Helvetica-Bold,Helvetica" font-weight="bold" font-size="28.0" fill="#FEFFFE" transform="matrix(1.00, 0.00, -0.00, -1.00, 763.9, 121.2)">i</text><text xml:space="preserve" font-family="Helvetica-Bold,Helvetica" font-weight="bold" font-size="28.0" fill="#FEFFFE" transform="matrix(1.00, 0.00, -0.00, -1.00, 771.7, 121.2)">c</text><text xml:space="preserve" font-family="Helvetica-Bold,Helvetica" font-weight="bold" font-size="28.0" fill="#FEFFFE" transform="matrix(1.00, 0.00, -0.00, -1.00, 787.3, 121.2)">a</text></g></g></g></g><g><clipPath id="clip0x6000010a4080"><path d="M 99.5 550.5 L 924.5 550.5 L 924.5 99.5 L 99.5 99.5 Z M 99.5 550.5 "></path></clipPath><g clip-path="url(#clip0x6000010a4080)"><g><clipPath id="clip0x6000010a4200"><path d="M 0.0 0.0 L 1024.0 0.0 L 1024.0 768.0 L 0.0 768.0 Z M 0.0 0.0 "></path></clipPath><g clip-path="url(#clip0x6000010a4200)"><path d="M 414.0 1.5 L 414.0 452.5 " fill="none" stroke="#D6D6D6" stroke-width="1.00" transform="matrix(1.00, 0.00, 0.00, -1.00, 98.0, 552.0)"></path><path d="M 1.5 66.3 L 826.5 66.3 " fill="none" stroke="#D6D6D6" stroke-width="1.00" transform="matrix(1.00, 0.00, 0.00, -1.00, 98.0, 552.0)"></path><path d="M 1.5 130.6 L 826.5 130.6 " fill="none" stroke="#D6D6D6" stroke-width="1.00" transform="matrix(1.00, 0.00, 0.00, -1.00, 98.0, 552.0)"></path><path d="M 1.5 194.9 L 826.5 194.9 " fill="none" stroke="#D6D6D6" stroke-width="1.00" transform="matrix(1.00, 0.00, 0.00, -1.00, 98.0, 552.0)"></path><path d="M 1.5 259.1 L 826.5 259.1 " fill="none" stroke="#D6D6D6" stroke-width="1.00" transform="matrix(1.00, 0.00, 0.00, -1.00, 98.0, 552.0)"></path><path d="M 1.5 323.4 L 826.5 323.4 " fill="none" stroke="#D6D6D6" stroke-width="1.00" transform="matrix(1.00, 0.00, 0.00, -1.00, 98.0, 552.0)"></path><path d="M 1.5 387.7 L 826.5 387.7 " fill="none" stroke="#D6D6D6" stroke-width="1.00" transform="matrix(1.00, 0.00, 0.00, -1.00, 98.0, 552.0)"></path><path d="M 2.0 1.5 L 2.0 452.5 " fill="none" stroke="#D5D5D5" stroke-width="1.00" transform="matrix(1.00, 0.00, 0.00, -1.00, 98.0, 552.0)"></path><path d="M 826.0 1.5 L 826.0 452.5 " fill="none" stroke="#D5D5D5" stroke-width="1.00" transform="matrix(1.00, 0.00, 0.00, -1.00, 98.0, 552.0)"></path><path d="M 1.5 2.0 L 826.5 2.0 " fill="none" stroke="#D5D5D5" stroke-width="1.00" transform="matrix(1.00, 0.00, 0.00, -1.00, 98.0, 552.0)"></path><path d="M 1.5 452.0 L 826.5 452.0 " fill="none" stroke="#D5D5D5" stroke-width="1.00" transform="matrix(1.00, 0.00, 0.00, -1.00, 98.0, 552.0)"></path></g></g></g></g></g></g></svg>