<?xml version="1.0" encoding="UTF-8" standalone="no"?><svg xmlns="http://www.w3.org/2000/svg" xmlns:xlink="http://www.w3.org/1999/xlink" clip-rule="evenodd" stroke-miterlimit="10" viewBox="0 0 1024 768"><desc>SVG generated by Keynote</desc><defs><pattern id="patternP1" patternUnits="userSpaceOnUse" width="256" height="256" viewBox="0 0 256 256"><image xlink:href="../../A2CA0713-C06F-4EC2-A124-1675AEB76A1E/assets/8E13FF0D2A86B705C84DE77C8D855D85.png" width="256.00" height="256.00"></image></pattern></defs><g transform="matrix(1.00, 0.00, -0.00, -1.00, 0.0, 768.0)"><g><clipPath id="clip0x6080008ac9c0"><path d="M 0.0 768.0 L 1024.0 768.0 L 1024.0 0.0 L 0.0 0.0 Z M 0.0 768.0 "></path></clipPath><g clip-path="url(#clip0x6080008ac9c0)"><image xlink:href="../../69E4C2E2-6185-4F29-93A3-A8243C0B68C4/assets/B4C0A52AB44535D77F6859A7B0B72F7C.jpeg" width="2880.00" height="1800.00" transform="matrix(0.36, 0.00, -0.00, -0.36, 0.0, 704.0)"></image></g></g><image xlink:href="9F70256FFEC256F08228F39D1004F9D3.png" width="1920.00" height="1080.00" transform="matrix(0.53, 0.00, -0.00, -0.53, 0.0, 672.0)"></image><g><clipPath id="clip0x600000ab9560"><path d="M -1.0 59.0 L 1025.0 59.0 L 1025.0 -2.0 L -1.0 -2.0 Z M -1.0 59.0 "></path></clipPath><g clip-path="url(#clip0x600000ab9560)"><path d="M 0.0 0.0 L 1024.0 0.0 L 1024.0 59.0 L 0.0 59.0 Z M 0.0 0.0 " fill="url(#patternP1)"></path></g></g><text xml:space="preserve" font-family="HelveticaNeue,Helvetica Neue" font-size="28.0" fill="#FEFFFF" transform="matrix(1.00, 0.00, -0.00, -1.00, 345.3, 17.8)">E</text><text xml:space="preserve" font-family="HelveticaNeue,Helvetica Neue" font-size="28.0" fill="#FEFFFF" transform="matrix(1.00, 0.00, -0.00, -1.00, 362.4, 17.8)">N</text><text xml:space="preserve" font-family="HelveticaNeue,Helvetica Neue" font-size="28.0" fill="#FEFFFF" transform="matrix(1.00, 0.00, -0.00, -1.00, 382.6, 17.8)">I</text><text xml:space="preserve" font-family="HelveticaNeue,Helvetica Neue" font-size="28.0" fill="#FEFFFF" transform="matrix(1.00, 0.00, -0.00, -1.00, 389.9, 17.8)">A</text><text xml:space="preserve" font-family="HelveticaNeue,Helvetica Neue" font-size="28.0" fill="#FEFFFF" transform="matrix(1.00, 0.00, -0.00, -1.00, 408.0, 17.8)">C</text><text xml:space="preserve" font-family="HelveticaNeue,Helvetica Neue" font-size="28.0" fill="#FEFFFF" transform="matrix(1.00, 0.00, -0.00, -1.00, 428.2, 17.8)">,</text><text xml:space="preserve" font-family="HelveticaNeue,Helvetica Neue" font-size="28.0" fill="#FEFFFF" transform="matrix(1.00, 0.00, -0.00, -1.00, 436.0, 17.8)"> </text><text xml:space="preserve" font-family="HelveticaNeue,Helvetica Neue" font-size="28.0" fill="#FEFFFF" transform="matrix(1.00, 0.00, -0.00, -1.00, 443.8, 17.8)">t</text><text xml:space="preserve" font-family="HelveticaNeue,Helvetica Neue" font-size="28.0" fill="#FEFFFF" transform="matrix(1.00, 0.00, -0.00, -1.00, 452.6, 17.8)">h</text><text xml:space="preserve" font-family="HelveticaNeue,Helvetica Neue" font-size="28.0" fill="#FEFFFF" transform="matrix(1.00, 0.00, -0.00, -1.00, 468.2, 17.8)">e</text><text xml:space="preserve" font-family="HelveticaNeue,Helvetica Neue" font-size="28.0" fill="#FEFFFF" transform="matrix(1.00, 0.00, -0.00, -1.00, 483.2, 17.8)"> </text><text xml:space="preserve" font-family="HelveticaNeue,Helvetica Neue" font-size="28.0" fill="#FEFFFF" transform="matrix(1.00, 0.00, -0.00, -1.00, 491.0, 17.8)">F</text><text xml:space="preserve" font-family="HelveticaNeue,Helvetica Neue" font-size="28.0" fill="#FEFFFF" transform="matrix(1.00, 0.00, -0.00, -1.00, 507.1, 17.8)">i</text><text xml:space="preserve" font-family="HelveticaNeue,Helvetica Neue" font-size="28.0" fill="#FEFFFF" transform="matrix(1.00, 0.00, -0.00, -1.00, 513.3, 17.8)">r</text><text xml:space="preserve" font-family="HelveticaNeue,Helvetica Neue" font-size="28.0" fill="#FEFFFF" transform="matrix(1.00, 0.00, -0.00, -1.00, 522.6, 17.8)">s</text><text xml:space="preserve" font-family="HelveticaNeue,Helvetica Neue" font-size="28.0" fill="#FEFFFF" transform="matrix(1.00, 0.00, -0.00, -1.00, 536.6, 17.8)">t</text><text xml:space="preserve" font-family="HelveticaNeue,Helvetica Neue" font-size="28.0" fill="#FEFFFF" transform="matrix(1.00, 0.00, -0.00, -1.00, 545.4, 17.8)"> </text><text xml:space="preserve" font-family="HelveticaNeue,Helvetica Neue" font-size="28.0" fill="#FEFFFF" transform="matrix(1.00, 0.00, -0.00, -1.00, 553.2, 17.8)">C</text><text xml:space="preserve" font-family="HelveticaNeue,Helvetica Neue" font-size="28.0" fill="#FEFFFF" transform="matrix(1.00, 0.00, -0.00, -1.00, 573.4, 17.8)">o</text><text xml:space="preserve" font-family="HelveticaNeue,Helvetica Neue" font-size="28.0" fill="#FEFFFF" transform="matrix(1.00, 0.00, -0.00, -1.00, 589.5, 17.8)">m</text><text xml:space="preserve" font-family="HelveticaNeue,Helvetica Neue" font-size="28.0" fill="#FEFFFF" transform="matrix(1.00, 0.00, -0.00, -1.00, 613.4, 17.8)">p</text><text xml:space="preserve" font-family="HelveticaNeue,Helvetica Neue" font-size="28.0" fill="#FEFFFF" transform="matrix(1.00, 0.00, -0.00, -1.00, 630.0, 17.8)">u</text><text xml:space="preserve" font-family="HelveticaNeue,Helvetica Neue" font-size="28.0" fill="#FEFFFF" transform="matrix(1.00, 0.00, -0.00, -1.00, 645.5, 17.8)">t</text><text xml:space="preserve" font-family="HelveticaNeue,Helvetica Neue" font-size="28.0" fill="#FEFFFF" transform="matrix(1.00, 0.00, -0.00, -1.00, 654.4, 17.8)">e</text><text xml:space="preserve" font-family="HelveticaNeue,Helvetica Neue" font-size="28.0" fill="#FEFFFF" transform="matrix(1.00, 0.00, -0.00, -1.00, 669.4, 17.8)">r</text></g></svg>