<?xml version="1.0" encoding="UTF-8" standalone="no"?><svg xmlns="http://www.w3.org/2000/svg" xmlns:xlink="http://www.w3.org/1999/xlink" clip-rule="evenodd" stroke-miterlimit="10" viewBox="0 0 1024 768"><desc>SVG generated by Keynote</desc><defs></defs><g transform="matrix(1.00, 0.00, -0.00, -1.00, 0.0, 768.0)"><g><clipPath id="clip0x608000cad020"><path d="M 0.0 768.0 L 1024.0 768.0 L 1024.0 0.0 L 0.0 0.0 Z M 0.0 768.0 "></path></clipPath><g clip-path="url(#clip0x608000cad020)"><image xlink:href="../../69E4C2E2-6185-4F29-93A3-A8243C0B68C4/assets/B4C0A52AB44535D77F6859A7B0B72F7C.jpeg" width="2880.00" height="1800.00" transform="matrix(0.36, 0.00, -0.00, -0.36, 0.0, 704.0)"></image></g></g><text xml:space="preserve" font-family="HelveticaNeue,Helvetica Neue" font-size="80.0" fill="#FEFFFF" transform="matrix(1.00, 0.00, -0.00, -1.00, 395.7, 633.3)">P</text><text xml:space="preserve" font-family="HelveticaNeue,Helvetica Neue" font-size="80.0" fill="#FEFFFF" transform="matrix(1.00, 0.00, -0.00, -1.00, 447.6, 633.3)">r</text><text xml:space="preserve" font-family="HelveticaNeue,Helvetica Neue" font-size="80.0" fill="#FEFFFF" transform="matrix(1.00, 0.00, -0.00, -1.00, 472.8, 633.3)">o</text><text xml:space="preserve" font-family="HelveticaNeue,Helvetica Neue" font-size="80.0" fill="#FEFFFF" transform="matrix(1.00, 0.00, -0.00, -1.00, 518.7, 633.3)">l</text><text xml:space="preserve" font-family="HelveticaNeue,Helvetica Neue" font-size="80.0" fill="#FEFFFF" transform="matrix(1.00, 0.00, -0.00, -1.00, 536.4, 633.3)">o</text><text xml:space="preserve" font-family="HelveticaNeue,Helvetica Neue" font-size="80.0" fill="#FEFFFF" transform="matrix(1.00, 0.00, -0.00, -1.00, 582.4, 633.3)">g</text><text xml:space="preserve" font-family="Courier,Courier" font-size="32.0" fill="#FEFFFE" transform="matrix(1.00, 0.00, -0.00, -1.00, 271.5, 522.9)">l</text><text xml:space="preserve" font-family="Courier,Courier" font-size="32.0" fill="#FEFFFE" transform="matrix(1.00, 0.00, -0.00, -1.00, 290.7, 522.9)">i</text><text xml:space="preserve" font-family="Courier,Courier" font-size="32.0" fill="#FEFFFE" transform="matrix(1.00, 0.00, -0.00, -1.00, 309.9, 522.9)">k</text><text xml:space="preserve" font-family="Courier,Courier" font-size="32.0" fill="#FEFFFE" transform="matrix(1.00, 0.00, -0.00, -1.00, 329.1, 522.9)">e</text><text xml:space="preserve" font-family="Courier,Courier" font-size="32.0" fill="#FEFFFE" transform="matrix(1.00, 0.00, -0.00, -1.00, 348.3, 522.9)">s</text><text xml:space="preserve" font-family="Courier,Courier" font-size="32.0" fill="#FEFFFE" transform="matrix(1.00, 0.00, -0.00, -1.00, 367.5, 522.9)">(</text><text xml:space="preserve" font-family="Courier,Courier" font-size="32.0" fill="#FEFFFE" transform="matrix(1.00, 0.00, -0.00, -1.00, 386.7, 522.9)">m</text><text xml:space="preserve" font-family="Courier,Courier" font-size="32.0" fill="#FEFFFE" transform="matrix(1.00, 0.00, -0.00, -1.00, 405.9, 522.9)">a</text><text xml:space="preserve" font-family="Courier,Courier" font-size="32.0" fill="#FEFFFE" transform="matrix(1.00, 0.00, -0.00, -1.00, 425.1, 522.9)">r</text><text xml:space="preserve" font-family="Courier,Courier" font-size="32.0" fill="#FEFFFE" transform="matrix(1.00, 0.00, -0.00, -1.00, 444.3, 522.9)">y</text><text xml:space="preserve" font-family="Courier,Courier" font-size="32.0" fill="#FEFFFE" transform="matrix(1.00, 0.00, -0.00, -1.00, 463.5, 522.9)">,</text><text xml:space="preserve" font-family="Courier,Courier" font-size="32.0" fill="#FEFFFE" transform="matrix(1.00, 0.00, -0.00, -1.00, 482.7, 522.9)">f</text><text xml:space="preserve" font-family="Courier,Courier" font-size="32.0" fill="#FEFFFE" transform="matrix(1.00, 0.00, -0.00, -1.00, 501.9, 522.9)">o</text><text xml:space="preserve" font-family="Courier,Courier" font-size="32.0" fill="#FEFFFE" transform="matrix(1.00, 0.00, -0.00, -1.00, 521.1, 522.9)">o</text><text xml:space="preserve" font-family="Courier,Courier" font-size="32.0" fill="#FEFFFE" transform="matrix(1.00, 0.00, -0.00, -1.00, 540.3, 522.9)">d</text><text xml:space="preserve" font-family="Courier,Courier" font-size="32.0" fill="#FEFFFE" transform="matrix(1.00, 0.00, -0.00, -1.00, 559.5, 522.9)">)</text><text xml:space="preserve" font-family="Courier,Courier" font-size="32.0" fill="#FEFFFE" transform="matrix(1.00, 0.00, -0.00, -1.00, 578.7, 522.9)">.</text><text xml:space="preserve" font-family="Courier,Courier" font-size="32.0" fill="#FEFFFE" transform="matrix(1.00, 0.00, -0.00, -1.00, 271.5, 484.9)">l</text><text xml:space="preserve" font-family="Courier,Courier" font-size="32.0" fill="#FEFFFE" transform="matrix(1.00, 0.00, -0.00, -1.00, 290.7, 484.9)">i</text><text xml:space="preserve" font-family="Courier,Courier" font-size="32.0" fill="#FEFFFE" transform="matrix(1.00, 0.00, -0.00, -1.00, 309.9, 484.9)">k</text><text xml:space="preserve" font-family="Courier,Courier" font-size="32.0" fill="#FEFFFE" transform="matrix(1.00, 0.00, -0.00, -1.00, 329.1, 484.9)">e</text><text xml:space="preserve" font-family="Courier,Courier" font-size="32.0" fill="#FEFFFE" transform="matrix(1.00, 0.00, -0.00, -1.00, 348.3, 484.9)">s</text><text xml:space="preserve" font-family="Courier,Courier" font-size="32.0" fill="#FEFFFE" transform="matrix(1.00, 0.00, -0.00, -1.00, 367.5, 484.9)">(</text><text xml:space="preserve" font-family="Courier,Courier" font-size="32.0" fill="#FEFFFE" transform="matrix(1.00, 0.00, -0.00, -1.00, 386.7, 484.9)">m</text><text xml:space="preserve" font-family="Courier,Courier" font-size="32.0" fill="#FEFFFE" transform="matrix(1.00, 0.00, -0.00, -1.00, 405.9, 484.9)">a</text><text xml:space="preserve" font-family="Courier,Courier" font-size="32.0" fill="#FEFFFE" transform="matrix(1.00, 0.00, -0.00, -1.00, 425.1, 484.9)">r</text><text xml:space="preserve" font-family="Courier,Courier" font-size="32.0" fill="#FEFFFE" transform="matrix(1.00, 0.00, -0.00, -1.00, 444.3, 484.9)">y</text><text xml:space="preserve" font-family="Courier,Courier" font-size="32.0" fill="#FEFFFE" transform="matrix(1.00, 0.00, -0.00, -1.00, 463.5, 484.9)">,</text><text xml:space="preserve" font-family="Courier,Courier" font-size="32.0" fill="#FEFFFE" transform="matrix(1.00, 0.00, -0.00, -1.00, 482.7, 484.9)">w</text><text xml:space="preserve" font-family="Courier,Courier" font-size="32.0" fill="#FEFFFE" transform="matrix(1.00, 0.00, -0.00, -1.00, 501.9, 484.9)">i</text><text xml:space="preserve" font-family="Courier,Courier" font-size="32.0" fill="#FEFFFE" transform="matrix(1.00, 0.00, -0.00, -1.00, 521.1, 484.9)">n</text><text xml:space="preserve" font-family="Courier,Courier" font-size="32.0" fill="#FEFFFE" transform="matrix(1.00, 0.00, -0.00, -1.00, 540.3, 484.9)">e</text><text xml:space="preserve" font-family="Courier,Courier" font-size="32.0" fill="#FEFFFE" transform="matrix(1.00, 0.00, -0.00, -1.00, 559.5, 484.9)">)</text><text xml:space="preserve" font-family="Courier,Courier" font-size="32.0" fill="#FEFFFE" transform="matrix(1.00, 0.00, -0.00, -1.00, 578.7, 484.9)">.</text><text xml:space="preserve" font-family="Courier,Courier" font-size="32.0" fill="#FEFFFE" transform="matrix(1.00, 0.00, -0.00, -1.00, 271.5, 446.9)">l</text><text xml:space="preserve" font-family="Courier,Courier" font-size="32.0" fill="#FEFFFE" transform="matrix(1.00, 0.00, -0.00, -1.00, 290.7, 446.9)">i</text><text xml:space="preserve" font-family="Courier,Courier" font-size="32.0" fill="#FEFFFE" transform="matrix(1.00, 0.00, -0.00, -1.00, 309.9, 446.9)">k</text><text xml:space="preserve" font-family="Courier,Courier" font-size="32.0" fill="#FEFFFE" transform="matrix(1.00, 0.00, -0.00, -1.00, 329.1, 446.9)">e</text><text xml:space="preserve" font-family="Courier,Courier" font-size="32.0" fill="#FEFFFE" transform="matrix(1.00, 0.00, -0.00, -1.00, 348.3, 446.9)">s</text><text xml:space="preserve" font-family="Courier,Courier" font-size="32.0" fill="#FEFFFE" transform="matrix(1.00, 0.00, -0.00, -1.00, 367.5, 446.9)">(</text><text xml:space="preserve" font-family="Courier,Courier" font-size="32.0" fill="#FEFFFE" transform="matrix(1.00, 0.00, -0.00, -1.00, 386.7, 446.9)">j</text><text xml:space="preserve" font-family="Courier,Courier" font-size="32.0" fill="#FEFFFE" transform="matrix(1.00, 0.00, -0.00, -1.00, 405.9, 446.9)">o</text><text xml:space="preserve" font-family="Courier,Courier" font-size="32.0" fill="#FEFFFE" transform="matrix(1.00, 0.00, -0.00, -1.00, 425.1, 446.9)">h</text><text xml:space="preserve" font-family="Courier,Courier" font-size="32.0" fill="#FEFFFE" transform="matrix(1.00, 0.00, -0.00, -1.00, 444.3, 446.9)">n</text><text xml:space="preserve" font-family="Courier,Courier" font-size="32.0" fill="#FEFFFE" transform="matrix(1.00, 0.00, -0.00, -1.00, 463.5, 446.9)">,</text><text xml:space="preserve" font-family="Courier,Courier" font-size="32.0" fill="#FEFFFE" transform="matrix(1.00, 0.00, -0.00, -1.00, 482.7, 446.9)">w</text><text xml:space="preserve" font-family="Courier,Courier" font-size="32.0" fill="#FEFFFE" transform="matrix(1.00, 0.00, -0.00, -1.00, 501.9, 446.9)">i</text><text xml:space="preserve" font-family="Courier,Courier" font-size="32.0" fill="#FEFFFE" transform="matrix(1.00, 0.00, -0.00, -1.00, 521.1, 446.9)">n</text><text xml:space="preserve" font-family="Courier,Courier" font-size="32.0" fill="#FEFFFE" transform="matrix(1.00, 0.00, -0.00, -1.00, 540.3, 446.9)">e</text><text xml:space="preserve" font-family="Courier,Courier" font-size="32.0" fill="#FEFFFE" transform="matrix(1.00, 0.00, -0.00, -1.00, 559.5, 446.9)">)</text><text xml:space="preserve" font-family="Courier,Courier" font-size="32.0" fill="#FEFFFE" transform="matrix(1.00, 0.00, -0.00, -1.00, 578.7, 446.9)">.</text><text xml:space="preserve" font-family="Courier,Courier" font-size="32.0" fill="#FEFFFE" transform="matrix(1.00, 0.00, -0.00, -1.00, 271.5, 408.9)">l</text><text xml:space="preserve" font-family="Courier,Courier" font-size="32.0" fill="#FEFFFE" transform="matrix(1.00, 0.00, -0.00, -1.00, 290.7, 408.9)">i</text><text xml:space="preserve" font-family="Courier,Courier" font-size="32.0" fill="#FEFFFE" transform="matrix(1.00, 0.00, -0.00, -1.00, 309.9, 408.9)">k</text><text xml:space="preserve" font-family="Courier,Courier" font-size="32.0" fill="#FEFFFE" transform="matrix(1.00, 0.00, -0.00, -1.00, 329.1, 408.9)">e</text><text xml:space="preserve" font-family="Courier,Courier" font-size="32.0" fill="#FEFFFE" transform="matrix(1.00, 0.00, -0.00, -1.00, 348.3, 408.9)">s</text><text xml:space="preserve" font-family="Courier,Courier" font-size="32.0" fill="#FEFFFE" transform="matrix(1.00, 0.00, -0.00, -1.00, 367.5, 408.9)">(</text><text xml:space="preserve" font-family="Courier,Courier" font-size="32.0" fill="#FEFFFE" transform="matrix(1.00, 0.00, -0.00, -1.00, 386.7, 408.9)">j</text><text xml:space="preserve" font-family="Courier,Courier" font-size="32.0" fill="#FEFFFE" transform="matrix(1.00, 0.00, -0.00, -1.00, 405.9, 408.9)">o</text><text xml:space="preserve" font-family="Courier,Courier" font-size="32.0" fill="#FEFFFE" transform="matrix(1.00, 0.00, -0.00, -1.00, 425.1, 408.9)">h</text><text xml:space="preserve" font-family="Courier,Courier" font-size="32.0" fill="#FEFFFE" transform="matrix(1.00, 0.00, -0.00, -1.00, 444.3, 408.9)">n</text><text xml:space="preserve" font-family="Courier,Courier" font-size="32.0" fill="#FEFFFE" transform="matrix(1.00, 0.00, -0.00, -1.00, 463.5, 408.9)">,</text><text xml:space="preserve" font-family="Courier,Courier" font-size="32.0" fill="#FEFFFE" transform="matrix(1.00, 0.00, -0.00, -1.00, 482.7, 408.9)">m</text><text xml:space="preserve" font-family="Courier,Courier" font-size="32.0" fill="#FEFFFE" transform="matrix(1.00, 0.00, -0.00, -1.00, 501.9, 408.9)">a</text><text xml:space="preserve" font-family="Courier,Courier" font-size="32.0" fill="#FEFFFE" transform="matrix(1.00, 0.00, -0.00, -1.00, 521.1, 408.9)">r</text><text xml:space="preserve" font-family="Courier,Courier" font-size="32.0" fill="#FEFFFE" transform="matrix(1.00, 0.00, -0.00, -1.00, 540.3, 408.9)">y</text><text xml:space="preserve" font-family="Courier,Courier" font-size="32.0" fill="#FEFFFE" transform="matrix(1.00, 0.00, -0.00, -1.00, 559.5, 408.9)">)</text><text xml:space="preserve" font-family="Courier,Courier" font-size="32.0" fill="#FEFFFE" transform="matrix(1.00, 0.00, -0.00, -1.00, 578.7, 408.9)">.</text><text xml:space="preserve" font-family="Courier,Courier" font-size="32.0" fill="#FEFFFE" transform="matrix(1.00, 0.00, -0.00, -1.00, 271.5, 294.9)"> </text><text xml:space="preserve" font-family="Courier,Courier" font-size="32.0" fill="#FEFFFE" transform="matrix(1.00, 0.00, -0.00, -1.00, 290.7, 294.9)">|</text><text xml:space="preserve" font-family="Courier,Courier" font-size="32.0" fill="#FEFFFE" transform="matrix(1.00, 0.00, -0.00, -1.00, 309.9, 294.9)"> </text><text xml:space="preserve" font-family="Courier,Courier" font-size="32.0" fill="#FEFFFE" transform="matrix(1.00, 0.00, -0.00, -1.00, 329.1, 294.9)">?</text><text xml:space="preserve" font-family="Courier,Courier" font-size="32.0" fill="#FEFFFE" transform="matrix(1.00, 0.00, -0.00, -1.00, 348.3, 294.9)">-</text><text xml:space="preserve" font-family="Courier,Courier" font-size="32.0" fill="#FEFFFE" transform="matrix(1.00, 0.00, -0.00, -1.00, 367.5, 294.9)"> </text><text xml:space="preserve" font-family="Courier,Courier" font-size="32.0" fill="#FEFFFE" transform="matrix(1.00, 0.00, -0.00, -1.00, 386.7, 294.9)">l</text><text xml:space="preserve" font-family="Courier,Courier" font-size="32.0" fill="#FEFFFE" transform="matrix(1.00, 0.00, -0.00, -1.00, 405.9, 294.9)">i</text><text xml:space="preserve" font-family="Courier,Courier" font-size="32.0" fill="#FEFFFE" transform="matrix(1.00, 0.00, -0.00, -1.00, 425.1, 294.9)">k</text><text xml:space="preserve" font-family="Courier,Courier" font-size="32.0" fill="#FEFFFE" transform="matrix(1.00, 0.00, -0.00, -1.00, 444.3, 294.9)">e</text><text xml:space="preserve" font-family="Courier,Courier" font-size="32.0" fill="#FEFFFE" transform="matrix(1.00, 0.00, -0.00, -1.00, 463.5, 294.9)">s</text><text xml:space="preserve" font-family="Courier,Courier" font-size="32.0" fill="#FEFFFE" transform="matrix(1.00, 0.00, -0.00, -1.00, 482.7, 294.9)">(</text><text xml:space="preserve" font-family="Courier,Courier" font-size="32.0" fill="#FEFFFE" transform="matrix(1.00, 0.00, -0.00, -1.00, 501.9, 294.9)">m</text><text xml:space="preserve" font-family="Courier,Courier" font-size="32.0" fill="#FEFFFE" transform="matrix(1.00, 0.00, -0.00, -1.00, 521.1, 294.9)">a</text><text xml:space="preserve" font-family="Courier,Courier" font-size="32.0" fill="#FEFFFE" transform="matrix(1.00, 0.00, -0.00, -1.00, 540.3, 294.9)">r</text><text xml:space="preserve" font-family="Courier,Courier" font-size="32.0" fill="#FEFFFE" transform="matrix(1.00, 0.00, -0.00, -1.00, 559.5, 294.9)">y</text><text xml:space="preserve" font-family="Courier,Courier" font-size="32.0" fill="#FEFFFE" transform="matrix(1.00, 0.00, -0.00, -1.00, 578.7, 294.9)">,</text><text xml:space="preserve" font-family="Courier,Courier" font-size="32.0" fill="#FEFFFE" transform="matrix(1.00, 0.00, -0.00, -1.00, 597.9, 294.9)">f</text><text xml:space="preserve" font-family="Courier,Courier" font-size="32.0" fill="#FEFFFE" transform="matrix(1.00, 0.00, -0.00, -1.00, 617.1, 294.9)">o</text><text xml:space="preserve" font-family="Courier,Courier" font-size="32.0" fill="#FEFFFE" transform="matrix(1.00, 0.00, -0.00, -1.00, 636.3, 294.9)">o</text><text xml:space="preserve" font-family="Courier,Courier" font-size="32.0" fill="#FEFFFE" transform="matrix(1.00, 0.00, -0.00, -1.00, 655.5, 294.9)">d</text><text xml:space="preserve" font-family="Courier,Courier" font-size="32.0" fill="#FEFFFE" transform="matrix(1.00, 0.00, -0.00, -1.00, 674.7, 294.9)">)</text><text xml:space="preserve" font-family="Courier,Courier" font-size="32.0" fill="#FEFFFE" transform="matrix(1.00, 0.00, -0.00, -1.00, 693.9, 294.9)">.</text><text xml:space="preserve" font-family="Courier,Courier" font-size="32.0" fill="#FEFFFE" transform="matrix(1.00, 0.00, -0.00, -1.00, 713.1, 294.9)"> </text><text xml:space="preserve" font-family="Courier,Courier" font-size="32.0" fill="#FEFFFE" transform="matrix(1.00, 0.00, -0.00, -1.00, 271.5, 256.9)"> </text><text xml:space="preserve" font-family="Courier,Courier" font-size="32.0" fill="#FEFFFE" transform="matrix(1.00, 0.00, -0.00, -1.00, 290.7, 256.9)">y</text><text xml:space="preserve" font-family="Courier,Courier" font-size="32.0" fill="#FEFFFE" transform="matrix(1.00, 0.00, -0.00, -1.00, 309.9, 256.9)">e</text><text xml:space="preserve" font-family="Courier,Courier" font-size="32.0" fill="#FEFFFE" transform="matrix(1.00, 0.00, -0.00, -1.00, 329.1, 256.9)">s</text><text xml:space="preserve" font-family="Courier,Courier" font-size="32.0" fill="#FEFFFE" transform="matrix(1.00, 0.00, -0.00, -1.00, 348.3, 256.9)">.</text><text xml:space="preserve" font-family="Courier,Courier" font-size="32.0" fill="#FEFFFE" transform="matrix(1.00, 0.00, -0.00, -1.00, 271.5, 218.9)"> </text><text xml:space="preserve" font-family="Courier,Courier" font-size="32.0" fill="#FEFFFE" transform="matrix(1.00, 0.00, -0.00, -1.00, 290.7, 218.9)">|</text><text xml:space="preserve" font-family="Courier,Courier" font-size="32.0" fill="#FEFFFE" transform="matrix(1.00, 0.00, -0.00, -1.00, 309.9, 218.9)"> </text><text xml:space="preserve" font-family="Courier,Courier" font-size="32.0" fill="#FEFFFE" transform="matrix(1.00, 0.00, -0.00, -1.00, 329.1, 218.9)">?</text><text xml:space="preserve" font-family="Courier,Courier" font-size="32.0" fill="#FEFFFE" transform="matrix(1.00, 0.00, -0.00, -1.00, 348.3, 218.9)">-</text><text xml:space="preserve" font-family="Courier,Courier" font-size="32.0" fill="#FEFFFE" transform="matrix(1.00, 0.00, -0.00, -1.00, 367.5, 218.9)"> </text><text xml:space="preserve" font-family="Courier,Courier" font-size="32.0" fill="#FEFFFE" transform="matrix(1.00, 0.00, -0.00, -1.00, 386.7, 218.9)">l</text><text xml:space="preserve" font-family="Courier,Courier" font-size="32.0" fill="#FEFFFE" transform="matrix(1.00, 0.00, -0.00, -1.00, 405.9, 218.9)">i</text><text xml:space="preserve" font-family="Courier,Courier" font-size="32.0" fill="#FEFFFE" transform="matrix(1.00, 0.00, -0.00, -1.00, 425.1, 218.9)">k</text><text xml:space="preserve" font-family="Courier,Courier" font-size="32.0" fill="#FEFFFE" transform="matrix(1.00, 0.00, -0.00, -1.00, 444.3, 218.9)">e</text><text xml:space="preserve" font-family="Courier,Courier" font-size="32.0" fill="#FEFFFE" transform="matrix(1.00, 0.00, -0.00, -1.00, 463.5, 218.9)">s</text><text xml:space="preserve" font-family="Courier,Courier" font-size="32.0" fill="#FEFFFE" transform="matrix(1.00, 0.00, -0.00, -1.00, 482.7, 218.9)">(</text><text xml:space="preserve" font-family="Courier,Courier" font-size="32.0" fill="#FEFFFE" transform="matrix(1.00, 0.00, -0.00, -1.00, 501.9, 218.9)">j</text><text xml:space="preserve" font-family="Courier,Courier" font-size="32.0" fill="#FEFFFE" transform="matrix(1.00, 0.00, -0.00, -1.00, 521.1, 218.9)">o</text><text xml:space="preserve" font-family="Courier,Courier" font-size="32.0" fill="#FEFFFE" transform="matrix(1.00, 0.00, -0.00, -1.00, 540.3, 218.9)">h</text><text xml:space="preserve" font-family="Courier,Courier" font-size="32.0" fill="#FEFFFE" transform="matrix(1.00, 0.00, -0.00, -1.00, 559.5, 218.9)">n</text><text xml:space="preserve" font-family="Courier,Courier" font-size="32.0" fill="#FEFFFE" transform="matrix(1.00, 0.00, -0.00, -1.00, 578.7, 218.9)">,</text><text xml:space="preserve" font-family="Courier,Courier" font-size="32.0" fill="#FEFFFE" transform="matrix(1.00, 0.00, -0.00, -1.00, 597.9, 218.9)">w</text><text xml:space="preserve" font-family="Courier,Courier" font-size="32.0" fill="#FEFFFE" transform="matrix(1.00, 0.00, -0.00, -1.00, 617.1, 218.9)">i</text><text xml:space="preserve" font-family="Courier,Courier" font-size="32.0" fill="#FEFFFE" transform="matrix(1.00, 0.00, -0.00, -1.00, 636.3, 218.9)">n</text><text xml:space="preserve" font-family="Courier,Courier" font-size="32.0" fill="#FEFFFE" transform="matrix(1.00, 0.00, -0.00, -1.00, 655.5, 218.9)">e</text><text xml:space="preserve" font-family="Courier,Courier" font-size="32.0" fill="#FEFFFE" transform="matrix(1.00, 0.00, -0.00, -1.00, 674.7, 218.9)">)</text><text xml:space="preserve" font-family="Courier,Courier" font-size="32.0" fill="#FEFFFE" transform="matrix(1.00, 0.00, -0.00, -1.00, 693.9, 218.9)">.</text><text xml:space="preserve" font-family="Courier,Courier" font-size="32.0" fill="#FEFFFE" transform="matrix(1.00, 0.00, -0.00, -1.00, 713.1, 218.9)"> </text><text xml:space="preserve" font-family="Courier,Courier" font-size="32.0" fill="#FEFFFE" transform="matrix(1.00, 0.00, -0.00, -1.00, 271.5, 180.9)"> </text><text xml:space="preserve" font-family="Courier,Courier" font-size="32.0" fill="#FEFFFE" transform="matrix(1.00, 0.00, -0.00, -1.00, 290.7, 180.9)">y</text><text xml:space="preserve" font-family="Courier,Courier" font-size="32.0" fill="#FEFFFE" transform="matrix(1.00, 0.00, -0.00, -1.00, 309.9, 180.9)">e</text><text xml:space="preserve" font-family="Courier,Courier" font-size="32.0" fill="#FEFFFE" transform="matrix(1.00, 0.00, -0.00, -1.00, 329.1, 180.9)">s</text><text xml:space="preserve" font-family="Courier,Courier" font-size="32.0" fill="#FEFFFE" transform="matrix(1.00, 0.00, -0.00, -1.00, 348.3, 180.9)">.</text><text xml:space="preserve" font-family="Courier,Courier" font-size="32.0" fill="#FEFFFE" transform="matrix(1.00, 0.00, -0.00, -1.00, 271.5, 142.9)"> </text><text xml:space="preserve" font-family="Courier,Courier" font-size="32.0" fill="#FEFFFE" transform="matrix(1.00, 0.00, -0.00, -1.00, 290.7, 142.9)">|</text><text xml:space="preserve" font-family="Courier,Courier" font-size="32.0" fill="#FEFFFE" transform="matrix(1.00, 0.00, -0.00, -1.00, 309.9, 142.9)"> </text><text xml:space="preserve" font-family="Courier,Courier" font-size="32.0" fill="#FEFFFE" transform="matrix(1.00, 0.00, -0.00, -1.00, 329.1, 142.9)">?</text><text xml:space="preserve" font-family="Courier,Courier" font-size="32.0" fill="#FEFFFE" transform="matrix(1.00, 0.00, -0.00, -1.00, 348.3, 142.9)">-</text><text xml:space="preserve" font-family="Courier,Courier" font-size="32.0" fill="#FEFFFE" transform="matrix(1.00, 0.00, -0.00, -1.00, 367.5, 142.9)"> </text><text xml:space="preserve" font-family="Courier,Courier" font-size="32.0" fill="#FEFFFE" transform="matrix(1.00, 0.00, -0.00, -1.00, 386.7, 142.9)">l</text><text xml:space="preserve" font-family="Courier,Courier" font-size="32.0" fill="#FEFFFE" transform="matrix(1.00, 0.00, -0.00, -1.00, 405.9, 142.9)">i</text><text xml:space="preserve" font-family="Courier,Courier" font-size="32.0" fill="#FEFFFE" transform="matrix(1.00, 0.00, -0.00, -1.00, 425.1, 142.9)">k</text><text xml:space="preserve" font-family="Courier,Courier" font-size="32.0" fill="#FEFFFE" transform="matrix(1.00, 0.00, -0.00, -1.00, 444.3, 142.9)">e</text><text xml:space="preserve" font-family="Courier,Courier" font-size="32.0" fill="#FEFFFE" transform="matrix(1.00, 0.00, -0.00, -1.00, 463.5, 142.9)">s</text><text xml:space="preserve" font-family="Courier,Courier" font-size="32.0" fill="#FEFFFE" transform="matrix(1.00, 0.00, -0.00, -1.00, 482.7, 142.9)">(</text><text xml:space="preserve" font-family="Courier,Courier" font-size="32.0" fill="#FEFFFE" transform="matrix(1.00, 0.00, -0.00, -1.00, 501.9, 142.9)">j</text><text xml:space="preserve" font-family="Courier,Courier" font-size="32.0" fill="#FEFFFE" transform="matrix(1.00, 0.00, -0.00, -1.00, 521.1, 142.9)">o</text><text xml:space="preserve" font-family="Courier,Courier" font-size="32.0" fill="#FEFFFE" transform="matrix(1.00, 0.00, -0.00, -1.00, 540.3, 142.9)">h</text><text xml:space="preserve" font-family="Courier,Courier" font-size="32.0" fill="#FEFFFE" transform="matrix(1.00, 0.00, -0.00, -1.00, 559.5, 142.9)">n</text><text xml:space="preserve" font-family="Courier,Courier" font-size="32.0" fill="#FEFFFE" transform="matrix(1.00, 0.00, -0.00, -1.00, 578.7, 142.9)">,</text><text xml:space="preserve" font-family="Courier,Courier" font-size="32.0" fill="#FEFFFE" transform="matrix(1.00, 0.00, -0.00, -1.00, 597.9, 142.9)">f</text><text xml:space="preserve" font-family="Courier,Courier" font-size="32.0" fill="#FEFFFE" transform="matrix(1.00, 0.00, -0.00, -1.00, 617.1, 142.9)">o</text><text xml:space="preserve" font-family="Courier,Courier" font-size="32.0" fill="#FEFFFE" transform="matrix(1.00, 0.00, -0.00, -1.00, 636.3, 142.9)">o</text><text xml:space="preserve" font-family="Courier,Courier" font-size="32.0" fill="#FEFFFE" transform="matrix(1.00, 0.00, -0.00, -1.00, 655.5, 142.9)">d</text><text xml:space="preserve" font-family="Courier,Courier" font-size="32.0" fill="#FEFFFE" transform="matrix(1.00, 0.00, -0.00, -1.00, 674.7, 142.9)">)</text><text xml:space="preserve" font-family="Courier,Courier" font-size="32.0" fill="#FEFFFE" transform="matrix(1.00, 0.00, -0.00, -1.00, 693.9, 142.9)">.</text><text xml:space="preserve" font-family="Courier,Courier" font-size="32.0" fill="#FEFFFE" transform="matrix(1.00, 0.00, -0.00, -1.00, 713.1, 142.9)"> </text><text xml:space="preserve" font-family="Courier,Courier" font-size="32.0" fill="#FEFFFE" transform="matrix(1.00, 0.00, -0.00, -1.00, 271.5, 104.9)"> </text><text xml:space="preserve" font-family="Courier,Courier" font-size="32.0" fill="#FEFFFE" transform="matrix(1.00, 0.00, -0.00, -1.00, 290.7, 104.9)">n</text><text xml:space="preserve" font-family="Courier,Courier" font-size="32.0" fill="#FEFFFE" transform="matrix(1.00, 0.00, -0.00, -1.00, 309.9, 104.9)">o</text><text xml:space="preserve" font-family="Courier,Courier" font-size="32.0" fill="#FEFFFE" transform="matrix(1.00, 0.00, -0.00, -1.00, 329.1, 104.9)">.</text></g></svg>