<?xml version="1.0" encoding="UTF-8" standalone="no"?><svg xmlns="http://www.w3.org/2000/svg" xmlns:xlink="http://www.w3.org/1999/xlink" clip-rule="evenodd" stroke-miterlimit="10" viewBox="0 0 1024 768"><desc>SVG generated by Keynote</desc><defs></defs><g transform="matrix(1.00, 0.00, -0.00, -1.00, 0.0, 768.0)"><g><clipPath id="clip0x6080008afcc0"><path d="M 0.0 768.0 L 1024.0 768.0 L 1024.0 0.0 L 0.0 0.0 Z M 0.0 768.0 "></path></clipPath><g clip-path="url(#clip0x6080008afcc0)"><image xlink:href="../../69E4C2E2-6185-4F29-93A3-A8243C0B68C4/assets/B4C0A52AB44535D77F6859A7B0B72F7C.jpeg" width="2880.00" height="1800.00" transform="matrix(0.36, 0.00, -0.00, -0.36, 0.0, 704.0)"></image></g></g><image xlink:href="../../546478FF-DF5F-46D2-AC4A-A8B90E6FEB83/assets/8819C0B16B5086D3C6B4C2F320DC99DC.png" width="301.00" height="148.00" transform="matrix(2.00, 0.00, -0.00, -2.00, 210.8, 304.3)"></image><text xml:space="preserve" font-family="HelveticaNeue,Helvetica Neue" font-size="80.0" fill="#FEFFFF" transform="matrix(1.00, 0.00, -0.00, -1.00, 257.0, 633.3)">V</text><text xml:space="preserve" font-family="HelveticaNeue,Helvetica Neue" font-size="80.0" fill="#FEFFFF" transform="matrix(1.00, 0.00, -0.00, -1.00, 301.5, 633.3)">a</text><text xml:space="preserve" font-family="HelveticaNeue,Helvetica Neue" font-size="80.0" fill="#FEFFFF" transform="matrix(1.00, 0.00, -0.00, -1.00, 344.5, 633.3)">c</text><text xml:space="preserve" font-family="HelveticaNeue,Helvetica Neue" font-size="80.0" fill="#FEFFFF" transform="matrix(1.00, 0.00, -0.00, -1.00, 387.4, 633.3)">u</text><text xml:space="preserve" font-family="HelveticaNeue,Helvetica Neue" font-size="80.0" fill="#FEFFFF" transform="matrix(1.00, 0.00, -0.00, -1.00, 431.9, 633.3)">u</text><text xml:space="preserve" font-family="HelveticaNeue,Helvetica Neue" font-size="80.0" fill="#FEFFFF" transform="matrix(1.00, 0.00, -0.00, -1.00, 476.4, 633.3)">m</text><text xml:space="preserve" font-family="HelveticaNeue,Helvetica Neue" font-size="80.0" fill="#FEFFFF" transform="matrix(1.00, 0.00, -0.00, -1.00, 544.6, 633.3)"> </text><text xml:space="preserve" font-family="HelveticaNeue,Helvetica Neue" font-size="80.0" fill="#FEFFFF" transform="matrix(1.00, 0.00, -0.00, -1.00, 566.9, 633.3)">t</text><text xml:space="preserve" font-family="HelveticaNeue,Helvetica Neue" font-size="80.0" fill="#FEFFFF" transform="matrix(1.00, 0.00, -0.00, -1.00, 592.1, 633.3)">u</text><text xml:space="preserve" font-family="HelveticaNeue,Helvetica Neue" font-size="80.0" fill="#FEFFFF" transform="matrix(1.00, 0.00, -0.00, -1.00, 636.6, 633.3)">b</text><text xml:space="preserve" font-family="HelveticaNeue,Helvetica Neue" font-size="80.0" fill="#FEFFFF" transform="matrix(1.00, 0.00, -0.00, -1.00, 684.0, 633.3)">e</text><text xml:space="preserve" font-family="HelveticaNeue,Helvetica Neue" font-size="80.0" fill="#FEFFFF" transform="matrix(1.00, 0.00, -0.00, -1.00, 727.0, 633.3)">s</text><image xlink:href="../../546478FF-DF5F-46D2-AC4A-A8B90E6FEB83/assets/F32A6E5712A4B07606AE9D617BDCF4AD.png" width="240.00" height="180.00" transform="matrix(1.65, 0.00, -0.00, -1.65, 314.6, 582.1)"></image></g></svg>